G04 PROTEUS RS274X GERBER FILE*
%FSLAX45Y45*%
%MOMM*%
G01*
%ADD10C,0.635000*%
%ADD11C,0.762000*%
%ADD12C,1.270000*%
%ADD13C,0.762000*%
%ADD14C,0.254000*%
%ADD15C,3.810000*%
%ADD16C,1.778000*%
%ADD17R,1.778000X1.778000*%
%ADD18R,2.032000X2.032000*%
%ADD19C,0.203200*%
%ADD70C,0.063500*%
G36*
X+992272Y+3849772D02*
X+1035049Y+3806995D01*
X+1035049Y+866505D01*
X+625199Y+456655D01*
X+625199Y+375832D01*
X+506168Y+256801D01*
X+337832Y+256801D01*
X+218801Y+375832D01*
X+218801Y+544168D01*
X+337832Y+663199D01*
X+418655Y+663199D01*
X+742951Y+987495D01*
X+742951Y+3686005D01*
X+701505Y+3727451D01*
X-282407Y+3727451D01*
X-234951Y+3679995D01*
X-234951Y+3583199D01*
X+25199Y+3583199D01*
X+25199Y+3526049D01*
X+250995Y+3526049D01*
X+264995Y+3512049D01*
X+270682Y+3512049D01*
X+327832Y+3569199D01*
X+496168Y+3569199D01*
X+615199Y+3450168D01*
X+615199Y+3281832D01*
X+496168Y+3162801D01*
X+327832Y+3162801D01*
X+270682Y+3219951D01*
X+144005Y+3219951D01*
X+130005Y+3233951D01*
X+25199Y+3233951D01*
X+25199Y+3041832D01*
X-17633Y+2999000D01*
X+25199Y+2956168D01*
X+25199Y+2787832D01*
X-93832Y+2668801D01*
X-234951Y+2668801D01*
X-234951Y+2600495D01*
X-130505Y+2496049D01*
X+270682Y+2496049D01*
X+327832Y+2553199D01*
X+496168Y+2553199D01*
X+615199Y+2434168D01*
X+615199Y+2265832D01*
X+496168Y+2146801D01*
X+327832Y+2146801D01*
X+270682Y+2203951D01*
X-251495Y+2203951D01*
X-361951Y+2314407D01*
X-361951Y+1520995D01*
X-171451Y+1330495D01*
X-171451Y+765005D01*
X-388505Y+547951D01*
X-1126682Y+547951D01*
X-1146794Y+527838D01*
X-869951Y+250995D01*
X-869951Y-94494D01*
X-938004Y-162547D01*
X-841773Y-224674D01*
X-803951Y-291576D01*
X-803951Y-1372944D01*
X-832240Y-1432457D01*
X-972801Y-1550354D01*
X-972801Y-1608168D01*
X-1015633Y-1651000D01*
X-972801Y-1693832D01*
X-972801Y-1862168D01*
X-1029951Y-1919318D01*
X-1029951Y-2219495D01*
X-1296505Y-2486049D01*
X-1552682Y-2486049D01*
X-1595188Y-2528555D01*
X-141415Y-2517433D01*
X-97199Y-2448545D01*
X-97199Y-2335832D01*
X+21832Y-2216801D01*
X+163951Y-2216801D01*
X+163951Y-1607199D01*
X+21832Y-1607199D01*
X-35318Y-1550049D01*
X-123995Y-1550049D01*
X-210801Y-1463243D01*
X-210801Y-1608168D01*
X-253633Y-1651000D01*
X-210801Y-1693832D01*
X-210801Y-1862168D01*
X-329832Y-1981199D01*
X-498168Y-1981199D01*
X-617199Y-1862168D01*
X-617199Y-1693832D01*
X-574367Y-1651000D01*
X-617199Y-1608168D01*
X-617199Y-1066801D01*
X-210801Y-1066801D01*
X-210801Y-1123951D01*
X-137005Y-1123951D01*
X-19162Y-1241794D01*
X+21832Y-1200801D01*
X+123594Y-1200801D01*
X+80700Y-1163199D01*
X-8168Y-1163199D01*
X-127199Y-1044168D01*
X-127199Y-875832D01*
X-8168Y-756801D01*
X+160168Y-756801D01*
X+279199Y-875832D01*
X+279199Y-944009D01*
X+430698Y-1082082D01*
X+456049Y-1138896D01*
X+456049Y-2717260D01*
X+213400Y-2979136D01*
X+157496Y-3003549D01*
X-2463179Y-3003549D01*
X-2665540Y-2845880D01*
X-2665540Y-3129853D01*
X+640000Y-3110000D01*
X+640000Y-3685540D01*
X+1848101Y-3685540D01*
X+1848101Y-3321049D01*
X+994403Y-3321049D01*
X+781849Y-3108495D01*
X+781849Y-2340216D01*
X+724699Y-2283066D01*
X+724699Y-2202243D01*
X+615951Y-2093495D01*
X+615951Y-320505D01*
X+872505Y-63951D01*
X+1446682Y-63951D01*
X+1503832Y-6801D01*
X+1672168Y-6801D01*
X+1715000Y-49633D01*
X+1757832Y-6801D01*
X+1926168Y-6801D01*
X+1969000Y-49633D01*
X+2011832Y-6801D01*
X+2180168Y-6801D01*
X+2223000Y-49633D01*
X+2265832Y-6801D01*
X+2434168Y-6801D01*
X+2477000Y-49633D01*
X+2519832Y-6801D01*
X+2688168Y-6801D01*
X+2731000Y-49633D01*
X+2773832Y-6801D01*
X+2854655Y-6801D01*
X+2944005Y+82549D01*
X+3933995Y+82549D01*
X+4146549Y-130005D01*
X+4146549Y-1515246D01*
X+4051199Y-1610596D01*
X+4051199Y-1691419D01*
X+3983667Y-1758951D01*
X+4154505Y-1758951D01*
X+4296801Y-1616655D01*
X+4296801Y-1535832D01*
X+4353951Y-1478682D01*
X+4353951Y-1336505D01*
X+4568505Y-1121951D01*
X+5142427Y-1121951D01*
X+4837675Y-817199D01*
X+4765832Y-817199D01*
X+4715032Y-766399D01*
X+4624968Y-766399D01*
X+4584168Y-807199D01*
X+4415832Y-807199D01*
X+4296801Y-688168D01*
X+4296801Y-616325D01*
X+4165601Y-485125D01*
X+4165601Y+190875D01*
X+4127875Y+228601D01*
X+3413347Y+228601D01*
X+3408582Y+221639D01*
X+3339485Y+182462D01*
X+2485093Y+177392D01*
X+2420776Y+208912D01*
X+2309262Y+348801D01*
X+2265832Y+348801D01*
X+2223000Y+391633D01*
X+2180168Y+348801D01*
X+2011832Y+348801D01*
X+1969000Y+391633D01*
X+1926168Y+348801D01*
X+1384801Y+348801D01*
X+1384801Y+755199D01*
X+1441951Y+755199D01*
X+1441951Y+839505D01*
X+1407505Y+873951D01*
X+1239505Y+873951D01*
X+1231255Y+882201D01*
X+1226353Y+882201D01*
X+1122201Y+986353D01*
X+1122201Y+1133647D01*
X+1226353Y+1237799D01*
X+1373647Y+1237799D01*
X+1441951Y+1169495D01*
X+1441951Y+2804495D01*
X+2426801Y+3789345D01*
X+2426801Y+3870168D01*
X+2442173Y+3885540D01*
X+956504Y+3885540D01*
X+992272Y+3849772D01*
G37*
%LPC*%
G36*
X+280682Y+1622049D02*
X+275199Y+1622049D01*
X+275199Y+1673199D01*
X-131199Y+1673199D01*
X-131199Y+1131832D01*
X-88367Y+1089000D01*
X-131199Y+1046168D01*
X-131199Y+877832D01*
X-12168Y+758801D01*
X+156168Y+758801D01*
X+275199Y+877832D01*
X+275199Y+1046168D01*
X+232367Y+1089000D01*
X+275199Y+1131832D01*
X+275199Y+1323951D01*
X+286682Y+1323951D01*
X+337832Y+1272801D01*
X+506168Y+1272801D01*
X+625199Y+1391832D01*
X+625199Y+1560168D01*
X+506168Y+1679199D01*
X+337832Y+1679199D01*
X+280682Y+1622049D01*
G37*
G36*
X-617199Y-143199D02*
X-617199Y-278168D01*
X-574367Y-321000D01*
X-617199Y-363832D01*
X-617199Y-532168D01*
X-498168Y-651199D01*
X-329832Y-651199D01*
X-210801Y-532168D01*
X-210801Y-363832D01*
X-253633Y-321000D01*
X-210801Y-278168D01*
X-210801Y-86049D01*
X-191495Y-86049D01*
X-187495Y-90049D01*
X-65318Y-90049D01*
X-8168Y-147199D01*
X+160168Y-147199D01*
X+279199Y-28168D01*
X+279199Y+140168D01*
X+160168Y+259199D01*
X-8168Y+259199D01*
X-65318Y+202049D01*
X-66505Y+202049D01*
X-70505Y+206049D01*
X-210801Y+206049D01*
X-210801Y+263199D01*
X-617199Y+263199D01*
X-617199Y-143199D01*
G37*
G36*
X+1791750Y-3653151D02*
X+1791750Y-3626849D01*
X+1773151Y-3608250D01*
X+1746849Y-3608250D01*
X+1728250Y-3626849D01*
X+1728250Y-3653151D01*
X+1746849Y-3671750D01*
X+1773151Y-3671750D01*
X+1791750Y-3653151D01*
G37*
%LPD*%
G36*
X+6629399Y-1206125D02*
X+6629399Y-1460125D01*
X+6413125Y-1676399D01*
X+5588375Y-1676399D01*
X+5524875Y-1612899D01*
X+5433199Y-1612899D01*
X+5433199Y-1700168D01*
X+5335367Y-1798000D01*
X+5433199Y-1895832D01*
X+5433199Y-2064168D01*
X+5314168Y-2183199D01*
X+5198845Y-2183199D01*
X+5013495Y-2368549D01*
X+3241505Y-2368549D01*
X+3149838Y-2276882D01*
X+3084168Y-2342552D01*
X+2915832Y-2342552D01*
X+2842698Y-2269418D01*
X+2786168Y-2325948D01*
X+2617832Y-2325948D01*
X+2498801Y-2206917D01*
X+2498801Y-2038581D01*
X+2617832Y-1919550D01*
X+2698655Y-1919550D01*
X+2795754Y-1822451D01*
X+3108495Y-1822451D01*
X+3362495Y-2076451D01*
X+4245084Y-2076451D01*
X+4219682Y-2051049D01*
X+3783756Y-2051049D01*
X+3538655Y-1805948D01*
X+3457832Y-1805948D01*
X+3338801Y-1686917D01*
X+3338801Y-1543049D01*
X+1266995Y-1543049D01*
X+1225549Y-1584495D01*
X+1225549Y-1989699D01*
X+1322066Y-1989699D01*
X+1441097Y-2108730D01*
X+1441097Y-2189553D01*
X+1962995Y-2711451D01*
X+2331554Y-2711451D01*
X+2026655Y-2406552D01*
X+1945832Y-2406552D01*
X+1888000Y-2348720D01*
X+1848470Y-2388250D01*
X+1863151Y-2388250D01*
X+1881750Y-2406849D01*
X+1881750Y-2433151D01*
X+1863151Y-2451750D01*
X+1836849Y-2451750D01*
X+1818250Y-2433151D01*
X+1818250Y-2406849D01*
X+1832547Y-2392552D01*
X+1675832Y-2392552D01*
X+1556801Y-2273521D01*
X+1556801Y-2105185D01*
X+1675832Y-1986154D01*
X+1844168Y-1986154D01*
X+1902000Y-2043986D01*
X+1945832Y-2000154D01*
X+2114168Y-2000154D01*
X+2233199Y-2119185D01*
X+2233199Y-2200008D01*
X+2617642Y-2584451D01*
X+4765505Y-2584451D01*
X+4958005Y-2391951D01*
X+5814998Y-2391951D01*
X+5922949Y-2284000D01*
X+5795201Y-2156252D01*
X+5795201Y-1903748D01*
X+5973748Y-1725201D01*
X+6226252Y-1725201D01*
X+6404799Y-1903748D01*
X+6404799Y-2156252D01*
X+6277051Y-2284000D01*
X+6404799Y-2411748D01*
X+6404799Y-2664252D01*
X+6226252Y-2842799D01*
X+5973748Y-2842799D01*
X+5814998Y-2684049D01*
X+5078995Y-2684049D01*
X+4972049Y-2790995D01*
X+4972049Y-2854495D01*
X+4961956Y-2864588D01*
X+5013199Y-2915832D01*
X+5013199Y-3006257D01*
X+5026801Y-2992655D01*
X+5026801Y-2911832D01*
X+5145832Y-2792801D01*
X+5314168Y-2792801D01*
X+5433199Y-2911832D01*
X+5433199Y-3080168D01*
X+5314168Y-3199199D01*
X+5233345Y-3199199D01*
X+4984495Y-3448049D01*
X+4486505Y-3448049D01*
X+4273951Y-3235495D01*
X+4273951Y-3126049D01*
X+4003505Y-3126049D01*
X+3881005Y-3003549D01*
X+3577799Y-3003549D01*
X+3577799Y-3133647D01*
X+3473647Y-3237799D01*
X+3326353Y-3237799D01*
X+3294603Y-3206049D01*
X+3250495Y-3206049D01*
X+3226049Y-3230495D01*
X+3226049Y-3254101D01*
X+3549899Y-3254101D01*
X+3549899Y-3323951D01*
X+3634603Y-3323951D01*
X+3666353Y-3292201D01*
X+3813647Y-3292201D01*
X+3917799Y-3396353D01*
X+3917799Y-3543647D01*
X+3813647Y-3647799D01*
X+3666353Y-3647799D01*
X+3634603Y-3616049D01*
X+3549899Y-3616049D01*
X+3549899Y-3685540D01*
X+6645540Y-3685540D01*
X+6645540Y-1189984D01*
X+6629399Y-1206125D01*
G37*
%LPC*%
G36*
X+6441750Y-3173151D02*
X+6441750Y-3146849D01*
X+6423151Y-3128250D01*
X+6396849Y-3128250D01*
X+6378250Y-3146849D01*
X+6378250Y-3173151D01*
X+6396849Y-3191750D01*
X+6423151Y-3191750D01*
X+6441750Y-3173151D01*
G37*
%LPD*%
G36*
X+3304168Y+3572801D02*
X+3135832Y+3572801D01*
X+3088000Y+3620633D01*
X+3034168Y+3566801D01*
X+2865832Y+3566801D01*
X+2782000Y+3650633D01*
X+2714168Y+3582801D01*
X+2633345Y+3582801D01*
X+1734049Y+2683505D01*
X+1734049Y+2678593D01*
X+1971505Y+2916049D01*
X+2488682Y+2916049D01*
X+2545832Y+2973199D01*
X+2714168Y+2973199D01*
X+2787318Y+2900049D01*
X+2808682Y+2900049D01*
X+2865832Y+2957199D01*
X+3034168Y+2957199D01*
X+3082000Y+2909367D01*
X+3135832Y+2963199D01*
X+3304168Y+2963199D01*
X+3357318Y+2910049D01*
X+3438682Y+2910049D01*
X+3495832Y+2967199D01*
X+3664168Y+2967199D01*
X+3783199Y+2848168D01*
X+3783199Y+2679832D01*
X+3664168Y+2560801D01*
X+3495832Y+2560801D01*
X+3438682Y+2617951D01*
X+3365318Y+2617951D01*
X+3304168Y+2556801D01*
X+3223345Y+2556801D01*
X+2996995Y+2330451D01*
X+2902916Y+2330451D01*
X+2923199Y+2310168D01*
X+2923199Y+2141832D01*
X+2804168Y+2022801D01*
X+2635832Y+2022801D01*
X+2578682Y+2079951D01*
X+2479505Y+2079951D01*
X+2446662Y+2112794D01*
X+2394168Y+2060301D01*
X+2313345Y+2060301D01*
X+2305049Y+2052005D01*
X+2305049Y+1450699D01*
X+2393951Y+1450699D01*
X+2393951Y+1520995D01*
X+2606505Y+1733549D01*
X+2992505Y+1733549D01*
X+3033951Y+1774995D01*
X+3033951Y+2052182D01*
X+2976801Y+2109332D01*
X+2976801Y+2277668D01*
X+3095832Y+2396699D01*
X+3264168Y+2396699D01*
X+3321318Y+2339549D01*
X+3442682Y+2339549D01*
X+3495832Y+2392699D01*
X+3664168Y+2392699D01*
X+3783199Y+2273668D01*
X+3783199Y+2105332D01*
X+3664168Y+1986301D01*
X+3495832Y+1986301D01*
X+3434682Y+2047451D01*
X+3326049Y+2047451D01*
X+3326049Y+1654005D01*
X+3278593Y+1606549D01*
X+4532907Y+1606549D01*
X+4436655Y+1702801D01*
X+4355832Y+1702801D01*
X+4236801Y+1821832D01*
X+4236801Y+1990168D01*
X+4355832Y+2109199D01*
X+4390257Y+2109199D01*
X+3790951Y+2708505D01*
X+3790951Y+3559005D01*
X+3718662Y+3631294D01*
X+3664168Y+3576801D01*
X+3495832Y+3576801D01*
X+3402000Y+3670633D01*
X+3304168Y+3572801D01*
G37*
G36*
X+5167243Y+3119199D02*
X+5254168Y+3119199D01*
X+5373199Y+3000168D01*
X+5373199Y+2831832D01*
X+5279206Y+2737838D01*
X+5543549Y+2473495D01*
X+5543549Y+1781005D01*
X+5330995Y+1568451D01*
X+4988093Y+1568451D01*
X+5162549Y+1393995D01*
X+5162549Y+1033199D01*
X+5284168Y+1033199D01*
X+5403199Y+914168D01*
X+5403199Y+745832D01*
X+5284168Y+626801D01*
X+5162549Y+626801D01*
X+5162549Y+463505D01*
X+4956049Y+257005D01*
X+4956049Y-39951D01*
X+5058682Y-39951D01*
X+5115832Y+17199D01*
X+5284168Y+17199D01*
X+5403199Y-101832D01*
X+5403199Y-270168D01*
X+5374916Y-298451D01*
X+5563005Y-298451D01*
X+5765201Y-96255D01*
X+5765201Y+128252D01*
X+5892949Y+256000D01*
X+5765201Y+383748D01*
X+5765201Y+636252D01*
X+5943748Y+814799D01*
X+6196252Y+814799D01*
X+6374799Y+636252D01*
X+6374799Y+383748D01*
X+6247051Y+256000D01*
X+6374799Y+128252D01*
X+6374799Y-124252D01*
X+6196252Y-302799D01*
X+5971745Y-302799D01*
X+5683995Y-590549D01*
X+5433199Y-590549D01*
X+5433199Y-684168D01*
X+5389117Y-728250D01*
X+5413151Y-728250D01*
X+5431750Y-746849D01*
X+5431750Y-773151D01*
X+5413151Y-791750D01*
X+5386849Y-791750D01*
X+5368250Y-773151D01*
X+5368250Y-749117D01*
X+5314168Y-803199D01*
X+5254723Y-803199D01*
X+5313125Y-861601D01*
X+5775201Y-861601D01*
X+5775201Y-633748D01*
X+5953748Y-455201D01*
X+6206252Y-455201D01*
X+6384799Y-633748D01*
X+6384799Y-861601D01*
X+6388101Y-861601D01*
X+6388101Y+1353557D01*
X+6374799Y+1340255D01*
X+6374799Y+1115748D01*
X+6196252Y+937201D01*
X+5943748Y+937201D01*
X+5765201Y+1115748D01*
X+5765201Y+1368252D01*
X+5892949Y+1496000D01*
X+5765201Y+1623748D01*
X+5765201Y+1876252D01*
X+5943748Y+2054799D01*
X+6196252Y+2054799D01*
X+6267451Y+1983600D01*
X+6267451Y+2888400D01*
X+6166252Y+2787201D01*
X+5913748Y+2787201D01*
X+5735201Y+2965748D01*
X+5735201Y+3199951D01*
X+5247995Y+3199951D01*
X+5167243Y+3119199D01*
G37*
G36*
X+2242049Y-759500D02*
X+2242049Y-819995D01*
X+2176049Y-885995D01*
X+2176049Y-1046035D01*
X+2233199Y-1103185D01*
X+2233199Y-1250951D01*
X+2558835Y-1250951D01*
X+2498801Y-1190917D01*
X+2498801Y-1022581D01*
X+2555951Y-965431D01*
X+2555951Y-822495D01*
X+2457951Y-724495D01*
X+2457951Y-389416D01*
X+2434168Y-413199D01*
X+2265832Y-413199D01*
X+2242049Y-389416D01*
X+2242049Y-759500D01*
G37*
G36*
X-2044101Y-705899D02*
X-2044101Y-1721899D01*
X-2383951Y-1721899D01*
X-2383951Y-2364673D01*
X-2234650Y-2533447D01*
X-1791311Y-2530056D01*
X-1897199Y-2424168D01*
X-1897199Y-2255832D01*
X-1778168Y-2136801D01*
X-1609832Y-2136801D01*
X-1552682Y-2193951D01*
X-1417495Y-2193951D01*
X-1322049Y-2098505D01*
X-1322049Y-1919318D01*
X-1379199Y-1862168D01*
X-1379199Y-1781345D01*
X-1606549Y-1553994D01*
X-1606549Y-1523916D01*
X-1609832Y-1527199D01*
X-1778168Y-1527199D01*
X-1897199Y-1408168D01*
X-1897199Y-1239832D01*
X-1840049Y-1182682D01*
X-1840049Y-1169995D01*
X-1870049Y-1139995D01*
X-1870049Y-827318D01*
X-1927199Y-770168D01*
X-1927199Y-689345D01*
X-2044101Y-572443D01*
X-2044101Y-705899D01*
G37*
D10*
X+3220000Y+2760000D02*
X+2936500Y+2476500D01*
X+2159000Y+2476500D01*
X+2032000Y+2349500D01*
X+2032000Y+762500D01*
X+2096000Y+698500D01*
X+2096000Y+552000D01*
X+3220000Y+2760000D02*
X+3224000Y+2764000D01*
X+3580000Y+2764000D01*
X+2630000Y+2770000D02*
X+2032000Y+2770000D01*
X+1842000Y+2580000D01*
X+1842000Y+552000D01*
X+2630000Y+2770000D02*
X+2646000Y+2754000D01*
X+2950000Y+2754000D01*
X+4800000Y+1906000D02*
X+3937000Y+2769000D01*
X+3937000Y+3619500D01*
X+3776500Y+3780000D01*
X+3580000Y+3780000D01*
X+4800000Y+1906000D02*
X+4806000Y+1900000D01*
X+5170000Y+1900000D01*
X+5016500Y+2794000D02*
X+4953000Y+2730500D01*
X+4381500Y+2730500D01*
X+4254500Y+2857500D01*
X+4254500Y+3746500D01*
X+4072980Y+3928020D01*
X+3108020Y+3928020D01*
X+2950000Y+3770000D01*
X+5016500Y+2794000D02*
X+5016500Y+3175000D01*
X+5187500Y+3346000D01*
X+6286500Y+3346000D01*
X+6413500Y+3219000D01*
X+6413500Y+1585500D01*
X+6070000Y+1242000D01*
X+5016500Y+2794000D02*
X+5397500Y+2413000D01*
X+5397500Y+1841500D01*
X+5270500Y+1714500D01*
X+4631500Y+1714500D01*
X+4440000Y+1906000D01*
X+2310000Y+2263500D02*
X+2159000Y+2112500D01*
X+2159000Y+997000D01*
X+2604000Y+552000D01*
X+2540000Y+2226000D02*
X+2720000Y+2226000D01*
X+2310000Y+2263500D02*
X+2502500Y+2263500D01*
X+2540000Y+2226000D01*
X+3180000Y+2193500D02*
X+3180000Y+1714500D01*
X+3053000Y+1587500D01*
X+2667000Y+1587500D01*
X+2540000Y+1460500D01*
X+2540000Y+1143000D01*
X+2858000Y+825000D01*
X+2858000Y+552000D01*
X+3180000Y+2193500D02*
X+3576000Y+2193500D01*
X+3580000Y+2189500D01*
X+3112000Y+552000D02*
X+3112000Y+889000D01*
X+3180000Y+957000D01*
X+3180000Y+1177500D01*
X+4810000Y-190000D02*
X+4810000Y+317500D01*
X+5016500Y+524000D01*
X+5016500Y+1333500D01*
X+4889500Y+1460500D01*
X+2970500Y+1460500D01*
X+2720000Y+1210000D01*
X+4810000Y-190000D02*
X+4814000Y-186000D01*
X+5200000Y-186000D01*
X+4480000Y-150000D02*
X+4480000Y+381000D01*
X+4353000Y+508000D01*
X+4245500Y+508000D01*
X+3580000Y+1173500D01*
X+4480000Y-150000D02*
X+4774500Y-444500D01*
X+5623500Y-444500D01*
X+6070000Y+2000D01*
X+2702000Y-1106749D02*
X+2702000Y-762000D01*
X+2604000Y-664000D01*
X+2604000Y-210000D01*
X+2702000Y-1106749D02*
X+2702001Y-1106750D01*
X+2983397Y-1106750D01*
X+3000000Y-1123353D01*
X+2858000Y-210000D02*
X+3004500Y-63500D01*
X+3873500Y-63500D01*
X+4000500Y-190500D01*
X+4000500Y-1454751D01*
X+3848000Y-1607251D01*
X+2858000Y-210000D02*
X+3234749Y-586749D01*
X+3542000Y-586749D01*
X+3810000Y-444500D02*
X+3746500Y-444500D01*
X+3746500Y-1270000D01*
X+3619500Y-1397000D01*
X+1206500Y-1397000D01*
X+1079500Y-1524000D01*
X+1079500Y-2921000D01*
X+1206500Y-3048000D01*
X+2667000Y-3048000D01*
X+2826000Y-3207000D01*
X+2826000Y-3470000D01*
X+3810000Y-444500D02*
X+3575500Y-210000D01*
X+3112000Y-210000D01*
X+3810000Y-444500D02*
X+3848000Y-444500D01*
X+3848000Y-591251D01*
X+5016500Y-1778000D02*
X+5080000Y-1841500D01*
X+5080000Y-2095500D01*
X+4953000Y-2222500D01*
X+3302000Y-2222500D01*
X+3048000Y-1968500D01*
X+2856249Y-1968500D01*
X+2702000Y-2122749D01*
X+5016500Y-1778000D02*
X+5016500Y-1616000D01*
X+5230000Y-1616000D01*
X+5016500Y-1778000D02*
X+4938900Y-1778000D01*
X+4850000Y-1689100D01*
X+4850000Y-1630000D01*
X+4500000Y-1620000D02*
X+4500000Y-1397000D01*
X+4629000Y-1268000D01*
X+6080000Y-1268000D01*
X+4500000Y-1620000D02*
X+4215000Y-1905000D01*
X+3844251Y-1905000D01*
X+3542000Y-1602749D01*
X-178000Y+3380000D02*
X+190500Y+3380000D01*
X+204500Y+3366000D01*
X+412000Y+3366000D01*
X-1378000Y+2540000D02*
X-1079500Y+2540000D01*
X-940000Y+2679500D01*
X-940000Y+2872000D01*
X-1378000Y+2540000D02*
X-1587500Y+2540000D01*
X-1719500Y+2672000D01*
X-2190000Y+2672000D01*
X+2030000Y-1187353D02*
X+1774000Y-1187353D01*
X+1760000Y-1173353D01*
X+2030000Y-1187353D02*
X+2030000Y-825500D01*
X+2096000Y-759500D01*
X+2096000Y-210000D01*
X+1237898Y-1176898D02*
X+1237898Y-814102D01*
X+1842000Y-210000D01*
X+1237898Y-1176898D02*
X+933898Y-1176898D01*
X+927898Y-1182898D01*
X+927898Y-2198898D02*
X+927898Y-3048000D01*
X+1054898Y-3175000D01*
X+2572000Y-3175000D01*
X+2572000Y-3470000D01*
X+927898Y-2198898D02*
X+762000Y-2033000D01*
X+762000Y-381000D01*
X+933000Y-210000D01*
X+1588000Y-210000D01*
X+4420000Y-2980000D02*
X+4064000Y-2980000D01*
X+3941500Y-2857500D01*
X+1902500Y-2857500D01*
X+1237898Y-2192898D01*
X+4420000Y-2980000D02*
X+4420000Y-3175000D01*
X+4547000Y-3302000D01*
X+4924000Y-3302000D01*
X+5230000Y-2996000D01*
X+4826000Y-2730500D02*
X+2557147Y-2730500D01*
X+2030000Y-2203353D01*
X+4826000Y-2730500D02*
X+5018500Y-2538000D01*
X+6100000Y-2538000D01*
X+4826000Y-2794000D02*
X+4826000Y-2730500D01*
X+4826000Y-2794000D02*
X+4810000Y-2810000D01*
X+4810000Y-3000000D01*
X+72000Y+1470000D02*
X+254000Y+1470000D01*
X+260000Y+1476000D01*
X+422000Y+1476000D01*
X-1268000Y+1710000D02*
X-1587500Y+2029500D01*
X-1587500Y+2286000D01*
X-1719500Y+2418000D01*
X-2190000Y+2418000D01*
X-1268000Y+1710000D02*
X-1268000Y+1143000D01*
X-1087001Y+962001D01*
X-690000Y+962000D01*
X-690000Y+962001D01*
X+76000Y+56000D02*
X-127000Y+56000D01*
X-131000Y+60000D01*
X-414000Y+60000D01*
X-1724000Y+330000D02*
X-1724000Y+2032000D01*
X-1856000Y+2164000D01*
X-2190000Y+2164000D01*
X-1724000Y+330000D02*
X-1333500Y-60500D01*
X-1333500Y-290499D01*
X-1176000Y-448000D01*
X-1176000Y-447999D01*
X+106000Y-1404000D02*
X-63500Y-1404000D01*
X-197500Y-1270000D01*
X-414000Y-1270000D01*
X-1176000Y-1778000D02*
X-1460500Y-1493499D01*
X-1460500Y-444500D01*
X-1905000Y+0D01*
X-1905000Y+1910000D01*
X-2190000Y+1910000D01*
X-1176000Y-1777999D02*
X-1176000Y-1778000D01*
X-1176000Y-2159000D01*
X-1357000Y-2340000D01*
X-1694000Y-2340000D01*
D11*
X+6070000Y+510000D02*
X+6350000Y+230000D01*
X+6350000Y-760000D01*
X+3000000Y-2139353D02*
X+2789853Y-2349500D01*
X+2540000Y-2349500D01*
X+2413000Y-2222500D01*
X+2413000Y-2032000D01*
X+6080000Y-760000D02*
X+6350000Y-760000D01*
X+254000Y-762000D02*
X+254000Y-635000D01*
X+317500Y-635000D01*
X+2350000Y-210000D02*
X+1886000Y+254000D01*
X+317500Y+254000D01*
X+5230000Y-1980000D02*
X+5230000Y-2222500D01*
X+5103000Y-2349500D01*
X+3175000Y-2349500D01*
X+3000000Y-2139353D02*
X+3000000Y-2349500D01*
X+3175000Y-2349500D01*
X+2413000Y-2032000D02*
X+1917353Y-2032000D01*
X+1760000Y-2189353D01*
X+72000Y+1216000D02*
X+254000Y+1034000D01*
X+254000Y+317500D01*
X+317500Y+254000D01*
X+254000Y+190500D01*
X+254000Y-571500D01*
X+317500Y-635000D01*
X+3683000Y+2349500D02*
X+3111500Y+2349500D01*
X+2984500Y+2222500D01*
X+2984500Y+1841500D01*
X+2857500Y+1714500D01*
X+2476500Y+1714500D01*
X+2310000Y+1548000D01*
X+2310000Y+1247500D01*
X+3683000Y+2349500D02*
X+3746500Y+2286000D01*
X+3746500Y+1714500D01*
X+3873500Y+1587500D01*
X+5461000Y+1587500D01*
X+3683000Y+2349500D02*
X+3746500Y+2413000D01*
X+3746500Y+3249500D01*
X+3220000Y+3776000D01*
X+72000Y+1216000D02*
X-127000Y+1216000D01*
X-127000Y+1905000D01*
X+0Y+2032000D01*
X+508000Y+2032000D01*
X+635000Y+2159000D01*
X+635000Y+2984500D01*
X+493500Y+3126000D01*
X-178000Y+3126000D01*
X+6070000Y+510000D02*
X+5520000Y+510000D01*
X+5200000Y+830000D01*
X+6040000Y+3092000D02*
X+5346000Y+3092000D01*
X+5170000Y+2916000D01*
X-508000Y-762000D02*
X-571500Y-698500D01*
X-571500Y-351500D01*
X-414000Y-194000D01*
X+6070000Y+1750000D02*
X+5524500Y+1750000D01*
X+5524500Y+1651000D01*
X+5461000Y+1587500D01*
X+6100000Y-2030000D02*
X+5461000Y-2030000D01*
X+5411000Y-1980000D01*
X+5230000Y-1980000D01*
X+6040000Y+3092000D02*
X+6040000Y+2603500D01*
X+6070000Y+2573500D01*
X+6070000Y+1750000D01*
X+5200000Y+830000D02*
X+5402000Y+830000D01*
X+5524500Y+952500D01*
X-508000Y-762000D02*
X+254000Y-762000D01*
X+5461000Y+1587500D02*
X+5524500Y+1524000D01*
X+5524500Y+952500D01*
X-2260000Y-1506000D02*
X-2260000Y-1252000D01*
D10*
X-2190000Y+1402000D02*
X-2190000Y+1016000D01*
X-2032000Y+858000D01*
X-2032000Y-378000D01*
X-1724000Y-686000D01*
X-1378000Y+3556000D02*
X-635000Y+3556000D01*
X-508000Y+3429000D01*
X-508000Y+1460500D01*
X-317500Y+1270000D01*
X-317500Y+825500D01*
X-449000Y+694000D01*
X-1268000Y+694000D01*
X-1724000Y-686000D02*
X-1724000Y-1079500D01*
X-1694000Y-1109500D01*
X-1694000Y-1324000D01*
X-2190000Y+1656000D02*
X-2190000Y+1402000D01*
D11*
X+6040000Y+3600000D02*
X+6413500Y+3600000D01*
X+6540500Y+3473000D01*
X+6540500Y-1079500D01*
X+6477000Y-1143000D01*
X+4420000Y-1964000D02*
X+4675000Y-1709000D01*
X+4675000Y-1587500D01*
X+4802000Y-1460500D01*
X+5588000Y-1460500D01*
X+5651500Y-1524000D01*
X+6350000Y-1524000D01*
X+6477000Y-1397000D01*
X+6477000Y-1143000D01*
X+4850000Y-614000D02*
X+5250000Y-1014000D01*
X+6348000Y-1014000D01*
X+6477000Y-1143000D01*
X+4500000Y-604000D02*
X+4318000Y-422000D01*
X+4318000Y+254000D01*
X+4191000Y+381000D01*
X+3429000Y+381000D01*
X+3365500Y+444500D01*
X+4480000Y+866000D02*
X+4012500Y+1333500D01*
X+3492500Y+1333500D01*
X+3365500Y+1206500D01*
X+3365500Y+444500D01*
X+4480000Y+866000D02*
X+4635500Y+866000D01*
X+4635500Y+826000D01*
X+4810000Y+826000D01*
X+4850000Y-614000D02*
X+4510000Y-614000D01*
X+4500000Y-604000D01*
X+6040000Y+3600000D02*
X+5180000Y+3600000D01*
X+4863500Y+3600000D01*
X+4800000Y+3536500D01*
X+4800000Y+2922000D02*
X+4800000Y+3536500D01*
X+4736500Y+3600000D01*
X+4418000Y+3600000D01*
X+4800000Y+2922000D02*
X+4440000Y+2922000D01*
X+4420000Y-1964000D02*
X+4440000Y-1984000D01*
X+4810000Y-1984000D01*
D10*
X-690000Y+1216000D02*
X-889000Y+1216001D01*
X-889000Y+1587500D01*
X-762000Y+1714500D01*
X-762000Y+2948000D01*
X-940000Y+3126000D01*
X-690000Y+1216001D02*
X-690000Y+1216000D01*
X-1176000Y-1524000D02*
X-1176000Y-1523999D01*
X+1588000Y+552000D02*
X+1588000Y+900000D01*
X+1468000Y+1020000D01*
X+1300000Y+1020000D01*
X+1300000Y+1060000D01*
X+3740000Y-3470000D02*
X+3334000Y-3470000D01*
X+1588000Y+900000D02*
X+1588000Y+2744000D01*
X+2630000Y+3786000D01*
D11*
X+1760000Y-2189353D02*
X+1760000Y-2330000D01*
X+1850000Y-2420000D01*
X+1760000Y-3640000D02*
X+1760000Y-3470000D01*
X+1760000Y-3469999D01*
X+2064000Y-3470000D01*
X+2216400Y-3469999D01*
X+2318000Y-3470000D01*
X+2064000Y-3470000D02*
X+1760000Y-3469999D01*
X+1760000Y-3470000D01*
X+635000Y-3470000D01*
X+508000Y-3343000D01*
X+508000Y-825500D01*
X+317500Y-635000D01*
X+2064000Y-3470000D02*
X+2064000Y-3469999D01*
X+2216400Y-3469999D01*
X+2318000Y-3469999D01*
X+2318000Y-3470000D01*
X+3365500Y+444500D02*
X+3298867Y+334623D01*
X+2520000Y+330000D01*
X+2350000Y+552000D01*
D10*
X+3112000Y+552000D02*
X+3110000Y+640900D01*
X+3110000Y+920000D01*
X+3020000Y+1010000D01*
X+3400000Y-3060000D02*
X+3190000Y-3060000D01*
X+3080000Y-3170000D01*
X+3080000Y-3470000D01*
D11*
X+6080000Y-760000D02*
X+5400000Y-760000D01*
X+6410000Y-3160000D02*
X+6630000Y-2940000D01*
X+6630000Y-2220000D01*
X+6440000Y-2030000D01*
X+6100000Y-2030000D01*
X+5400000Y-760000D02*
X+5390000Y-760000D01*
X+5230000Y-600000D01*
D10*
X-2260000Y-490000D02*
X-2476500Y-490000D01*
X-2710000Y-390000D01*
X-2690000Y+3670000D01*
X-2476500Y+3873500D01*
X+762000Y+3873500D01*
X+889000Y+3746500D01*
X+889000Y+927000D01*
X+422000Y+460000D01*
X-2260000Y-998000D02*
X-2530000Y-1020000D01*
X-2530000Y-2420000D01*
X-2300000Y-2680000D01*
X-61313Y-2662873D01*
X+106000Y-2420000D01*
X-2260000Y-744000D02*
X-2680000Y-750000D01*
X-2666603Y-2659906D01*
X-2413000Y-2857500D01*
X+127000Y-2857500D01*
X+310000Y-2660000D01*
X+310000Y-1170000D01*
X+76000Y-960000D01*
X-690000Y+1216000D02*
X-444500Y+1216001D01*
X-444500Y+952500D01*
X-597575Y+799425D01*
X-825500Y+799425D01*
X-882651Y+856576D01*
X-1460500Y+856576D01*
X-1460500Y+635000D01*
X-1016000Y+190500D01*
X-1016000Y-33999D01*
X-1176000Y-193999D01*
X-1176000Y-194000D01*
X-950000Y-330000D01*
X-950000Y-1340000D01*
X-1176000Y-1524000D01*
D11*
X-414000Y-1524000D02*
X-482600Y-1524000D01*
X-617199Y-1400000D01*
X-620000Y-850000D01*
X-508000Y-762000D01*
X-2260000Y-1506000D02*
X-2260000Y-2349500D01*
X-2109175Y-2500325D01*
X-699987Y-2521706D01*
X-639837Y-2521246D01*
X-630000Y-1650000D01*
X-414000Y-1524000D01*
D10*
X-2260000Y-236000D02*
X-2560000Y-80000D01*
X-2560000Y+3570000D01*
X-2349500Y+3746500D01*
X-508000Y+3746500D01*
X-381000Y+3619500D01*
X-381000Y+2540000D01*
X-191000Y+2350000D01*
X+412000Y+2350000D01*
X-2190000Y+1656000D02*
X-2430000Y+1650000D01*
X-2430000Y+3400000D01*
X-2222500Y+3556000D01*
X-1378000Y+3556000D01*
D12*
X+1300000Y+1060000D03*
X+3740000Y-3470000D03*
D13*
X+1850000Y-2420000D03*
X+1760000Y-3640000D03*
D12*
X+3020000Y+1010000D03*
X+3400000Y-3060000D03*
D13*
X+5400000Y-760000D03*
X+6410000Y-3160000D03*
D14*
X+992272Y+3849772D02*
X+1035049Y+3806995D01*
X+1035049Y+866505D01*
X+625199Y+456655D01*
X+625199Y+375832D01*
X+506168Y+256801D01*
X+337832Y+256801D01*
X+218801Y+375832D01*
X+218801Y+544168D01*
X+337832Y+663199D01*
X+418655Y+663199D01*
X+742951Y+987495D01*
X+742951Y+3686005D01*
X+701505Y+3727451D01*
X-282407Y+3727451D01*
X-234951Y+3679995D01*
X-234951Y+3583199D01*
X+25199Y+3583199D01*
X+25199Y+3526049D01*
X+250995Y+3526049D01*
X+264995Y+3512049D01*
X+270682Y+3512049D01*
X+327832Y+3569199D01*
X+496168Y+3569199D01*
X+615199Y+3450168D01*
X+615199Y+3281832D01*
X+496168Y+3162801D01*
X+327832Y+3162801D01*
X+270682Y+3219951D01*
X+144005Y+3219951D01*
X+130005Y+3233951D01*
X+25199Y+3233951D01*
X+25199Y+3041832D01*
X-17633Y+2999000D01*
X+25199Y+2956168D01*
X+25199Y+2787832D01*
X-93832Y+2668801D01*
X-234951Y+2668801D01*
X-234951Y+2600495D01*
X-130505Y+2496049D01*
X+270682Y+2496049D01*
X+327832Y+2553199D01*
X+496168Y+2553199D01*
X+615199Y+2434168D01*
X+615199Y+2265832D01*
X+496168Y+2146801D01*
X+327832Y+2146801D01*
X+270682Y+2203951D01*
X-251495Y+2203951D01*
X-361951Y+2314407D01*
X-361951Y+1520995D01*
X-171451Y+1330495D01*
X-171451Y+765005D01*
X-388505Y+547951D01*
X-1126682Y+547951D01*
X-1146794Y+527838D01*
X-869951Y+250995D01*
X-869951Y-94494D01*
X-938004Y-162547D01*
X-841773Y-224674D01*
X-803951Y-291576D01*
X-803951Y-1372944D01*
X-832240Y-1432457D01*
X-972801Y-1550354D01*
X-972801Y-1608168D01*
X-1015633Y-1651000D01*
X-972801Y-1693832D01*
X-972801Y-1862168D01*
X-1029951Y-1919318D01*
X-1029951Y-2219495D01*
X-1296505Y-2486049D01*
X-1552682Y-2486049D01*
X-1595188Y-2528555D01*
X-141415Y-2517433D01*
X-97199Y-2448545D01*
X-97199Y-2335832D01*
X+21832Y-2216801D01*
X+163951Y-2216801D01*
X+163951Y-1607199D01*
X+21832Y-1607199D01*
X-35318Y-1550049D01*
X-123995Y-1550049D01*
X-210801Y-1463243D01*
X-210801Y-1608168D01*
X-253633Y-1651000D01*
X-210801Y-1693832D01*
X-210801Y-1862168D01*
X-329832Y-1981199D01*
X-498168Y-1981199D01*
X-617199Y-1862168D01*
X-617199Y-1693832D01*
X-574367Y-1651000D01*
X-617199Y-1608168D01*
X-617199Y-1066801D01*
X-210801Y-1066801D01*
X-210801Y-1123951D01*
X-137005Y-1123951D01*
X-19162Y-1241794D01*
X+21832Y-1200801D01*
X+123594Y-1200801D01*
X+80700Y-1163199D01*
X-8168Y-1163199D01*
X-127199Y-1044168D01*
X-127199Y-875832D01*
X-8168Y-756801D01*
X+160168Y-756801D01*
X+279199Y-875832D01*
X+279199Y-944009D01*
X+430698Y-1082082D01*
X+456049Y-1138896D01*
X+456049Y-2717260D01*
X+213400Y-2979136D01*
X+157496Y-3003549D01*
X-2463179Y-3003549D01*
X-2665540Y-2845880D01*
X-2665540Y-3129853D01*
X+640000Y-3110000D01*
X+640000Y-3685540D01*
X+1848101Y-3685540D01*
X+1848101Y-3321049D01*
X+994403Y-3321049D01*
X+781849Y-3108495D01*
X+781849Y-2340216D01*
X+724699Y-2283066D01*
X+724699Y-2202243D01*
X+615951Y-2093495D01*
X+615951Y-320505D01*
X+872505Y-63951D01*
X+1446682Y-63951D01*
X+1503832Y-6801D01*
X+1672168Y-6801D01*
X+1715000Y-49633D01*
X+1757832Y-6801D01*
X+1926168Y-6801D01*
X+1969000Y-49633D01*
X+2011832Y-6801D01*
X+2180168Y-6801D01*
X+2223000Y-49633D01*
X+2265832Y-6801D01*
X+2434168Y-6801D01*
X+2477000Y-49633D01*
X+2519832Y-6801D01*
X+2688168Y-6801D01*
X+2731000Y-49633D01*
X+2773832Y-6801D01*
X+2854655Y-6801D01*
X+2944005Y+82549D01*
X+3933995Y+82549D01*
X+4146549Y-130005D01*
X+4146549Y-1515246D01*
X+4051199Y-1610596D01*
X+4051199Y-1691419D01*
X+3983667Y-1758951D01*
X+4154505Y-1758951D01*
X+4296801Y-1616655D01*
X+4296801Y-1535832D01*
X+4353951Y-1478682D01*
X+4353951Y-1336505D01*
X+4568505Y-1121951D01*
X+5142427Y-1121951D01*
X+4837675Y-817199D01*
X+4765832Y-817199D01*
X+4715032Y-766399D01*
X+4624968Y-766399D01*
X+4584168Y-807199D01*
X+4415832Y-807199D01*
X+4296801Y-688168D01*
X+4296801Y-616325D01*
X+4165601Y-485125D01*
X+4165601Y+190875D01*
X+4127875Y+228601D01*
X+3413347Y+228601D01*
X+3408582Y+221639D01*
X+3339485Y+182462D01*
X+2485093Y+177392D01*
X+2420776Y+208912D01*
X+2309262Y+348801D01*
X+2265832Y+348801D01*
X+2223000Y+391633D01*
X+2180168Y+348801D01*
X+2011832Y+348801D01*
X+1969000Y+391633D01*
X+1926168Y+348801D01*
X+1384801Y+348801D01*
X+1384801Y+755199D01*
X+1441951Y+755199D01*
X+1441951Y+839505D01*
X+1407505Y+873951D01*
X+1239505Y+873951D01*
X+1231255Y+882201D01*
X+1226353Y+882201D01*
X+1122201Y+986353D01*
X+1122201Y+1133647D01*
X+1226353Y+1237799D01*
X+1373647Y+1237799D01*
X+1441951Y+1169495D01*
X+1441951Y+2804495D01*
X+2426801Y+3789345D01*
X+2426801Y+3870168D01*
X+2442173Y+3885540D01*
X+956504Y+3885540D01*
X+992272Y+3849772D01*
X+280682Y+1622049D02*
X+275199Y+1622049D01*
X+275199Y+1673199D01*
X-131199Y+1673199D01*
X-131199Y+1131832D01*
X-88367Y+1089000D01*
X-131199Y+1046168D01*
X-131199Y+877832D01*
X-12168Y+758801D01*
X+156168Y+758801D01*
X+275199Y+877832D01*
X+275199Y+1046168D01*
X+232367Y+1089000D01*
X+275199Y+1131832D01*
X+275199Y+1323951D01*
X+286682Y+1323951D01*
X+337832Y+1272801D01*
X+506168Y+1272801D01*
X+625199Y+1391832D01*
X+625199Y+1560168D01*
X+506168Y+1679199D01*
X+337832Y+1679199D01*
X+280682Y+1622049D01*
X-617199Y-143199D02*
X-617199Y-278168D01*
X-574367Y-321000D01*
X-617199Y-363832D01*
X-617199Y-532168D01*
X-498168Y-651199D01*
X-329832Y-651199D01*
X-210801Y-532168D01*
X-210801Y-363832D01*
X-253633Y-321000D01*
X-210801Y-278168D01*
X-210801Y-86049D01*
X-191495Y-86049D01*
X-187495Y-90049D01*
X-65318Y-90049D01*
X-8168Y-147199D01*
X+160168Y-147199D01*
X+279199Y-28168D01*
X+279199Y+140168D01*
X+160168Y+259199D01*
X-8168Y+259199D01*
X-65318Y+202049D01*
X-66505Y+202049D01*
X-70505Y+206049D01*
X-210801Y+206049D01*
X-210801Y+263199D01*
X-617199Y+263199D01*
X-617199Y-143199D01*
X+1791750Y-3653151D02*
X+1791750Y-3626849D01*
X+1773151Y-3608250D01*
X+1746849Y-3608250D01*
X+1728250Y-3626849D01*
X+1728250Y-3653151D01*
X+1746849Y-3671750D01*
X+1773151Y-3671750D01*
X+1791750Y-3653151D01*
X+6629399Y-1206125D02*
X+6629399Y-1460125D01*
X+6413125Y-1676399D01*
X+5588375Y-1676399D01*
X+5524875Y-1612899D01*
X+5433199Y-1612899D01*
X+5433199Y-1700168D01*
X+5335367Y-1798000D01*
X+5433199Y-1895832D01*
X+5433199Y-2064168D01*
X+5314168Y-2183199D01*
X+5198845Y-2183199D01*
X+5013495Y-2368549D01*
X+3241505Y-2368549D01*
X+3149838Y-2276882D01*
X+3084168Y-2342552D01*
X+2915832Y-2342552D01*
X+2842698Y-2269418D01*
X+2786168Y-2325948D01*
X+2617832Y-2325948D01*
X+2498801Y-2206917D01*
X+2498801Y-2038581D01*
X+2617832Y-1919550D01*
X+2698655Y-1919550D01*
X+2795754Y-1822451D01*
X+3108495Y-1822451D01*
X+3362495Y-2076451D01*
X+4245084Y-2076451D01*
X+4219682Y-2051049D01*
X+3783756Y-2051049D01*
X+3538655Y-1805948D01*
X+3457832Y-1805948D01*
X+3338801Y-1686917D01*
X+3338801Y-1543049D01*
X+1266995Y-1543049D01*
X+1225549Y-1584495D01*
X+1225549Y-1989699D01*
X+1322066Y-1989699D01*
X+1441097Y-2108730D01*
X+1441097Y-2189553D01*
X+1962995Y-2711451D01*
X+2331554Y-2711451D01*
X+2026655Y-2406552D01*
X+1945832Y-2406552D01*
X+1888000Y-2348720D01*
X+1848470Y-2388250D01*
X+1863151Y-2388250D01*
X+1881750Y-2406849D01*
X+1881750Y-2433151D01*
X+1863151Y-2451750D01*
X+1836849Y-2451750D01*
X+1818250Y-2433151D01*
X+1818250Y-2406849D01*
X+1832547Y-2392552D01*
X+1675832Y-2392552D01*
X+1556801Y-2273521D01*
X+1556801Y-2105185D01*
X+1675832Y-1986154D01*
X+1844168Y-1986154D01*
X+1902000Y-2043986D01*
X+1945832Y-2000154D01*
X+2114168Y-2000154D01*
X+2233199Y-2119185D01*
X+2233199Y-2200008D01*
X+2617642Y-2584451D01*
X+4765505Y-2584451D01*
X+4958005Y-2391951D01*
X+5814998Y-2391951D01*
X+5922949Y-2284000D01*
X+5795201Y-2156252D01*
X+5795201Y-1903748D01*
X+5973748Y-1725201D01*
X+6226252Y-1725201D01*
X+6404799Y-1903748D01*
X+6404799Y-2156252D01*
X+6277051Y-2284000D01*
X+6404799Y-2411748D01*
X+6404799Y-2664252D01*
X+6226252Y-2842799D01*
X+5973748Y-2842799D01*
X+5814998Y-2684049D01*
X+5078995Y-2684049D01*
X+4972049Y-2790995D01*
X+4972049Y-2854495D01*
X+4961956Y-2864588D01*
X+5013199Y-2915832D01*
X+5013199Y-3006257D01*
X+5026801Y-2992655D01*
X+5026801Y-2911832D01*
X+5145832Y-2792801D01*
X+5314168Y-2792801D01*
X+5433199Y-2911832D01*
X+5433199Y-3080168D01*
X+5314168Y-3199199D01*
X+5233345Y-3199199D01*
X+4984495Y-3448049D01*
X+4486505Y-3448049D01*
X+4273951Y-3235495D01*
X+4273951Y-3126049D01*
X+4003505Y-3126049D01*
X+3881005Y-3003549D01*
X+3577799Y-3003549D01*
X+3577799Y-3133647D01*
X+3473647Y-3237799D01*
X+3326353Y-3237799D01*
X+3294603Y-3206049D01*
X+3250495Y-3206049D01*
X+3226049Y-3230495D01*
X+3226049Y-3254101D01*
X+3549899Y-3254101D01*
X+3549899Y-3323951D01*
X+3634603Y-3323951D01*
X+3666353Y-3292201D01*
X+3813647Y-3292201D01*
X+3917799Y-3396353D01*
X+3917799Y-3543647D01*
X+3813647Y-3647799D01*
X+3666353Y-3647799D01*
X+3634603Y-3616049D01*
X+3549899Y-3616049D01*
X+3549899Y-3685540D01*
X+6645540Y-3685540D01*
X+6645540Y-1189984D01*
X+6629399Y-1206125D01*
X+6441750Y-3173151D02*
X+6441750Y-3146849D01*
X+6423151Y-3128250D01*
X+6396849Y-3128250D01*
X+6378250Y-3146849D01*
X+6378250Y-3173151D01*
X+6396849Y-3191750D01*
X+6423151Y-3191750D01*
X+6441750Y-3173151D01*
X+3304168Y+3572801D02*
X+3135832Y+3572801D01*
X+3088000Y+3620633D01*
X+3034168Y+3566801D01*
X+2865832Y+3566801D01*
X+2782000Y+3650633D01*
X+2714168Y+3582801D01*
X+2633345Y+3582801D01*
X+1734049Y+2683505D01*
X+1734049Y+2678593D01*
X+1971505Y+2916049D01*
X+2488682Y+2916049D01*
X+2545832Y+2973199D01*
X+2714168Y+2973199D01*
X+2787318Y+2900049D01*
X+2808682Y+2900049D01*
X+2865832Y+2957199D01*
X+3034168Y+2957199D01*
X+3082000Y+2909367D01*
X+3135832Y+2963199D01*
X+3304168Y+2963199D01*
X+3357318Y+2910049D01*
X+3438682Y+2910049D01*
X+3495832Y+2967199D01*
X+3664168Y+2967199D01*
X+3783199Y+2848168D01*
X+3783199Y+2679832D01*
X+3664168Y+2560801D01*
X+3495832Y+2560801D01*
X+3438682Y+2617951D01*
X+3365318Y+2617951D01*
X+3304168Y+2556801D01*
X+3223345Y+2556801D01*
X+2996995Y+2330451D01*
X+2902916Y+2330451D01*
X+2923199Y+2310168D01*
X+2923199Y+2141832D01*
X+2804168Y+2022801D01*
X+2635832Y+2022801D01*
X+2578682Y+2079951D01*
X+2479505Y+2079951D01*
X+2446662Y+2112794D01*
X+2394168Y+2060301D01*
X+2313345Y+2060301D01*
X+2305049Y+2052005D01*
X+2305049Y+1450699D01*
X+2393951Y+1450699D01*
X+2393951Y+1520995D01*
X+2606505Y+1733549D01*
X+2992505Y+1733549D01*
X+3033951Y+1774995D01*
X+3033951Y+2052182D01*
X+2976801Y+2109332D01*
X+2976801Y+2277668D01*
X+3095832Y+2396699D01*
X+3264168Y+2396699D01*
X+3321318Y+2339549D01*
X+3442682Y+2339549D01*
X+3495832Y+2392699D01*
X+3664168Y+2392699D01*
X+3783199Y+2273668D01*
X+3783199Y+2105332D01*
X+3664168Y+1986301D01*
X+3495832Y+1986301D01*
X+3434682Y+2047451D01*
X+3326049Y+2047451D01*
X+3326049Y+1654005D01*
X+3278593Y+1606549D01*
X+4532907Y+1606549D01*
X+4436655Y+1702801D01*
X+4355832Y+1702801D01*
X+4236801Y+1821832D01*
X+4236801Y+1990168D01*
X+4355832Y+2109199D01*
X+4390257Y+2109199D01*
X+3790951Y+2708505D01*
X+3790951Y+3559005D01*
X+3718662Y+3631294D01*
X+3664168Y+3576801D01*
X+3495832Y+3576801D01*
X+3402000Y+3670633D01*
X+3304168Y+3572801D01*
X+5167243Y+3119199D02*
X+5254168Y+3119199D01*
X+5373199Y+3000168D01*
X+5373199Y+2831832D01*
X+5279206Y+2737838D01*
X+5543549Y+2473495D01*
X+5543549Y+1781005D01*
X+5330995Y+1568451D01*
X+4988093Y+1568451D01*
X+5162549Y+1393995D01*
X+5162549Y+1033199D01*
X+5284168Y+1033199D01*
X+5403199Y+914168D01*
X+5403199Y+745832D01*
X+5284168Y+626801D01*
X+5162549Y+626801D01*
X+5162549Y+463505D01*
X+4956049Y+257005D01*
X+4956049Y-39951D01*
X+5058682Y-39951D01*
X+5115832Y+17199D01*
X+5284168Y+17199D01*
X+5403199Y-101832D01*
X+5403199Y-270168D01*
X+5374916Y-298451D01*
X+5563005Y-298451D01*
X+5765201Y-96255D01*
X+5765201Y+128252D01*
X+5892949Y+256000D01*
X+5765201Y+383748D01*
X+5765201Y+636252D01*
X+5943748Y+814799D01*
X+6196252Y+814799D01*
X+6374799Y+636252D01*
X+6374799Y+383748D01*
X+6247051Y+256000D01*
X+6374799Y+128252D01*
X+6374799Y-124252D01*
X+6196252Y-302799D01*
X+5971745Y-302799D01*
X+5683995Y-590549D01*
X+5433199Y-590549D01*
X+5433199Y-684168D01*
X+5389117Y-728250D01*
X+5413151Y-728250D01*
X+5431750Y-746849D01*
X+5431750Y-773151D01*
X+5413151Y-791750D01*
X+5386849Y-791750D01*
X+5368250Y-773151D01*
X+5368250Y-749117D01*
X+5314168Y-803199D01*
X+5254723Y-803199D01*
X+5313125Y-861601D01*
X+5775201Y-861601D01*
X+5775201Y-633748D01*
X+5953748Y-455201D01*
X+6206252Y-455201D01*
X+6384799Y-633748D01*
X+6384799Y-861601D01*
X+6388101Y-861601D01*
X+6388101Y+1353557D01*
X+6374799Y+1340255D01*
X+6374799Y+1115748D01*
X+6196252Y+937201D01*
X+5943748Y+937201D01*
X+5765201Y+1115748D01*
X+5765201Y+1368252D01*
X+5892949Y+1496000D01*
X+5765201Y+1623748D01*
X+5765201Y+1876252D01*
X+5943748Y+2054799D01*
X+6196252Y+2054799D01*
X+6267451Y+1983600D01*
X+6267451Y+2888400D01*
X+6166252Y+2787201D01*
X+5913748Y+2787201D01*
X+5735201Y+2965748D01*
X+5735201Y+3199951D01*
X+5247995Y+3199951D01*
X+5167243Y+3119199D01*
X+2242049Y-759500D02*
X+2242049Y-819995D01*
X+2176049Y-885995D01*
X+2176049Y-1046035D01*
X+2233199Y-1103185D01*
X+2233199Y-1250951D01*
X+2558835Y-1250951D01*
X+2498801Y-1190917D01*
X+2498801Y-1022581D01*
X+2555951Y-965431D01*
X+2555951Y-822495D01*
X+2457951Y-724495D01*
X+2457951Y-389416D01*
X+2434168Y-413199D01*
X+2265832Y-413199D01*
X+2242049Y-389416D01*
X+2242049Y-759500D01*
X-2044101Y-705899D02*
X-2044101Y-1721899D01*
X-2383951Y-1721899D01*
X-2383951Y-2364673D01*
X-2234650Y-2533447D01*
X-1791311Y-2530056D01*
X-1897199Y-2424168D01*
X-1897199Y-2255832D01*
X-1778168Y-2136801D01*
X-1609832Y-2136801D01*
X-1552682Y-2193951D01*
X-1417495Y-2193951D01*
X-1322049Y-2098505D01*
X-1322049Y-1919318D01*
X-1379199Y-1862168D01*
X-1379199Y-1781345D01*
X-1606549Y-1553994D01*
X-1606549Y-1523916D01*
X-1609832Y-1527199D01*
X-1778168Y-1527199D01*
X-1897199Y-1408168D01*
X-1897199Y-1239832D01*
X-1840049Y-1182682D01*
X-1840049Y-1169995D01*
X-1870049Y-1139995D01*
X-1870049Y-827318D01*
X-1927199Y-770168D01*
X-1927199Y-689345D01*
X-2044101Y-572443D01*
X-2044101Y-705899D01*
X+5735201Y+3092000D02*
X+6040000Y+3092000D01*
X+6040000Y+2787201D02*
X+6040000Y+3092000D01*
X+2350000Y-6801D02*
X+2350000Y-210000D01*
X+2350000Y-413199D02*
X+2350000Y-210000D01*
X+5765201Y+1750000D02*
X+6070000Y+1750000D01*
X+6070000Y+2054799D02*
X+6070000Y+1750000D01*
X+6374799Y+510000D02*
X+6070000Y+510000D01*
X+5765201Y+510000D02*
X+6070000Y+510000D01*
X+6070000Y+814799D02*
X+6070000Y+510000D01*
X+6384799Y-760000D02*
X+6080000Y-760000D01*
X+5775201Y-760000D02*
X+6080000Y-760000D01*
X+6080000Y-455201D02*
X+6080000Y-760000D01*
X+6404799Y-2030000D02*
X+6100000Y-2030000D01*
X+5795201Y-2030000D02*
X+6100000Y-2030000D01*
X+6100000Y-1725201D02*
X+6100000Y-2030000D01*
X+1848101Y-3470000D02*
X+2064000Y-3470000D01*
X+5170000Y+3119199D02*
X+5170000Y+2916000D01*
X+5373199Y+2916000D02*
X+5170000Y+2916000D01*
X+5200000Y+1033199D02*
X+5200000Y+830000D01*
X+5200000Y+626801D02*
X+5200000Y+830000D01*
X+5403199Y+830000D02*
X+5200000Y+830000D01*
X+5433199Y-600000D02*
X+5230000Y-600000D01*
X+5230000Y-2183199D02*
X+5230000Y-1980000D01*
X+5433199Y-1980000D02*
X+5230000Y-1980000D01*
X+1760000Y-1986154D02*
X+1760000Y-2189353D01*
X+1760000Y-2392552D02*
X+1760000Y-2189353D01*
X+1556801Y-2189353D02*
X+1760000Y-2189353D01*
X+3220000Y+3572801D02*
X+3220000Y+3776000D01*
X+2310000Y+1450699D02*
X+2310000Y+1247500D01*
X+3000000Y-2342552D02*
X+3000000Y-2139353D01*
X+25199Y+3126000D02*
X-178000Y+3126000D01*
X-2260000Y-1721899D02*
X-2260000Y-1506000D01*
X-2044101Y-1506000D02*
X-2260000Y-1506000D01*
X-2044101Y-1252000D02*
X-2260000Y-1252000D01*
X+275199Y+1216000D02*
X+72000Y+1216000D01*
X-131199Y+1216000D02*
X+72000Y+1216000D01*
X-210801Y-194000D02*
X-414000Y-194000D01*
X-617199Y-194000D02*
X-414000Y-194000D01*
X-210801Y-1524000D02*
X-414000Y-1524000D01*
X-617199Y-1524000D02*
X-414000Y-1524000D01*
D15*
X+6040000Y+3092000D03*
X+6040000Y+3600000D03*
D16*
X+5180000Y+3600000D03*
X+4418000Y+3600000D03*
D17*
X+1588000Y+552000D03*
D16*
X+1842000Y+552000D03*
X+2096000Y+552000D03*
X+2350000Y+552000D03*
X+2604000Y+552000D03*
X+2858000Y+552000D03*
X+3112000Y+552000D03*
X+3112000Y-210000D03*
X+2858000Y-210000D03*
X+2604000Y-210000D03*
X+2350000Y-210000D03*
X+2096000Y-210000D03*
X+1842000Y-210000D03*
X+1588000Y-210000D03*
D15*
X+6070000Y+1242000D03*
X+6070000Y+1750000D03*
X+6070000Y+2000D03*
X+6070000Y+510000D03*
D18*
X-2190000Y+2672000D03*
X-2190000Y+2418000D03*
X-2190000Y+2164000D03*
X-2190000Y+1910000D03*
X-2190000Y+1656000D03*
X-2190000Y+1402000D03*
D15*
X+6080000Y-1268000D03*
X+6080000Y-760000D03*
X+6100000Y-2538000D03*
X+6100000Y-2030000D03*
D18*
X+3334000Y-3470000D03*
X+3080000Y-3470000D03*
X+2826000Y-3470000D03*
X+2572000Y-3470000D03*
X+2318000Y-3470000D03*
X+2064000Y-3470000D03*
D16*
X+4800000Y+1906000D03*
X+4800000Y+2922000D03*
X+4440000Y+1906000D03*
X+4440000Y+2922000D03*
X+5170000Y+2916000D03*
X+5170000Y+1900000D03*
X+4480000Y-150000D03*
X+4480000Y+866000D03*
X+5200000Y+830000D03*
X+5200000Y-186000D03*
X+2720000Y+1210000D03*
X+2720000Y+2226000D03*
X+4850000Y-1630000D03*
X+4850000Y-614000D03*
X+4500000Y-1620000D03*
X+4500000Y-604000D03*
X+5230000Y-600000D03*
X+5230000Y-1616000D03*
X+4420000Y-2980000D03*
X+4420000Y-1964000D03*
X+4810000Y-3000000D03*
X+4810000Y-1984000D03*
X+5230000Y-1980000D03*
X+5230000Y-2996000D03*
X+2030000Y-2203353D03*
X+2030000Y-1187353D03*
X+1237898Y-2192898D03*
X+1237898Y-1176898D03*
X+1760000Y-1173353D03*
X+1760000Y-2189353D03*
X+927898Y-1182898D03*
X+927898Y-2198898D03*
X+3580000Y+3780000D03*
X+3580000Y+2764000D03*
X+2950000Y+3770000D03*
X+2950000Y+2754000D03*
X+3220000Y+2760000D03*
X+3220000Y+3776000D03*
X+2630000Y+2770000D03*
X+2630000Y+3786000D03*
X+4810000Y-190000D03*
X+4810000Y+826000D03*
X+3580000Y+1173500D03*
X+3580000Y+2189500D03*
X+2310000Y+2263500D03*
X+2310000Y+1247500D03*
X+3180000Y+2193500D03*
X+3180000Y+1177500D03*
X+2702000Y-2122749D03*
X+2702000Y-1106749D03*
X+3542000Y-1602749D03*
X+3542000Y-586749D03*
X+3000000Y-1123353D03*
X+3000000Y-2139353D03*
X+3848000Y-1607251D03*
X+3848000Y-591251D03*
D17*
X-178000Y+3380000D03*
D16*
X-178000Y+3126000D03*
X-178000Y+2872000D03*
X-940000Y+2872000D03*
X-940000Y+3126000D03*
X-940000Y+3380000D03*
D18*
X-2260000Y-1506000D03*
X-2260000Y-1252000D03*
X-2260000Y-998000D03*
X-2260000Y-744000D03*
X-2260000Y-490000D03*
X-2260000Y-236000D03*
D16*
X+412000Y+2350000D03*
X+412000Y+3366000D03*
X-1378000Y+2540000D03*
X-1378000Y+3556000D03*
X+422000Y+460000D03*
X+422000Y+1476000D03*
D17*
X+72000Y+1470000D03*
D16*
X+72000Y+1216000D03*
X+72000Y+962000D03*
X-690000Y+962000D03*
X-690000Y+1216000D03*
X-690000Y+1470000D03*
D17*
X-414000Y+60000D03*
D16*
X-414000Y-194000D03*
X-414000Y-448000D03*
X-1176000Y-448000D03*
X-1176000Y-194000D03*
X-1176000Y+60000D03*
D17*
X-414000Y-1270000D03*
D16*
X-414000Y-1524000D03*
X-414000Y-1778000D03*
X-1176000Y-1778000D03*
X-1176000Y-1524000D03*
X-1176000Y-1270000D03*
X-1268000Y+1710000D03*
X-1268000Y+694000D03*
X+76000Y-960000D03*
X+76000Y+56000D03*
X-1724000Y+330000D03*
X-1724000Y-686000D03*
X+106000Y-2420000D03*
X+106000Y-1404000D03*
X-1694000Y-2340000D03*
X-1694000Y-1324000D03*
D19*
X-2790000Y-3810000D02*
X+6770000Y-3810000D01*
X+6770000Y+4010000D01*
X-2790000Y+4010000D01*
X-2790000Y-3810000D01*
D70*
X-2267760Y-3736590D02*
X-2196640Y-3736590D01*
X-1881680Y-3736590D02*
X-1800400Y-3736590D01*
X-2288080Y-3731510D02*
X-2171240Y-3731510D01*
X-1902000Y-3731510D02*
X-1775000Y-3731510D01*
X-2303320Y-3726430D02*
X-2156000Y-3726430D01*
X-1922320Y-3726430D02*
X-1759760Y-3726430D01*
X-1597200Y-3726430D02*
X-1500680Y-3726430D01*
X-1383840Y-3726430D02*
X-1277160Y-3726430D01*
X-1200960Y-3726430D02*
X-931720Y-3726430D01*
X-901240Y-3726430D02*
X-784400Y-3726430D01*
X-708200Y-3726430D02*
X-591360Y-3726430D01*
X-398320Y-3726430D02*
X-98600Y-3726430D01*
X-2313480Y-3721350D02*
X-2140760Y-3721350D01*
X-1932480Y-3721350D02*
X-1749600Y-3721350D01*
X-1597200Y-3721350D02*
X-1500680Y-3721350D01*
X-1383840Y-3721350D02*
X-1277160Y-3721350D01*
X-1200960Y-3721350D02*
X-931720Y-3721350D01*
X-901240Y-3721350D02*
X-784400Y-3721350D01*
X-708200Y-3721350D02*
X-591360Y-3721350D01*
X-398320Y-3721350D02*
X-98600Y-3721350D01*
X-2323640Y-3716270D02*
X-2130600Y-3716270D01*
X-1942640Y-3716270D02*
X-1739440Y-3716270D01*
X-1597200Y-3716270D02*
X-1500680Y-3716270D01*
X-1388920Y-3716270D02*
X-1277160Y-3716270D01*
X-1200960Y-3716270D02*
X-931720Y-3716270D01*
X-901240Y-3716270D02*
X-784400Y-3716270D01*
X-708200Y-3716270D02*
X-591360Y-3716270D01*
X-398320Y-3716270D02*
X-98600Y-3716270D01*
X-2333800Y-3711190D02*
X-2125520Y-3711190D01*
X-1947720Y-3711190D02*
X-1734360Y-3711190D01*
X-1597200Y-3711190D02*
X-1500680Y-3711190D01*
X-1388920Y-3711190D02*
X-1277160Y-3711190D01*
X-1200960Y-3711190D02*
X-931720Y-3711190D01*
X-901240Y-3711190D02*
X-784400Y-3711190D01*
X-708200Y-3711190D02*
X-591360Y-3711190D01*
X-398320Y-3711190D02*
X-98600Y-3711190D01*
X-2338880Y-3706110D02*
X-2115360Y-3706110D01*
X-1952800Y-3706110D02*
X-1729280Y-3706110D01*
X-1597200Y-3706110D02*
X-1500680Y-3706110D01*
X-1388920Y-3706110D02*
X-1277160Y-3706110D01*
X-1200960Y-3706110D02*
X-931720Y-3706110D01*
X-901240Y-3706110D02*
X-784400Y-3706110D01*
X-708200Y-3706110D02*
X-591360Y-3706110D01*
X-398320Y-3706110D02*
X-98600Y-3706110D01*
X-2343960Y-3701030D02*
X-2110280Y-3701030D01*
X-1957880Y-3701030D02*
X-1719120Y-3701030D01*
X-1597200Y-3701030D02*
X-1500680Y-3701030D01*
X-1394000Y-3701030D02*
X-1277160Y-3701030D01*
X-1200960Y-3701030D02*
X-931720Y-3701030D01*
X-901240Y-3701030D02*
X-784400Y-3701030D01*
X-708200Y-3701030D02*
X-591360Y-3701030D01*
X-398320Y-3701030D02*
X-98600Y-3701030D01*
X-2349040Y-3695950D02*
X-2105200Y-3695950D01*
X-1962960Y-3695950D02*
X-1714040Y-3695950D01*
X-1597200Y-3695950D02*
X-1500680Y-3695950D01*
X-1394000Y-3695950D02*
X-1277160Y-3695950D01*
X-1200960Y-3695950D02*
X-931720Y-3695950D01*
X-901240Y-3695950D02*
X-784400Y-3695950D01*
X-708200Y-3695950D02*
X-591360Y-3695950D01*
X-398320Y-3695950D02*
X-98600Y-3695950D01*
X-2354120Y-3690870D02*
X-2100120Y-3690870D01*
X-1968040Y-3690870D02*
X-1708960Y-3690870D01*
X-1597200Y-3690870D02*
X-1500680Y-3690870D01*
X-1399080Y-3690870D02*
X-1277160Y-3690870D01*
X-1200960Y-3690870D02*
X-931720Y-3690870D01*
X-901240Y-3690870D02*
X-784400Y-3690870D01*
X-708200Y-3690870D02*
X-591360Y-3690870D01*
X-398320Y-3690870D02*
X-98600Y-3690870D01*
X-2359200Y-3685790D02*
X-2095040Y-3685790D01*
X-1973120Y-3685790D02*
X-1703880Y-3685790D01*
X-1597200Y-3685790D02*
X-1500680Y-3685790D01*
X-1399080Y-3685790D02*
X-1277160Y-3685790D01*
X-1200960Y-3685790D02*
X-931720Y-3685790D01*
X-901240Y-3685790D02*
X-784400Y-3685790D01*
X-708200Y-3685790D02*
X-591360Y-3685790D01*
X-398320Y-3685790D02*
X-98600Y-3685790D01*
X-2364280Y-3680710D02*
X-2089960Y-3680710D01*
X-1978200Y-3680710D02*
X-1703880Y-3680710D01*
X-1597200Y-3680710D02*
X-1500680Y-3680710D01*
X-1399080Y-3680710D02*
X-1277160Y-3680710D01*
X-1200960Y-3680710D02*
X-931720Y-3680710D01*
X-901240Y-3680710D02*
X-784400Y-3680710D01*
X-708200Y-3680710D02*
X-591360Y-3680710D01*
X-398320Y-3680710D02*
X-98600Y-3680710D01*
X-2369360Y-3675630D02*
X-2084880Y-3675630D01*
X-1978200Y-3675630D02*
X-1698800Y-3675630D01*
X-1597200Y-3675630D02*
X-1500680Y-3675630D01*
X-1404160Y-3675630D02*
X-1277160Y-3675630D01*
X-1200960Y-3675630D02*
X-931720Y-3675630D01*
X-901240Y-3675630D02*
X-784400Y-3675630D01*
X-708200Y-3675630D02*
X-591360Y-3675630D01*
X-398320Y-3675630D02*
X-98600Y-3675630D01*
X-2369360Y-3670550D02*
X-2079800Y-3670550D01*
X-1983280Y-3670550D02*
X-1693720Y-3670550D01*
X-1597200Y-3670550D02*
X-1500680Y-3670550D01*
X-1404160Y-3670550D02*
X-1277160Y-3670550D01*
X-1200960Y-3670550D02*
X-931720Y-3670550D01*
X-901240Y-3670550D02*
X-784400Y-3670550D01*
X-708200Y-3670550D02*
X-591360Y-3670550D01*
X-398320Y-3670550D02*
X-98600Y-3670550D01*
X-2374440Y-3665470D02*
X-2079800Y-3665470D01*
X-1983280Y-3665470D02*
X-1693720Y-3665470D01*
X-1597200Y-3665470D02*
X-1500680Y-3665470D01*
X-1404160Y-3665470D02*
X-1277160Y-3665470D01*
X-1200960Y-3665470D02*
X-931720Y-3665470D01*
X-901240Y-3665470D02*
X-784400Y-3665470D01*
X-708200Y-3665470D02*
X-591360Y-3665470D01*
X-398320Y-3665470D02*
X-98600Y-3665470D01*
X-2374440Y-3660390D02*
X-2074720Y-3660390D01*
X-1988360Y-3660390D02*
X-1688640Y-3660390D01*
X-1597200Y-3660390D02*
X-1500680Y-3660390D01*
X-1409240Y-3660390D02*
X-1277160Y-3660390D01*
X-1200960Y-3660390D02*
X-931720Y-3660390D01*
X-901240Y-3660390D02*
X-784400Y-3660390D01*
X-708200Y-3660390D02*
X-591360Y-3660390D01*
X-398320Y-3660390D02*
X-98600Y-3660390D01*
X-2379520Y-3655310D02*
X-2069640Y-3655310D01*
X-1988360Y-3655310D02*
X-1688640Y-3655310D01*
X-1597200Y-3655310D02*
X-1500680Y-3655310D01*
X-1409240Y-3655310D02*
X-1277160Y-3655310D01*
X-1200960Y-3655310D02*
X-931720Y-3655310D01*
X-901240Y-3655310D02*
X-784400Y-3655310D01*
X-708200Y-3655310D02*
X-591360Y-3655310D01*
X-398320Y-3655310D02*
X-98600Y-3655310D01*
X-2384600Y-3650230D02*
X-2069640Y-3650230D01*
X-1993440Y-3650230D02*
X-1683560Y-3650230D01*
X-1597200Y-3650230D02*
X-1500680Y-3650230D01*
X-1409240Y-3650230D02*
X-1277160Y-3650230D01*
X-1200960Y-3650230D02*
X-931720Y-3650230D01*
X-901240Y-3650230D02*
X-784400Y-3650230D01*
X-708200Y-3650230D02*
X-591360Y-3650230D01*
X-398320Y-3650230D02*
X-98600Y-3650230D01*
X-2384600Y-3645150D02*
X-2247440Y-3645150D01*
X-2206800Y-3645150D02*
X-2064560Y-3645150D01*
X-1993440Y-3645150D02*
X-1846120Y-3645150D01*
X-1810560Y-3645150D02*
X-1683560Y-3645150D01*
X-1597200Y-3645150D02*
X-1500680Y-3645150D01*
X-1414320Y-3645150D02*
X-1277160Y-3645150D01*
X-1200960Y-3645150D02*
X-931720Y-3645150D01*
X-901240Y-3645150D02*
X-784400Y-3645150D01*
X-708200Y-3645150D02*
X-591360Y-3645150D01*
X-398320Y-3645150D02*
X-98600Y-3645150D01*
X-2389680Y-3640070D02*
X-2257600Y-3640070D01*
X-2196640Y-3640070D02*
X-2064560Y-3640070D01*
X-1993440Y-3640070D02*
X-1861360Y-3640070D01*
X-1795320Y-3640070D02*
X-1683560Y-3640070D01*
X-1597200Y-3640070D02*
X-1500680Y-3640070D01*
X-1414320Y-3640070D02*
X-1277160Y-3640070D01*
X-1200960Y-3640070D02*
X-931720Y-3640070D01*
X-901240Y-3640070D02*
X-784400Y-3640070D01*
X-708200Y-3640070D02*
X-591360Y-3640070D01*
X-398320Y-3640070D02*
X-98600Y-3640070D01*
X-2389680Y-3634990D02*
X-2262680Y-3634990D01*
X-2186480Y-3634990D02*
X-2064560Y-3634990D01*
X-1993440Y-3634990D02*
X-1866440Y-3634990D01*
X-1790240Y-3634990D02*
X-1683560Y-3634990D01*
X-1597200Y-3634990D02*
X-1500680Y-3634990D01*
X-1414320Y-3634990D02*
X-1277160Y-3634990D01*
X-1200960Y-3634990D02*
X-931720Y-3634990D01*
X-901240Y-3634990D02*
X-784400Y-3634990D01*
X-708200Y-3634990D02*
X-591360Y-3634990D01*
X-398320Y-3634990D02*
X-281480Y-3634990D01*
X-2389680Y-3629910D02*
X-2267760Y-3629910D01*
X-2181400Y-3629910D02*
X-2059480Y-3629910D01*
X-1998520Y-3629910D02*
X-1871520Y-3629910D01*
X-1785160Y-3629910D02*
X-1678480Y-3629910D01*
X-1597200Y-3629910D02*
X-1500680Y-3629910D01*
X-1419400Y-3629910D02*
X-1277160Y-3629910D01*
X-1200960Y-3629910D02*
X-1084120Y-3629910D01*
X-901240Y-3629910D02*
X-784400Y-3629910D01*
X-708200Y-3629910D02*
X-591360Y-3629910D01*
X-398320Y-3629910D02*
X-281480Y-3629910D01*
X-2394760Y-3624830D02*
X-2272840Y-3624830D01*
X-2176320Y-3624830D02*
X-2059480Y-3624830D01*
X-1998520Y-3624830D02*
X-1876600Y-3624830D01*
X-1780080Y-3624830D02*
X-1678480Y-3624830D01*
X-1597200Y-3624830D02*
X-1500680Y-3624830D01*
X-1419400Y-3624830D02*
X-1277160Y-3624830D01*
X-1200960Y-3624830D02*
X-1084120Y-3624830D01*
X-901240Y-3624830D02*
X-784400Y-3624830D01*
X-708200Y-3624830D02*
X-591360Y-3624830D01*
X-398320Y-3624830D02*
X-281480Y-3624830D01*
X-2394760Y-3619750D02*
X-2277920Y-3619750D01*
X-2176320Y-3619750D02*
X-2059480Y-3619750D01*
X-1998520Y-3619750D02*
X-1876600Y-3619750D01*
X-1780080Y-3619750D02*
X-1678480Y-3619750D01*
X-1597200Y-3619750D02*
X-1500680Y-3619750D01*
X-1419400Y-3619750D02*
X-1277160Y-3619750D01*
X-1200960Y-3619750D02*
X-1084120Y-3619750D01*
X-901240Y-3619750D02*
X-784400Y-3619750D01*
X-708200Y-3619750D02*
X-591360Y-3619750D01*
X-398320Y-3619750D02*
X-281480Y-3619750D01*
X-2394760Y-3614670D02*
X-2283000Y-3614670D01*
X-2171240Y-3614670D02*
X-2059480Y-3614670D01*
X-1998520Y-3614670D02*
X-1881680Y-3614670D01*
X-1775000Y-3614670D02*
X-1678480Y-3614670D01*
X-1597200Y-3614670D02*
X-1500680Y-3614670D01*
X-1424480Y-3614670D02*
X-1277160Y-3614670D01*
X-1200960Y-3614670D02*
X-1084120Y-3614670D01*
X-901240Y-3614670D02*
X-784400Y-3614670D01*
X-708200Y-3614670D02*
X-591360Y-3614670D01*
X-398320Y-3614670D02*
X-281480Y-3614670D01*
X-2399840Y-3609590D02*
X-2283000Y-3609590D01*
X-2171240Y-3609590D02*
X-2054400Y-3609590D01*
X-1998520Y-3609590D02*
X-1881680Y-3609590D01*
X-1775000Y-3609590D02*
X-1678480Y-3609590D01*
X-1597200Y-3609590D02*
X-1500680Y-3609590D01*
X-1424480Y-3609590D02*
X-1277160Y-3609590D01*
X-1200960Y-3609590D02*
X-1084120Y-3609590D01*
X-901240Y-3609590D02*
X-784400Y-3609590D01*
X-708200Y-3609590D02*
X-591360Y-3609590D01*
X-398320Y-3609590D02*
X-281480Y-3609590D01*
X-2399840Y-3604510D02*
X-2288080Y-3604510D01*
X-2171240Y-3604510D02*
X-2054400Y-3604510D01*
X-1998520Y-3604510D02*
X-1881680Y-3604510D01*
X-1775000Y-3604510D02*
X-1678480Y-3604510D01*
X-1597200Y-3604510D02*
X-1500680Y-3604510D01*
X-1424480Y-3604510D02*
X-1277160Y-3604510D01*
X-1200960Y-3604510D02*
X-1084120Y-3604510D01*
X-901240Y-3604510D02*
X-784400Y-3604510D01*
X-708200Y-3604510D02*
X-591360Y-3604510D01*
X-398320Y-3604510D02*
X-281480Y-3604510D01*
X-2384600Y-3599430D02*
X-2288080Y-3599430D01*
X-2171240Y-3599430D02*
X-2054400Y-3599430D01*
X-1998520Y-3599430D02*
X-1881680Y-3599430D01*
X-1775000Y-3599430D02*
X-1678480Y-3599430D01*
X-1597200Y-3599430D02*
X-1500680Y-3599430D01*
X-1429560Y-3599430D02*
X-1277160Y-3599430D01*
X-1200960Y-3599430D02*
X-1084120Y-3599430D01*
X-901240Y-3599430D02*
X-784400Y-3599430D01*
X-708200Y-3599430D02*
X-591360Y-3599430D01*
X-398320Y-3599430D02*
X-281480Y-3599430D01*
X-2364280Y-3594350D02*
X-2288080Y-3594350D01*
X-2171240Y-3594350D02*
X-2054400Y-3594350D01*
X-1998520Y-3594350D02*
X-1881680Y-3594350D01*
X-1769920Y-3594350D02*
X-1678480Y-3594350D01*
X-1597200Y-3594350D02*
X-1500680Y-3594350D01*
X-1429560Y-3594350D02*
X-1277160Y-3594350D01*
X-1200960Y-3594350D02*
X-1084120Y-3594350D01*
X-901240Y-3594350D02*
X-784400Y-3594350D01*
X-708200Y-3594350D02*
X-591360Y-3594350D01*
X-398320Y-3594350D02*
X-281480Y-3594350D01*
X-2343960Y-3589270D02*
X-2293160Y-3589270D01*
X-2171240Y-3589270D02*
X-2054400Y-3589270D01*
X-2003600Y-3589270D02*
X-1886760Y-3589270D01*
X-1769920Y-3589270D02*
X-1673400Y-3589270D01*
X-1597200Y-3589270D02*
X-1500680Y-3589270D01*
X-1429560Y-3589270D02*
X-1277160Y-3589270D01*
X-1200960Y-3589270D02*
X-1084120Y-3589270D01*
X-901240Y-3589270D02*
X-784400Y-3589270D01*
X-708200Y-3589270D02*
X-591360Y-3589270D01*
X-398320Y-3589270D02*
X-281480Y-3589270D01*
X-2323640Y-3584190D02*
X-2293160Y-3584190D01*
X-2176320Y-3584190D02*
X-2054400Y-3584190D01*
X-2003600Y-3584190D02*
X-1886760Y-3584190D01*
X-1769920Y-3584190D02*
X-1673400Y-3584190D01*
X-1597200Y-3584190D02*
X-1500680Y-3584190D01*
X-1434640Y-3584190D02*
X-1277160Y-3584190D01*
X-1200960Y-3584190D02*
X-1084120Y-3584190D01*
X-901240Y-3584190D02*
X-784400Y-3584190D01*
X-708200Y-3584190D02*
X-591360Y-3584190D01*
X-398320Y-3584190D02*
X-281480Y-3584190D01*
X-2303320Y-3579110D02*
X-2293160Y-3579110D01*
X-2176320Y-3579110D02*
X-2054400Y-3579110D01*
X-2003600Y-3579110D02*
X-1886760Y-3579110D01*
X-1769920Y-3579110D02*
X-1673400Y-3579110D01*
X-1597200Y-3579110D02*
X-1500680Y-3579110D01*
X-1434640Y-3579110D02*
X-1277160Y-3579110D01*
X-1200960Y-3579110D02*
X-1084120Y-3579110D01*
X-901240Y-3579110D02*
X-784400Y-3579110D01*
X-708200Y-3579110D02*
X-591360Y-3579110D01*
X-398320Y-3579110D02*
X-281480Y-3579110D01*
X-2181400Y-3574030D02*
X-2054400Y-3574030D01*
X-2003600Y-3574030D02*
X-1886760Y-3574030D01*
X-1769920Y-3574030D02*
X-1673400Y-3574030D01*
X-1597200Y-3574030D02*
X-1500680Y-3574030D01*
X-1439720Y-3574030D02*
X-1277160Y-3574030D01*
X-1200960Y-3574030D02*
X-1084120Y-3574030D01*
X-901240Y-3574030D02*
X-784400Y-3574030D01*
X-708200Y-3574030D02*
X-591360Y-3574030D01*
X-398320Y-3574030D02*
X-281480Y-3574030D01*
X-2181400Y-3568950D02*
X-2054400Y-3568950D01*
X-2003600Y-3568950D02*
X-1886760Y-3568950D01*
X-1769920Y-3568950D02*
X-1673400Y-3568950D01*
X-1597200Y-3568950D02*
X-1500680Y-3568950D01*
X-1439720Y-3568950D02*
X-1277160Y-3568950D01*
X-1200960Y-3568950D02*
X-1084120Y-3568950D01*
X-901240Y-3568950D02*
X-784400Y-3568950D01*
X-708200Y-3568950D02*
X-591360Y-3568950D01*
X-398320Y-3568950D02*
X-281480Y-3568950D01*
X-2191560Y-3563870D02*
X-2054400Y-3563870D01*
X-2003600Y-3563870D02*
X-1886760Y-3563870D01*
X-1769920Y-3563870D02*
X-1673400Y-3563870D01*
X-1597200Y-3563870D02*
X-1500680Y-3563870D01*
X-1439720Y-3563870D02*
X-1277160Y-3563870D01*
X-1200960Y-3563870D02*
X-1084120Y-3563870D01*
X-901240Y-3563870D02*
X-784400Y-3563870D01*
X-708200Y-3563870D02*
X-591360Y-3563870D01*
X-398320Y-3563870D02*
X-281480Y-3563870D01*
X-2196640Y-3558790D02*
X-2054400Y-3558790D01*
X-2003600Y-3558790D02*
X-1886760Y-3558790D01*
X-1769920Y-3558790D02*
X-1673400Y-3558790D01*
X-1597200Y-3558790D02*
X-1500680Y-3558790D01*
X-1444800Y-3558790D02*
X-1277160Y-3558790D01*
X-1200960Y-3558790D02*
X-1084120Y-3558790D01*
X-901240Y-3558790D02*
X-784400Y-3558790D01*
X-708200Y-3558790D02*
X-591360Y-3558790D01*
X-398320Y-3558790D02*
X-281480Y-3558790D01*
X-2206800Y-3553710D02*
X-2059480Y-3553710D01*
X-2003600Y-3553710D02*
X-1886760Y-3553710D01*
X-1769920Y-3553710D02*
X-1673400Y-3553710D01*
X-1597200Y-3553710D02*
X-1500680Y-3553710D01*
X-1444800Y-3553710D02*
X-1277160Y-3553710D01*
X-1200960Y-3553710D02*
X-1084120Y-3553710D01*
X-901240Y-3553710D02*
X-784400Y-3553710D01*
X-708200Y-3553710D02*
X-591360Y-3553710D01*
X-398320Y-3553710D02*
X-281480Y-3553710D01*
X-2222040Y-3548630D02*
X-2059480Y-3548630D01*
X-2003600Y-3548630D02*
X-1886760Y-3548630D01*
X-1769920Y-3548630D02*
X-1673400Y-3548630D01*
X-1597200Y-3548630D02*
X-1500680Y-3548630D01*
X-1444800Y-3548630D02*
X-1277160Y-3548630D01*
X-1200960Y-3548630D02*
X-1084120Y-3548630D01*
X-901240Y-3548630D02*
X-784400Y-3548630D01*
X-708200Y-3548630D02*
X-591360Y-3548630D01*
X-398320Y-3548630D02*
X-281480Y-3548630D01*
X-2232200Y-3543550D02*
X-2059480Y-3543550D01*
X-2003600Y-3543550D02*
X-1886760Y-3543550D01*
X-1769920Y-3543550D02*
X-1673400Y-3543550D01*
X-1597200Y-3543550D02*
X-1500680Y-3543550D01*
X-1449880Y-3543550D02*
X-1277160Y-3543550D01*
X-1200960Y-3543550D02*
X-1084120Y-3543550D01*
X-901240Y-3543550D02*
X-784400Y-3543550D01*
X-708200Y-3543550D02*
X-459280Y-3543550D01*
X-398320Y-3543550D02*
X-281480Y-3543550D01*
X-2247440Y-3538470D02*
X-2059480Y-3538470D01*
X-2003600Y-3538470D02*
X-1886760Y-3538470D01*
X-1769920Y-3538470D02*
X-1673400Y-3538470D01*
X-1597200Y-3538470D02*
X-1500680Y-3538470D01*
X-1449880Y-3538470D02*
X-1277160Y-3538470D01*
X-1200960Y-3538470D02*
X-1084120Y-3538470D01*
X-901240Y-3538470D02*
X-784400Y-3538470D01*
X-708200Y-3538470D02*
X-459280Y-3538470D01*
X-398320Y-3538470D02*
X-281480Y-3538470D01*
X-2262680Y-3533390D02*
X-2064560Y-3533390D01*
X-2003600Y-3533390D02*
X-1886760Y-3533390D01*
X-1769920Y-3533390D02*
X-1673400Y-3533390D01*
X-1597200Y-3533390D02*
X-1500680Y-3533390D01*
X-1449880Y-3533390D02*
X-1378760Y-3533390D01*
X-1373680Y-3533390D02*
X-1277160Y-3533390D01*
X-1200960Y-3533390D02*
X-1084120Y-3533390D01*
X-901240Y-3533390D02*
X-784400Y-3533390D01*
X-708200Y-3533390D02*
X-459280Y-3533390D01*
X-398320Y-3533390D02*
X-281480Y-3533390D01*
X-2272840Y-3528310D02*
X-2064560Y-3528310D01*
X-2003600Y-3528310D02*
X-1886760Y-3528310D01*
X-1769920Y-3528310D02*
X-1673400Y-3528310D01*
X-1597200Y-3528310D02*
X-1500680Y-3528310D01*
X-1454960Y-3528310D02*
X-1378760Y-3528310D01*
X-1373680Y-3528310D02*
X-1277160Y-3528310D01*
X-1200960Y-3528310D02*
X-1084120Y-3528310D01*
X-901240Y-3528310D02*
X-784400Y-3528310D01*
X-708200Y-3528310D02*
X-459280Y-3528310D01*
X-398320Y-3528310D02*
X-139240Y-3528310D01*
X-2283000Y-3523230D02*
X-2064560Y-3523230D01*
X-2003600Y-3523230D02*
X-1886760Y-3523230D01*
X-1769920Y-3523230D02*
X-1673400Y-3523230D01*
X-1597200Y-3523230D02*
X-1500680Y-3523230D01*
X-1454960Y-3523230D02*
X-1378760Y-3523230D01*
X-1373680Y-3523230D02*
X-1277160Y-3523230D01*
X-1200960Y-3523230D02*
X-1084120Y-3523230D01*
X-901240Y-3523230D02*
X-784400Y-3523230D01*
X-708200Y-3523230D02*
X-459280Y-3523230D01*
X-398320Y-3523230D02*
X-139240Y-3523230D01*
X-2298240Y-3518150D02*
X-2069640Y-3518150D01*
X-2003600Y-3518150D02*
X-1886760Y-3518150D01*
X-1769920Y-3518150D02*
X-1673400Y-3518150D01*
X-1597200Y-3518150D02*
X-1500680Y-3518150D01*
X-1454960Y-3518150D02*
X-1383840Y-3518150D01*
X-1373680Y-3518150D02*
X-1277160Y-3518150D01*
X-1200960Y-3518150D02*
X-1084120Y-3518150D01*
X-901240Y-3518150D02*
X-784400Y-3518150D01*
X-708200Y-3518150D02*
X-459280Y-3518150D01*
X-398320Y-3518150D02*
X-139240Y-3518150D01*
X-2308400Y-3513070D02*
X-2074720Y-3513070D01*
X-2003600Y-3513070D02*
X-1886760Y-3513070D01*
X-1769920Y-3513070D02*
X-1673400Y-3513070D01*
X-1597200Y-3513070D02*
X-1500680Y-3513070D01*
X-1460040Y-3513070D02*
X-1383840Y-3513070D01*
X-1373680Y-3513070D02*
X-1277160Y-3513070D01*
X-1200960Y-3513070D02*
X-1084120Y-3513070D01*
X-901240Y-3513070D02*
X-784400Y-3513070D01*
X-708200Y-3513070D02*
X-459280Y-3513070D01*
X-398320Y-3513070D02*
X-139240Y-3513070D01*
X-2313480Y-3507990D02*
X-2074720Y-3507990D01*
X-2003600Y-3507990D02*
X-1886760Y-3507990D01*
X-1769920Y-3507990D02*
X-1673400Y-3507990D01*
X-1597200Y-3507990D02*
X-1500680Y-3507990D01*
X-1460040Y-3507990D02*
X-1383840Y-3507990D01*
X-1373680Y-3507990D02*
X-1277160Y-3507990D01*
X-1200960Y-3507990D02*
X-1084120Y-3507990D01*
X-901240Y-3507990D02*
X-784400Y-3507990D01*
X-708200Y-3507990D02*
X-459280Y-3507990D01*
X-398320Y-3507990D02*
X-139240Y-3507990D01*
X-2323640Y-3502910D02*
X-2079800Y-3502910D01*
X-2003600Y-3502910D02*
X-1886760Y-3502910D01*
X-1769920Y-3502910D02*
X-1673400Y-3502910D01*
X-1597200Y-3502910D02*
X-1500680Y-3502910D01*
X-1460040Y-3502910D02*
X-1388920Y-3502910D01*
X-1373680Y-3502910D02*
X-1277160Y-3502910D01*
X-1200960Y-3502910D02*
X-1084120Y-3502910D01*
X-901240Y-3502910D02*
X-784400Y-3502910D01*
X-708200Y-3502910D02*
X-459280Y-3502910D01*
X-398320Y-3502910D02*
X-139240Y-3502910D01*
X-2328720Y-3497830D02*
X-2084880Y-3497830D01*
X-2003600Y-3497830D02*
X-1886760Y-3497830D01*
X-1769920Y-3497830D02*
X-1673400Y-3497830D01*
X-1597200Y-3497830D02*
X-1500680Y-3497830D01*
X-1465120Y-3497830D02*
X-1388920Y-3497830D01*
X-1373680Y-3497830D02*
X-1277160Y-3497830D01*
X-1200960Y-3497830D02*
X-1084120Y-3497830D01*
X-901240Y-3497830D02*
X-784400Y-3497830D01*
X-708200Y-3497830D02*
X-459280Y-3497830D01*
X-398320Y-3497830D02*
X-139240Y-3497830D01*
X-2333800Y-3492750D02*
X-2084880Y-3492750D01*
X-2003600Y-3492750D02*
X-1886760Y-3492750D01*
X-1769920Y-3492750D02*
X-1673400Y-3492750D01*
X-1597200Y-3492750D02*
X-1500680Y-3492750D01*
X-1465120Y-3492750D02*
X-1388920Y-3492750D01*
X-1373680Y-3492750D02*
X-1277160Y-3492750D01*
X-1200960Y-3492750D02*
X-1084120Y-3492750D01*
X-901240Y-3492750D02*
X-784400Y-3492750D01*
X-708200Y-3492750D02*
X-459280Y-3492750D01*
X-398320Y-3492750D02*
X-139240Y-3492750D01*
X-2338880Y-3487670D02*
X-2089960Y-3487670D01*
X-2003600Y-3487670D02*
X-1886760Y-3487670D01*
X-1769920Y-3487670D02*
X-1673400Y-3487670D01*
X-1597200Y-3487670D02*
X-1500680Y-3487670D01*
X-1465120Y-3487670D02*
X-1394000Y-3487670D01*
X-1373680Y-3487670D02*
X-1277160Y-3487670D01*
X-1200960Y-3487670D02*
X-1084120Y-3487670D01*
X-901240Y-3487670D02*
X-784400Y-3487670D01*
X-708200Y-3487670D02*
X-459280Y-3487670D01*
X-398320Y-3487670D02*
X-139240Y-3487670D01*
X-2343960Y-3482590D02*
X-2095040Y-3482590D01*
X-2003600Y-3482590D02*
X-1886760Y-3482590D01*
X-1769920Y-3482590D02*
X-1673400Y-3482590D01*
X-1597200Y-3482590D02*
X-1500680Y-3482590D01*
X-1470200Y-3482590D02*
X-1394000Y-3482590D01*
X-1373680Y-3482590D02*
X-1277160Y-3482590D01*
X-1200960Y-3482590D02*
X-1084120Y-3482590D01*
X-901240Y-3482590D02*
X-784400Y-3482590D01*
X-708200Y-3482590D02*
X-459280Y-3482590D01*
X-398320Y-3482590D02*
X-139240Y-3482590D01*
X-2349040Y-3477510D02*
X-2100120Y-3477510D01*
X-2003600Y-3477510D02*
X-1886760Y-3477510D01*
X-1769920Y-3477510D02*
X-1673400Y-3477510D01*
X-1597200Y-3477510D02*
X-1500680Y-3477510D01*
X-1470200Y-3477510D02*
X-1394000Y-3477510D01*
X-1373680Y-3477510D02*
X-1277160Y-3477510D01*
X-1200960Y-3477510D02*
X-1084120Y-3477510D01*
X-901240Y-3477510D02*
X-784400Y-3477510D01*
X-708200Y-3477510D02*
X-459280Y-3477510D01*
X-398320Y-3477510D02*
X-139240Y-3477510D01*
X-2354120Y-3472430D02*
X-2110280Y-3472430D01*
X-2003600Y-3472430D02*
X-1886760Y-3472430D01*
X-1769920Y-3472430D02*
X-1673400Y-3472430D01*
X-1597200Y-3472430D02*
X-1500680Y-3472430D01*
X-1470200Y-3472430D02*
X-1399080Y-3472430D01*
X-1373680Y-3472430D02*
X-1277160Y-3472430D01*
X-1200960Y-3472430D02*
X-1084120Y-3472430D01*
X-901240Y-3472430D02*
X-784400Y-3472430D01*
X-708200Y-3472430D02*
X-459280Y-3472430D01*
X-398320Y-3472430D02*
X-139240Y-3472430D01*
X-2359200Y-3467350D02*
X-2115360Y-3467350D01*
X-2003600Y-3467350D02*
X-1886760Y-3467350D01*
X-1769920Y-3467350D02*
X-1673400Y-3467350D01*
X-1597200Y-3467350D02*
X-1500680Y-3467350D01*
X-1475280Y-3467350D02*
X-1399080Y-3467350D01*
X-1373680Y-3467350D02*
X-1277160Y-3467350D01*
X-1200960Y-3467350D02*
X-1084120Y-3467350D01*
X-901240Y-3467350D02*
X-784400Y-3467350D01*
X-708200Y-3467350D02*
X-459280Y-3467350D01*
X-398320Y-3467350D02*
X-139240Y-3467350D01*
X-2359200Y-3462270D02*
X-2125520Y-3462270D01*
X-2003600Y-3462270D02*
X-1886760Y-3462270D01*
X-1769920Y-3462270D02*
X-1673400Y-3462270D01*
X-1597200Y-3462270D02*
X-1500680Y-3462270D01*
X-1475280Y-3462270D02*
X-1399080Y-3462270D01*
X-1373680Y-3462270D02*
X-1277160Y-3462270D01*
X-1200960Y-3462270D02*
X-1084120Y-3462270D01*
X-901240Y-3462270D02*
X-784400Y-3462270D01*
X-708200Y-3462270D02*
X-459280Y-3462270D01*
X-398320Y-3462270D02*
X-139240Y-3462270D01*
X-2364280Y-3457190D02*
X-2135680Y-3457190D01*
X-2003600Y-3457190D02*
X-1886760Y-3457190D01*
X-1769920Y-3457190D02*
X-1673400Y-3457190D01*
X-1597200Y-3457190D02*
X-1500680Y-3457190D01*
X-1475280Y-3457190D02*
X-1404160Y-3457190D01*
X-1373680Y-3457190D02*
X-1277160Y-3457190D01*
X-1200960Y-3457190D02*
X-1084120Y-3457190D01*
X-901240Y-3457190D02*
X-784400Y-3457190D01*
X-708200Y-3457190D02*
X-459280Y-3457190D01*
X-398320Y-3457190D02*
X-139240Y-3457190D01*
X-2364280Y-3452110D02*
X-2145840Y-3452110D01*
X-2003600Y-3452110D02*
X-1886760Y-3452110D01*
X-1769920Y-3452110D02*
X-1673400Y-3452110D01*
X-1597200Y-3452110D02*
X-1500680Y-3452110D01*
X-1480360Y-3452110D02*
X-1404160Y-3452110D01*
X-1373680Y-3452110D02*
X-1277160Y-3452110D01*
X-1200960Y-3452110D02*
X-1084120Y-3452110D01*
X-901240Y-3452110D02*
X-784400Y-3452110D01*
X-708200Y-3452110D02*
X-591360Y-3452110D01*
X-398320Y-3452110D02*
X-139240Y-3452110D01*
X-2369360Y-3447030D02*
X-2156000Y-3447030D01*
X-2003600Y-3447030D02*
X-1886760Y-3447030D01*
X-1769920Y-3447030D02*
X-1673400Y-3447030D01*
X-1597200Y-3447030D02*
X-1500680Y-3447030D01*
X-1480360Y-3447030D02*
X-1404160Y-3447030D01*
X-1373680Y-3447030D02*
X-1277160Y-3447030D01*
X-1200960Y-3447030D02*
X-1084120Y-3447030D01*
X-901240Y-3447030D02*
X-784400Y-3447030D01*
X-708200Y-3447030D02*
X-591360Y-3447030D01*
X-398320Y-3447030D02*
X-139240Y-3447030D01*
X-2369360Y-3441950D02*
X-2166160Y-3441950D01*
X-2003600Y-3441950D02*
X-1886760Y-3441950D01*
X-1769920Y-3441950D02*
X-1673400Y-3441950D01*
X-1597200Y-3441950D02*
X-1500680Y-3441950D01*
X-1485440Y-3441950D02*
X-1409240Y-3441950D01*
X-1373680Y-3441950D02*
X-1277160Y-3441950D01*
X-1200960Y-3441950D02*
X-1084120Y-3441950D01*
X-901240Y-3441950D02*
X-784400Y-3441950D01*
X-708200Y-3441950D02*
X-591360Y-3441950D01*
X-398320Y-3441950D02*
X-139240Y-3441950D01*
X-2374440Y-3436870D02*
X-2181400Y-3436870D01*
X-2003600Y-3436870D02*
X-1886760Y-3436870D01*
X-1769920Y-3436870D02*
X-1673400Y-3436870D01*
X-1597200Y-3436870D02*
X-1500680Y-3436870D01*
X-1485440Y-3436870D02*
X-1409240Y-3436870D01*
X-1373680Y-3436870D02*
X-1277160Y-3436870D01*
X-1200960Y-3436870D02*
X-1084120Y-3436870D01*
X-901240Y-3436870D02*
X-784400Y-3436870D01*
X-708200Y-3436870D02*
X-591360Y-3436870D01*
X-398320Y-3436870D02*
X-281480Y-3436870D01*
X-2374440Y-3431790D02*
X-2191560Y-3431790D01*
X-2003600Y-3431790D02*
X-1886760Y-3431790D01*
X-1769920Y-3431790D02*
X-1673400Y-3431790D01*
X-1597200Y-3431790D02*
X-1500680Y-3431790D01*
X-1485440Y-3431790D02*
X-1409240Y-3431790D01*
X-1373680Y-3431790D02*
X-1277160Y-3431790D01*
X-1200960Y-3431790D02*
X-1084120Y-3431790D01*
X-901240Y-3431790D02*
X-784400Y-3431790D01*
X-708200Y-3431790D02*
X-591360Y-3431790D01*
X-398320Y-3431790D02*
X-281480Y-3431790D01*
X-2374440Y-3426710D02*
X-2206800Y-3426710D01*
X-2003600Y-3426710D02*
X-1886760Y-3426710D01*
X-1769920Y-3426710D02*
X-1673400Y-3426710D01*
X-1597200Y-3426710D02*
X-1500680Y-3426710D01*
X-1490520Y-3426710D02*
X-1414320Y-3426710D01*
X-1373680Y-3426710D02*
X-1277160Y-3426710D01*
X-1200960Y-3426710D02*
X-1084120Y-3426710D01*
X-901240Y-3426710D02*
X-784400Y-3426710D01*
X-708200Y-3426710D02*
X-591360Y-3426710D01*
X-398320Y-3426710D02*
X-281480Y-3426710D01*
X-2374440Y-3421630D02*
X-2216960Y-3421630D01*
X-2003600Y-3421630D02*
X-1886760Y-3421630D01*
X-1769920Y-3421630D02*
X-1673400Y-3421630D01*
X-1597200Y-3421630D02*
X-1500680Y-3421630D01*
X-1490520Y-3421630D02*
X-1414320Y-3421630D01*
X-1373680Y-3421630D02*
X-1277160Y-3421630D01*
X-1200960Y-3421630D02*
X-1084120Y-3421630D01*
X-901240Y-3421630D02*
X-784400Y-3421630D01*
X-708200Y-3421630D02*
X-591360Y-3421630D01*
X-398320Y-3421630D02*
X-281480Y-3421630D01*
X-2379520Y-3416550D02*
X-2227120Y-3416550D01*
X-2003600Y-3416550D02*
X-1886760Y-3416550D01*
X-1769920Y-3416550D02*
X-1673400Y-3416550D01*
X-1597200Y-3416550D02*
X-1500680Y-3416550D01*
X-1490520Y-3416550D02*
X-1414320Y-3416550D01*
X-1373680Y-3416550D02*
X-1277160Y-3416550D01*
X-1200960Y-3416550D02*
X-1084120Y-3416550D01*
X-901240Y-3416550D02*
X-784400Y-3416550D01*
X-708200Y-3416550D02*
X-591360Y-3416550D01*
X-398320Y-3416550D02*
X-281480Y-3416550D01*
X-2379520Y-3411470D02*
X-2237280Y-3411470D01*
X-2003600Y-3411470D02*
X-1886760Y-3411470D01*
X-1769920Y-3411470D02*
X-1673400Y-3411470D01*
X-1597200Y-3411470D02*
X-1500680Y-3411470D01*
X-1495600Y-3411470D02*
X-1419400Y-3411470D01*
X-1373680Y-3411470D02*
X-1277160Y-3411470D01*
X-1200960Y-3411470D02*
X-1084120Y-3411470D01*
X-901240Y-3411470D02*
X-784400Y-3411470D01*
X-708200Y-3411470D02*
X-591360Y-3411470D01*
X-398320Y-3411470D02*
X-281480Y-3411470D01*
X-2379520Y-3406390D02*
X-2247440Y-3406390D01*
X-2003600Y-3406390D02*
X-1886760Y-3406390D01*
X-1769920Y-3406390D02*
X-1673400Y-3406390D01*
X-1597200Y-3406390D02*
X-1500680Y-3406390D01*
X-1495600Y-3406390D02*
X-1419400Y-3406390D01*
X-1373680Y-3406390D02*
X-1277160Y-3406390D01*
X-1200960Y-3406390D02*
X-1084120Y-3406390D01*
X-901240Y-3406390D02*
X-784400Y-3406390D01*
X-708200Y-3406390D02*
X-591360Y-3406390D01*
X-398320Y-3406390D02*
X-281480Y-3406390D01*
X-2379520Y-3401310D02*
X-2252520Y-3401310D01*
X-2003600Y-3401310D02*
X-1886760Y-3401310D01*
X-1769920Y-3401310D02*
X-1673400Y-3401310D01*
X-1597200Y-3401310D02*
X-1500680Y-3401310D01*
X-1495600Y-3401310D02*
X-1419400Y-3401310D01*
X-1373680Y-3401310D02*
X-1277160Y-3401310D01*
X-1200960Y-3401310D02*
X-1084120Y-3401310D01*
X-901240Y-3401310D02*
X-784400Y-3401310D01*
X-708200Y-3401310D02*
X-591360Y-3401310D01*
X-398320Y-3401310D02*
X-281480Y-3401310D01*
X-2379520Y-3396230D02*
X-2257600Y-3396230D01*
X-2003600Y-3396230D02*
X-1886760Y-3396230D01*
X-1769920Y-3396230D02*
X-1673400Y-3396230D01*
X-1597200Y-3396230D02*
X-1424480Y-3396230D01*
X-1373680Y-3396230D02*
X-1277160Y-3396230D01*
X-1200960Y-3396230D02*
X-1084120Y-3396230D01*
X-901240Y-3396230D02*
X-784400Y-3396230D01*
X-708200Y-3396230D02*
X-591360Y-3396230D01*
X-398320Y-3396230D02*
X-281480Y-3396230D01*
X-2379520Y-3391150D02*
X-2257600Y-3391150D01*
X-2161080Y-3391150D02*
X-2150920Y-3391150D01*
X-2003600Y-3391150D02*
X-1886760Y-3391150D01*
X-1769920Y-3391150D02*
X-1673400Y-3391150D01*
X-1597200Y-3391150D02*
X-1424480Y-3391150D01*
X-1373680Y-3391150D02*
X-1277160Y-3391150D01*
X-1200960Y-3391150D02*
X-1084120Y-3391150D01*
X-901240Y-3391150D02*
X-784400Y-3391150D01*
X-708200Y-3391150D02*
X-591360Y-3391150D01*
X-398320Y-3391150D02*
X-281480Y-3391150D01*
X-2379520Y-3386070D02*
X-2262680Y-3386070D01*
X-2161080Y-3386070D02*
X-2140760Y-3386070D01*
X-2003600Y-3386070D02*
X-1886760Y-3386070D01*
X-1769920Y-3386070D02*
X-1673400Y-3386070D01*
X-1597200Y-3386070D02*
X-1424480Y-3386070D01*
X-1373680Y-3386070D02*
X-1277160Y-3386070D01*
X-1200960Y-3386070D02*
X-1084120Y-3386070D01*
X-901240Y-3386070D02*
X-784400Y-3386070D01*
X-708200Y-3386070D02*
X-591360Y-3386070D01*
X-398320Y-3386070D02*
X-281480Y-3386070D01*
X-2379520Y-3380990D02*
X-2262680Y-3380990D01*
X-2161080Y-3380990D02*
X-2125520Y-3380990D01*
X-2003600Y-3380990D02*
X-1886760Y-3380990D01*
X-1769920Y-3380990D02*
X-1673400Y-3380990D01*
X-1597200Y-3380990D02*
X-1429560Y-3380990D01*
X-1373680Y-3380990D02*
X-1277160Y-3380990D01*
X-1200960Y-3380990D02*
X-1084120Y-3380990D01*
X-901240Y-3380990D02*
X-784400Y-3380990D01*
X-708200Y-3380990D02*
X-591360Y-3380990D01*
X-398320Y-3380990D02*
X-281480Y-3380990D01*
X-2379520Y-3375910D02*
X-2262680Y-3375910D01*
X-2166160Y-3375910D02*
X-2110280Y-3375910D01*
X-2003600Y-3375910D02*
X-1886760Y-3375910D01*
X-1769920Y-3375910D02*
X-1673400Y-3375910D01*
X-1597200Y-3375910D02*
X-1429560Y-3375910D01*
X-1373680Y-3375910D02*
X-1277160Y-3375910D01*
X-1200960Y-3375910D02*
X-1084120Y-3375910D01*
X-901240Y-3375910D02*
X-784400Y-3375910D01*
X-708200Y-3375910D02*
X-591360Y-3375910D01*
X-398320Y-3375910D02*
X-281480Y-3375910D01*
X-2379520Y-3370830D02*
X-2262680Y-3370830D01*
X-2166160Y-3370830D02*
X-2100120Y-3370830D01*
X-2003600Y-3370830D02*
X-1886760Y-3370830D01*
X-1769920Y-3370830D02*
X-1673400Y-3370830D01*
X-1597200Y-3370830D02*
X-1429560Y-3370830D01*
X-1373680Y-3370830D02*
X-1277160Y-3370830D01*
X-1200960Y-3370830D02*
X-1084120Y-3370830D01*
X-901240Y-3370830D02*
X-784400Y-3370830D01*
X-708200Y-3370830D02*
X-591360Y-3370830D01*
X-398320Y-3370830D02*
X-281480Y-3370830D01*
X-2379520Y-3365750D02*
X-2262680Y-3365750D01*
X-2171240Y-3365750D02*
X-2084880Y-3365750D01*
X-2003600Y-3365750D02*
X-1886760Y-3365750D01*
X-1769920Y-3365750D02*
X-1673400Y-3365750D01*
X-1597200Y-3365750D02*
X-1434640Y-3365750D01*
X-1373680Y-3365750D02*
X-1277160Y-3365750D01*
X-1200960Y-3365750D02*
X-1084120Y-3365750D01*
X-901240Y-3365750D02*
X-784400Y-3365750D01*
X-708200Y-3365750D02*
X-591360Y-3365750D01*
X-398320Y-3365750D02*
X-281480Y-3365750D01*
X-2379520Y-3360670D02*
X-2262680Y-3360670D01*
X-2176320Y-3360670D02*
X-2069640Y-3360670D01*
X-2003600Y-3360670D02*
X-1886760Y-3360670D01*
X-1769920Y-3360670D02*
X-1673400Y-3360670D01*
X-1597200Y-3360670D02*
X-1434640Y-3360670D01*
X-1373680Y-3360670D02*
X-1277160Y-3360670D01*
X-1200960Y-3360670D02*
X-1084120Y-3360670D01*
X-901240Y-3360670D02*
X-784400Y-3360670D01*
X-708200Y-3360670D02*
X-591360Y-3360670D01*
X-398320Y-3360670D02*
X-281480Y-3360670D01*
X-2374440Y-3355590D02*
X-2257600Y-3355590D01*
X-2176320Y-3355590D02*
X-2064560Y-3355590D01*
X-2003600Y-3355590D02*
X-1886760Y-3355590D01*
X-1769920Y-3355590D02*
X-1673400Y-3355590D01*
X-1597200Y-3355590D02*
X-1434640Y-3355590D01*
X-1373680Y-3355590D02*
X-1277160Y-3355590D01*
X-1200960Y-3355590D02*
X-1084120Y-3355590D01*
X-901240Y-3355590D02*
X-784400Y-3355590D01*
X-708200Y-3355590D02*
X-591360Y-3355590D01*
X-398320Y-3355590D02*
X-281480Y-3355590D01*
X-2374440Y-3350510D02*
X-2257600Y-3350510D01*
X-2181400Y-3350510D02*
X-2064560Y-3350510D01*
X-2003600Y-3350510D02*
X-1886760Y-3350510D01*
X-1769920Y-3350510D02*
X-1673400Y-3350510D01*
X-1597200Y-3350510D02*
X-1439720Y-3350510D01*
X-1373680Y-3350510D02*
X-1277160Y-3350510D01*
X-1200960Y-3350510D02*
X-1084120Y-3350510D01*
X-901240Y-3350510D02*
X-784400Y-3350510D01*
X-708200Y-3350510D02*
X-591360Y-3350510D01*
X-398320Y-3350510D02*
X-281480Y-3350510D01*
X-2374440Y-3345430D02*
X-2252520Y-3345430D01*
X-2186480Y-3345430D02*
X-2069640Y-3345430D01*
X-2003600Y-3345430D02*
X-1886760Y-3345430D01*
X-1769920Y-3345430D02*
X-1673400Y-3345430D01*
X-1597200Y-3345430D02*
X-1439720Y-3345430D01*
X-1373680Y-3345430D02*
X-1277160Y-3345430D01*
X-1200960Y-3345430D02*
X-1084120Y-3345430D01*
X-901240Y-3345430D02*
X-784400Y-3345430D01*
X-708200Y-3345430D02*
X-591360Y-3345430D01*
X-398320Y-3345430D02*
X-281480Y-3345430D01*
X-2374440Y-3340350D02*
X-2247440Y-3340350D01*
X-2196640Y-3340350D02*
X-2069640Y-3340350D01*
X-2003600Y-3340350D02*
X-1886760Y-3340350D01*
X-1769920Y-3340350D02*
X-1673400Y-3340350D01*
X-1597200Y-3340350D02*
X-1439720Y-3340350D01*
X-1373680Y-3340350D02*
X-1277160Y-3340350D01*
X-1200960Y-3340350D02*
X-1084120Y-3340350D01*
X-901240Y-3340350D02*
X-784400Y-3340350D01*
X-708200Y-3340350D02*
X-418640Y-3340350D01*
X-398320Y-3340350D02*
X-98600Y-3340350D01*
X-2369360Y-3335270D02*
X-2237280Y-3335270D01*
X-2206800Y-3335270D02*
X-2069640Y-3335270D01*
X-2003600Y-3335270D02*
X-1886760Y-3335270D01*
X-1769920Y-3335270D02*
X-1673400Y-3335270D01*
X-1597200Y-3335270D02*
X-1444800Y-3335270D01*
X-1373680Y-3335270D02*
X-1277160Y-3335270D01*
X-1200960Y-3335270D02*
X-1084120Y-3335270D01*
X-901240Y-3335270D02*
X-784400Y-3335270D01*
X-708200Y-3335270D02*
X-418640Y-3335270D01*
X-398320Y-3335270D02*
X-98600Y-3335270D01*
X-2369360Y-3330190D02*
X-2074720Y-3330190D01*
X-2003600Y-3330190D02*
X-1886760Y-3330190D01*
X-1769920Y-3330190D02*
X-1673400Y-3330190D01*
X-1597200Y-3330190D02*
X-1444800Y-3330190D01*
X-1373680Y-3330190D02*
X-1277160Y-3330190D01*
X-1200960Y-3330190D02*
X-1084120Y-3330190D01*
X-901240Y-3330190D02*
X-784400Y-3330190D01*
X-708200Y-3330190D02*
X-418640Y-3330190D01*
X-398320Y-3330190D02*
X-98600Y-3330190D01*
X-2364280Y-3325110D02*
X-2074720Y-3325110D01*
X-2003600Y-3325110D02*
X-1886760Y-3325110D01*
X-1769920Y-3325110D02*
X-1673400Y-3325110D01*
X-1597200Y-3325110D02*
X-1444800Y-3325110D01*
X-1373680Y-3325110D02*
X-1277160Y-3325110D01*
X-1200960Y-3325110D02*
X-1084120Y-3325110D01*
X-901240Y-3325110D02*
X-784400Y-3325110D01*
X-708200Y-3325110D02*
X-418640Y-3325110D01*
X-398320Y-3325110D02*
X-98600Y-3325110D01*
X-2364280Y-3320030D02*
X-2079800Y-3320030D01*
X-2003600Y-3320030D02*
X-1886760Y-3320030D01*
X-1769920Y-3320030D02*
X-1673400Y-3320030D01*
X-1597200Y-3320030D02*
X-1449880Y-3320030D01*
X-1373680Y-3320030D02*
X-1277160Y-3320030D01*
X-1200960Y-3320030D02*
X-1084120Y-3320030D01*
X-901240Y-3320030D02*
X-784400Y-3320030D01*
X-708200Y-3320030D02*
X-418640Y-3320030D01*
X-398320Y-3320030D02*
X-98600Y-3320030D01*
X-2359200Y-3314950D02*
X-2079800Y-3314950D01*
X-2003600Y-3314950D02*
X-1886760Y-3314950D01*
X-1769920Y-3314950D02*
X-1673400Y-3314950D01*
X-1597200Y-3314950D02*
X-1449880Y-3314950D01*
X-1373680Y-3314950D02*
X-1277160Y-3314950D01*
X-1200960Y-3314950D02*
X-1084120Y-3314950D01*
X-901240Y-3314950D02*
X-784400Y-3314950D01*
X-708200Y-3314950D02*
X-418640Y-3314950D01*
X-398320Y-3314950D02*
X-98600Y-3314950D01*
X-2359200Y-3309870D02*
X-2084880Y-3309870D01*
X-2003600Y-3309870D02*
X-1886760Y-3309870D01*
X-1769920Y-3309870D02*
X-1673400Y-3309870D01*
X-1597200Y-3309870D02*
X-1449880Y-3309870D01*
X-1373680Y-3309870D02*
X-1277160Y-3309870D01*
X-1200960Y-3309870D02*
X-1084120Y-3309870D01*
X-901240Y-3309870D02*
X-784400Y-3309870D01*
X-708200Y-3309870D02*
X-418640Y-3309870D01*
X-398320Y-3309870D02*
X-98600Y-3309870D01*
X-2354120Y-3304790D02*
X-2089960Y-3304790D01*
X-2003600Y-3304790D02*
X-1886760Y-3304790D01*
X-1769920Y-3304790D02*
X-1673400Y-3304790D01*
X-1597200Y-3304790D02*
X-1454960Y-3304790D01*
X-1373680Y-3304790D02*
X-1277160Y-3304790D01*
X-1200960Y-3304790D02*
X-1084120Y-3304790D01*
X-901240Y-3304790D02*
X-784400Y-3304790D01*
X-708200Y-3304790D02*
X-418640Y-3304790D01*
X-398320Y-3304790D02*
X-98600Y-3304790D01*
X-2349040Y-3299710D02*
X-2089960Y-3299710D01*
X-2003600Y-3299710D02*
X-1886760Y-3299710D01*
X-1769920Y-3299710D02*
X-1673400Y-3299710D01*
X-1597200Y-3299710D02*
X-1454960Y-3299710D01*
X-1373680Y-3299710D02*
X-1277160Y-3299710D01*
X-1200960Y-3299710D02*
X-1084120Y-3299710D01*
X-901240Y-3299710D02*
X-784400Y-3299710D01*
X-708200Y-3299710D02*
X-418640Y-3299710D01*
X-398320Y-3299710D02*
X-98600Y-3299710D01*
X-2349040Y-3294630D02*
X-2095040Y-3294630D01*
X-2003600Y-3294630D02*
X-1886760Y-3294630D01*
X-1769920Y-3294630D02*
X-1673400Y-3294630D01*
X-1597200Y-3294630D02*
X-1454960Y-3294630D01*
X-1373680Y-3294630D02*
X-1277160Y-3294630D01*
X-1200960Y-3294630D02*
X-1084120Y-3294630D01*
X-901240Y-3294630D02*
X-784400Y-3294630D01*
X-708200Y-3294630D02*
X-418640Y-3294630D01*
X-398320Y-3294630D02*
X-98600Y-3294630D01*
X-2343960Y-3289550D02*
X-2100120Y-3289550D01*
X-2003600Y-3289550D02*
X-1886760Y-3289550D01*
X-1769920Y-3289550D02*
X-1673400Y-3289550D01*
X-1597200Y-3289550D02*
X-1460040Y-3289550D01*
X-1373680Y-3289550D02*
X-1277160Y-3289550D01*
X-1200960Y-3289550D02*
X-1084120Y-3289550D01*
X-901240Y-3289550D02*
X-784400Y-3289550D01*
X-708200Y-3289550D02*
X-418640Y-3289550D01*
X-398320Y-3289550D02*
X-98600Y-3289550D01*
X-2338880Y-3284470D02*
X-2105200Y-3284470D01*
X-2003600Y-3284470D02*
X-1886760Y-3284470D01*
X-1769920Y-3284470D02*
X-1673400Y-3284470D01*
X-1597200Y-3284470D02*
X-1460040Y-3284470D01*
X-1373680Y-3284470D02*
X-1277160Y-3284470D01*
X-1200960Y-3284470D02*
X-1084120Y-3284470D01*
X-901240Y-3284470D02*
X-784400Y-3284470D01*
X-708200Y-3284470D02*
X-418640Y-3284470D01*
X-398320Y-3284470D02*
X-98600Y-3284470D01*
X-2333800Y-3279390D02*
X-2110280Y-3279390D01*
X-2003600Y-3279390D02*
X-1886760Y-3279390D01*
X-1769920Y-3279390D02*
X-1673400Y-3279390D01*
X-1597200Y-3279390D02*
X-1460040Y-3279390D01*
X-1373680Y-3279390D02*
X-1277160Y-3279390D01*
X-1200960Y-3279390D02*
X-1084120Y-3279390D01*
X-901240Y-3279390D02*
X-784400Y-3279390D01*
X-708200Y-3279390D02*
X-418640Y-3279390D01*
X-398320Y-3279390D02*
X-98600Y-3279390D01*
X-2328720Y-3274310D02*
X-2115360Y-3274310D01*
X-2003600Y-3274310D02*
X-1886760Y-3274310D01*
X-1769920Y-3274310D02*
X-1673400Y-3274310D01*
X-1597200Y-3274310D02*
X-1465120Y-3274310D01*
X-1373680Y-3274310D02*
X-1277160Y-3274310D01*
X-1200960Y-3274310D02*
X-1084120Y-3274310D01*
X-901240Y-3274310D02*
X-784400Y-3274310D01*
X-708200Y-3274310D02*
X-418640Y-3274310D01*
X-398320Y-3274310D02*
X-98600Y-3274310D01*
X-2318560Y-3269230D02*
X-2120440Y-3269230D01*
X-2003600Y-3269230D02*
X-1886760Y-3269230D01*
X-1769920Y-3269230D02*
X-1673400Y-3269230D01*
X-1597200Y-3269230D02*
X-1465120Y-3269230D01*
X-1373680Y-3269230D02*
X-1277160Y-3269230D01*
X-1200960Y-3269230D02*
X-1084120Y-3269230D01*
X-901240Y-3269230D02*
X-784400Y-3269230D01*
X-708200Y-3269230D02*
X-418640Y-3269230D01*
X-398320Y-3269230D02*
X-98600Y-3269230D01*
X-2313480Y-3264150D02*
X-2130600Y-3264150D01*
X-2003600Y-3264150D02*
X-1886760Y-3264150D01*
X-1769920Y-3264150D02*
X-1673400Y-3264150D01*
X-1597200Y-3264150D02*
X-1465120Y-3264150D01*
X-1373680Y-3264150D02*
X-1277160Y-3264150D01*
X-1200960Y-3264150D02*
X-1084120Y-3264150D01*
X-901240Y-3264150D02*
X-784400Y-3264150D01*
X-708200Y-3264150D02*
X-418640Y-3264150D01*
X-398320Y-3264150D02*
X-98600Y-3264150D01*
X-2303320Y-3259070D02*
X-2140760Y-3259070D01*
X-2003600Y-3259070D02*
X-1886760Y-3259070D01*
X-1769920Y-3259070D02*
X-1673400Y-3259070D01*
X-1597200Y-3259070D02*
X-1470200Y-3259070D01*
X-1373680Y-3259070D02*
X-1277160Y-3259070D01*
X-1200960Y-3259070D02*
X-1084120Y-3259070D01*
X-901240Y-3259070D02*
X-784400Y-3259070D01*
X-708200Y-3259070D02*
X-418640Y-3259070D01*
X-398320Y-3259070D02*
X-98600Y-3259070D01*
X-2293160Y-3253990D02*
X-2150920Y-3253990D01*
X-2003600Y-3253990D02*
X-1886760Y-3253990D01*
X-1769920Y-3253990D02*
X-1673400Y-3253990D01*
X-1597200Y-3253990D02*
X-1470200Y-3253990D01*
X-1373680Y-3253990D02*
X-1277160Y-3253990D01*
X-1200960Y-3253990D02*
X-1084120Y-3253990D01*
X-901240Y-3253990D02*
X-784400Y-3253990D01*
X-708200Y-3253990D02*
X-418640Y-3253990D01*
X-398320Y-3253990D02*
X-98600Y-3253990D01*
X-2277920Y-3248910D02*
X-2166160Y-3248910D01*
X-2257600Y-3243830D02*
X-2191560Y-3243830D01*
M02*
