M48
METRIC,TZ
T01C0.5080
T02C0.3810
T03C1.5240
T04C0.7620
T05C1.0160
%
T01
X+1700Y+4600
X-18800Y-4900
X+10680Y+1900
X+35800Y-35100
X+29080Y-4700
X+41900Y-16200
X+31120Y+8900
T02
X+12800Y+3400
X+24700Y+10000
T03
X+60400Y+30920
X+60400Y+36000
X+60700Y+12420
X+60700Y+17500
X+60700Y+20
X+60700Y+5100
X+60800Y-12680
X+60800Y-7600
X+61000Y-25380
X+61000Y-20300
T04
X+51800Y+36000
X+44180Y+36000
X+15880Y+5520
X+18420Y+5520
X+20960Y+5520
X+23500Y+5520
X+26040Y+5520
X+28580Y+5520
X+31120Y+5520
X+31120Y-2100
X+28580Y-2100
X+26040Y-2100
X+23500Y-2100
X+20960Y-2100
X+18420Y-2100
X+15880Y-2100
X+48000Y+19060
X+48000Y+29220
X+44400Y+19060
X+44400Y+29220
X+51700Y+29160
X+51700Y+19000
X+44800Y-1500
X+44800Y+8660
X+52000Y+8300
X+52000Y-1860
X+27200Y+12100
X+27200Y+22260
X+48500Y-16300
X+48500Y-6140
X+45000Y-16200
X+45000Y-6040
X+52300Y-6000
X+52300Y-16160
X+48400Y-29900
X+48400Y-19740
X+44800Y-29700
X+44800Y-19540
X+52300Y-19800
X+52300Y-29960
X+37134Y-26800
X+26974Y-26800
X+8971Y-16379
X+19131Y-16379
X+26434Y-23200
X+36594Y-23200
X+19071Y-13279
X+8911Y-13279
X+35800Y+37800
X+35800Y+27640
X+29500Y+37700
X+29500Y+27540
X+32200Y+27600
X+32200Y+37760
X+26300Y+27700
X+26300Y+37860
X+48100Y-1900
X+48100Y+8260
X+35800Y+11735
X+35800Y+21895
X+23100Y+22635
X+23100Y+12475
X+31800Y+21935
X+31800Y+11775
X+29780Y-7273
X+29780Y-17433
X+35220Y-17427
X+35220Y-7267
X+26000Y-17266
X+26000Y-7106
X+38280Y-17473
X+38280Y-7313
X-1780Y+33800
X-1780Y+31260
X-1780Y+28720
X-9400Y+28720
X-9400Y+31260
X-9400Y+33800
X+4120Y+23500
X+4120Y+33660
X-13780Y+25400
X-13780Y+35560
X+4220Y+4600
X+4220Y+14760
X+720Y+14700
X+720Y+12160
X+720Y+9620
X-6900Y+9620
X-6900Y+12160
X-6900Y+14700
X-4140Y+600
X-4140Y-1940
X-4140Y-4480
X-11760Y-4480
X-11760Y-1940
X-11760Y+600
X-4140Y-12700
X-4140Y-15240
X-4140Y-17780
X-11760Y-17780
X-11760Y-15240
X-11760Y-12700
X-12680Y+17100
X-12680Y+6940
X+760Y-9600
X+760Y+560
X-17240Y+3300
X-17240Y-6860
X+1060Y-24200
X+1060Y-14040
X-16940Y-23400
X-16940Y-13240
T05
X-21900Y+26720
X-21900Y+24180
X-21900Y+21640
X-21900Y+19100
X-21900Y+16560
X-21900Y+14020
X+33340Y-34700
X+30800Y-34700
X+28260Y-34700
X+25720Y-34700
X+23180Y-34700
X+20640Y-34700
X-22600Y-15060
X-22600Y-12520
X-22600Y-9980
X-22600Y-7440
X-22600Y-4900
X-22600Y-2360
M30
