G04 PROTEUS RS274X GERBER FILE*
%FSLAX45Y45*%
%MOMM*%
G01*
%ADD10C,0.635000*%
%ADD11C,0.762000*%
%ADD12C,1.270000*%
%ADD13C,0.762000*%
%ADD14C,0.254000*%
%ADD15C,3.810000*%
%ADD16C,1.778000*%
%ADD17R,1.778000X1.778000*%
%ADD18R,2.032000X2.032000*%
%ADD19C,0.203200*%
%ADD70C,0.063500*%
G36*
X-277728Y+3722772D02*
X-234951Y+3679995D01*
X-234951Y+3583199D01*
X+25199Y+3583199D01*
X+25199Y+3526049D01*
X+250995Y+3526049D01*
X+264995Y+3512049D01*
X+270682Y+3512049D01*
X+327832Y+3569199D01*
X+496168Y+3569199D01*
X+615199Y+3450168D01*
X+615199Y+3281832D01*
X+496168Y+3162801D01*
X+327832Y+3162801D01*
X+270682Y+3219951D01*
X+144005Y+3219951D01*
X+130005Y+3233951D01*
X+25199Y+3233951D01*
X+25199Y+3041832D01*
X-17633Y+2999000D01*
X+25199Y+2956168D01*
X+25199Y+2787832D01*
X-93832Y+2668801D01*
X-234951Y+2668801D01*
X-234951Y+2537495D01*
X-193505Y+2496049D01*
X+270682Y+2496049D01*
X+327832Y+2553199D01*
X+496168Y+2553199D01*
X+615199Y+2434168D01*
X+615199Y+2265832D01*
X+496168Y+2146801D01*
X+327832Y+2146801D01*
X+270682Y+2203951D01*
X-314495Y+2203951D01*
X-488951Y+2378407D01*
X-488951Y+2289343D01*
X-129912Y+1979265D01*
X-103375Y+1919834D01*
X-103977Y+1887296D01*
X-107942Y+1673199D01*
X+275199Y+1673199D01*
X+275199Y+1616566D01*
X+337832Y+1679199D01*
X+506168Y+1679199D01*
X+625199Y+1560168D01*
X+625199Y+1391832D01*
X+506168Y+1272801D01*
X+337832Y+1272801D01*
X+286682Y+1323951D01*
X+275199Y+1323951D01*
X+275199Y+1131832D01*
X+232367Y+1089000D01*
X+275199Y+1046168D01*
X+275199Y+877832D01*
X+176970Y+779603D01*
X+671340Y+775551D01*
X+756049Y+690145D01*
X+756049Y+322664D01*
X+720211Y+257152D01*
X+487259Y+107951D01*
X+279199Y+107951D01*
X+279199Y-28168D01*
X+160168Y-147199D01*
X-8168Y-147199D01*
X-65318Y-90049D01*
X-210801Y-90049D01*
X-210801Y-278168D01*
X-253633Y-321000D01*
X-210801Y-363832D01*
X-210801Y-532168D01*
X-294584Y-615951D01*
X+250995Y-615951D01*
X+463549Y-828505D01*
X+463549Y-1076495D01*
X+264706Y-1275338D01*
X+309199Y-1319832D01*
X+309199Y-1488168D01*
X+190168Y-1607199D01*
X+21832Y-1607199D01*
X-35318Y-1550049D01*
X-123995Y-1550049D01*
X-210801Y-1463243D01*
X-210801Y-1608168D01*
X-253633Y-1651000D01*
X-210801Y-1693832D01*
X-210801Y-1862168D01*
X-234584Y-1885951D01*
X+250995Y-1885951D01*
X+463549Y-2098505D01*
X+463549Y-2526995D01*
X+250995Y-2739549D01*
X-1500995Y-2739549D01*
X-1697345Y-2543199D01*
X-1778168Y-2543199D01*
X-1897199Y-2424168D01*
X-1897199Y-2305049D01*
X-2028995Y-2305049D01*
X-2184730Y-2149314D01*
X-2185216Y-1721899D01*
X-2475899Y-1721899D01*
X-2475899Y-310095D01*
X-2665540Y-222289D01*
X-2665540Y-3129853D01*
X+572116Y-3110408D01*
X+552451Y-3090951D01*
X+552451Y-1460005D01*
X+687903Y-1324553D01*
X+687903Y-1243730D01*
X+806934Y-1124699D01*
X+887757Y-1124699D01*
X+1441951Y-570505D01*
X+1441951Y-351318D01*
X+1384801Y-294168D01*
X+1384801Y-125832D01*
X+1503832Y-6801D01*
X+1672168Y-6801D01*
X+1715000Y-49633D01*
X+1757832Y-6801D01*
X+1926168Y-6801D01*
X+1969000Y-49633D01*
X+2011832Y-6801D01*
X+2180168Y-6801D01*
X+2223000Y-49633D01*
X+2265832Y-6801D01*
X+2434168Y-6801D01*
X+2477000Y-49633D01*
X+2519832Y-6801D01*
X+2688168Y-6801D01*
X+2711951Y-30584D01*
X+2711951Y+28495D01*
X+2848557Y+165101D01*
X+2521375Y+165101D01*
X+2337675Y+348801D01*
X+2265832Y+348801D01*
X+2223000Y+391633D01*
X+2180168Y+348801D01*
X+2011832Y+348801D01*
X+1969000Y+391633D01*
X+1926168Y+348801D01*
X+1384801Y+348801D01*
X+1384801Y+405951D01*
X+1290495Y+405951D01*
X+1214049Y+329505D01*
X+1214049Y+295397D01*
X+1245799Y+263647D01*
X+1245799Y+116353D01*
X+1141647Y+12201D01*
X+994353Y+12201D01*
X+890201Y+116353D01*
X+890201Y+263647D01*
X+921951Y+295397D01*
X+921951Y+450495D01*
X+1169505Y+698049D01*
X+1384801Y+698049D01*
X+1384801Y+755199D01*
X+1441951Y+755199D01*
X+1441951Y+2804495D01*
X+2426801Y+3789345D01*
X+2426801Y+3870168D01*
X+2442173Y+3885540D01*
X-440496Y+3885540D01*
X-277728Y+3722772D01*
G37*
%LPC*%
G36*
X+1311750Y+326849D02*
X+1311750Y+353151D01*
X+1293151Y+371750D01*
X+1266849Y+371750D01*
X+1248250Y+353151D01*
X+1248250Y+326849D01*
X+1266849Y+308250D01*
X+1293151Y+308250D01*
X+1311750Y+326849D01*
G37*
%LPD*%
G36*
X+3783199Y+3864168D02*
X+3783199Y+3695832D01*
X+3664168Y+3576801D01*
X+3495832Y+3576801D01*
X+3438682Y+3633951D01*
X+3368505Y+3633951D01*
X+3366912Y+3635544D01*
X+3328956Y+3597588D01*
X+3541995Y+3384549D01*
X+4060995Y+3384549D01*
X+4265601Y+3179943D01*
X+4265601Y+3465032D01*
X+4214801Y+3515832D01*
X+4214801Y+3684168D01*
X+4333832Y+3803199D01*
X+4502168Y+3803199D01*
X+4552968Y+3752399D01*
X+5045032Y+3752399D01*
X+5095832Y+3803199D01*
X+5264168Y+3803199D01*
X+5314968Y+3752399D01*
X+5761348Y+3752399D01*
X+5894489Y+3885540D01*
X+3761827Y+3885540D01*
X+3783199Y+3864168D01*
G37*
G36*
X+6344799Y+3726252D02*
X+6344799Y+3473748D01*
X+6217051Y+3346000D01*
X+6344799Y+3218252D01*
X+6344799Y+2965748D01*
X+6166252Y+2787201D01*
X+5913748Y+2787201D01*
X+5735201Y+2965748D01*
X+5735201Y+3218252D01*
X+5862949Y+3346000D01*
X+5761348Y+3447601D01*
X+5332399Y+3447601D01*
X+5332399Y+3302375D01*
X+5168899Y+3138875D01*
X+5168899Y+3119199D01*
X+5254168Y+3119199D01*
X+5373199Y+3000168D01*
X+5373199Y+2831832D01*
X+5297266Y+2755899D01*
X+6476625Y+2755899D01*
X+6645540Y+2586984D01*
X+6645540Y+3885540D01*
X+6185511Y+3885540D01*
X+6344799Y+3726252D01*
G37*
G36*
X+640000Y-3685540D02*
X+1848101Y-3685540D01*
X+1848101Y-3316049D01*
X+779961Y-3316049D01*
X+737280Y-3273821D01*
X+640000Y-3177572D01*
X+640000Y-3685540D01*
G37*
G36*
X+6642050Y-992793D02*
X+6565899Y-1140626D01*
X+6565899Y-1650625D01*
X+6358788Y-1857736D01*
X+6404799Y-1903748D01*
X+6404799Y-2156252D01*
X+6277051Y-2284000D01*
X+6404799Y-2411748D01*
X+6404799Y-2664252D01*
X+6226252Y-2842799D01*
X+5973748Y-2842799D01*
X+5814998Y-2684049D01*
X+5494093Y-2684049D01*
X+5670549Y-2860505D01*
X+5670549Y-3362495D01*
X+5457995Y-3575049D01*
X+3757799Y-3575049D01*
X+3757799Y-3583647D01*
X+3655906Y-3685540D01*
X+6645540Y-3685540D01*
X+6645540Y-570499D01*
X+6642050Y-992793D01*
G37*
G36*
X+4273549Y+2282995D02*
X+4314995Y+2241549D01*
X+4670995Y+2241549D01*
X+4803345Y+2109199D01*
X+4884168Y+2109199D01*
X+4947318Y+2046049D01*
X+5028682Y+2046049D01*
X+5085832Y+2103199D01*
X+5254168Y+2103199D01*
X+5373199Y+1984168D01*
X+5373199Y+1815832D01*
X+5254168Y+1696801D01*
X+5085832Y+1696801D01*
X+5028682Y+1753951D01*
X+4935318Y+1753951D01*
X+4884168Y+1702801D01*
X+4849743Y+1702801D01*
X+5164495Y+1388049D01*
X+5784998Y+1388049D01*
X+5892949Y+1496000D01*
X+5765201Y+1623748D01*
X+5765201Y+1876252D01*
X+5943748Y+2054799D01*
X+6196252Y+2054799D01*
X+6361068Y+1889983D01*
X+6365579Y+2435897D01*
X+6350375Y+2451101D01*
X+5080375Y+2451101D01*
X+4864101Y+2667375D01*
X+4864101Y+2718801D01*
X+4715832Y+2718801D01*
X+4665032Y+2769601D01*
X+4574968Y+2769601D01*
X+4524168Y+2718801D01*
X+4355832Y+2718801D01*
X+4273549Y+2801084D01*
X+4273549Y+2282995D01*
G37*
G36*
X+2394168Y+2060301D02*
X+2313345Y+2060301D01*
X+2305049Y+2052005D01*
X+2305049Y+1450699D01*
X+2394168Y+1450699D01*
X+2513199Y+1331668D01*
X+2513199Y+1163332D01*
X+2394168Y+1044301D01*
X+2318243Y+1044301D01*
X+2607345Y+755199D01*
X+2688168Y+755199D01*
X+2711951Y+731416D01*
X+2711951Y+949995D01*
X+2768757Y+1006801D01*
X+2635832Y+1006801D01*
X+2516801Y+1125832D01*
X+2516801Y+1294168D01*
X+2635832Y+1413199D01*
X+2716655Y+1413199D01*
X+2838451Y+1534995D01*
X+2838451Y+2057084D01*
X+2804168Y+2022801D01*
X+2635832Y+2022801D01*
X+2578682Y+2079951D01*
X+2479505Y+2079951D01*
X+2446662Y+2112794D01*
X+2394168Y+2060301D01*
G37*
%LPC*%
G36*
X+2501750Y+986849D02*
X+2501750Y+1013151D01*
X+2483151Y+1031750D01*
X+2456849Y+1031750D01*
X+2438250Y+1013151D01*
X+2438250Y+986849D01*
X+2456849Y+968250D01*
X+2483151Y+968250D01*
X+2501750Y+986849D01*
G37*
%LPD*%
G36*
X+4019549Y+1203495D02*
X+4060995Y+1162049D01*
X+4949995Y+1162049D01*
X+5097338Y+1014706D01*
X+5115832Y+1033199D01*
X+5284168Y+1033199D01*
X+5403199Y+914168D01*
X+5403199Y+745832D01*
X+5284168Y+626801D01*
X+5162549Y+626801D01*
X+5162549Y+377995D01*
X+5429250Y+111294D01*
X+5466005Y+148049D01*
X+5784998Y+148049D01*
X+5892949Y+256000D01*
X+5765201Y+383748D01*
X+5765201Y+636252D01*
X+5943748Y+814799D01*
X+6196252Y+814799D01*
X+6350904Y+660147D01*
X+6354501Y+1095450D01*
X+6196252Y+937201D01*
X+5943748Y+937201D01*
X+5784998Y+1095951D01*
X+5043505Y+1095951D01*
X+4436655Y+1702801D01*
X+4355832Y+1702801D01*
X+4298682Y+1759951D01*
X+4067005Y+1759951D01*
X+4019549Y+1807407D01*
X+4019549Y+1203495D01*
G37*
G36*
X+5564272Y-166772D02*
X+5543549Y-187495D01*
X+5543549Y-377995D01*
X+5419456Y-502088D01*
X+5433199Y-515832D01*
X+5433199Y-684168D01*
X+5314168Y-803199D01*
X+5254723Y-803199D01*
X+5313125Y-861601D01*
X+5775201Y-861601D01*
X+5775201Y-633748D01*
X+5953748Y-455201D01*
X+6206252Y-455201D01*
X+6340576Y-589525D01*
X+6344168Y-154883D01*
X+6196252Y-302799D01*
X+5943748Y-302799D01*
X+5784998Y-144049D01*
X+5586995Y-144049D01*
X+5564272Y-166772D01*
G37*
G36*
X+2242049Y-1712152D02*
X+2646698Y-2116801D01*
X+2727521Y-2116801D01*
X+2846552Y-2235832D01*
X+2846552Y-2404168D01*
X+2789402Y-2461318D01*
X+2789402Y-2484682D01*
X+2900552Y-2595832D01*
X+2900552Y-2764168D01*
X+2781521Y-2883199D01*
X+2613185Y-2883199D01*
X+2494154Y-2764168D01*
X+2494154Y-2595832D01*
X+2497304Y-2592682D01*
X+2497304Y-2461318D01*
X+2440154Y-2404168D01*
X+2440154Y-2323345D01*
X+1957906Y-1841097D01*
X+1828934Y-1841097D01*
X+1709903Y-1722066D01*
X+1709903Y-1553730D01*
X+1767053Y-1496580D01*
X+1767053Y-1475216D01*
X+1703903Y-1412066D01*
X+1703903Y-1243730D01*
X+1761053Y-1186580D01*
X+1761053Y-631995D01*
X+1734049Y-604991D01*
X+1734049Y-691495D01*
X+1094301Y-1331243D01*
X+1094301Y-1412066D01*
X+1026469Y-1479898D01*
X+1100301Y-1553730D01*
X+1100301Y-1634553D01*
X+2367699Y-2901951D01*
X+3266907Y-2901951D01*
X+3219451Y-2854495D01*
X+3219451Y-1035049D01*
X+3114505Y-1035049D01*
X+3028951Y-949495D01*
X+3028951Y-930450D01*
X+2940049Y-930450D01*
X+2940049Y-1540052D01*
X+3062168Y-1540052D01*
X+3181199Y-1659083D01*
X+3181199Y-1827419D01*
X+3062168Y-1946450D01*
X+2893832Y-1946450D01*
X+2836682Y-1889300D01*
X+2750109Y-1889300D01*
X+2737412Y-1876602D01*
X+2684168Y-1929846D01*
X+2515832Y-1929846D01*
X+2396801Y-1810815D01*
X+2396801Y-1642479D01*
X+2515832Y-1523448D01*
X+2596655Y-1523448D01*
X+2647951Y-1472152D01*
X+2647951Y-913846D01*
X+2515832Y-913846D01*
X+2396801Y-794815D01*
X+2396801Y-626479D01*
X+2487868Y-535412D01*
X+2457951Y-505495D01*
X+2457951Y-389416D01*
X+2434168Y-413199D01*
X+2265832Y-413199D01*
X+2242049Y-389416D01*
X+2242049Y-1712152D01*
G37*
G36*
X+5433199Y-2064168D02*
X+5314168Y-2183199D01*
X+5145832Y-2183199D01*
X+5032000Y-2069367D01*
X+4924168Y-2177199D01*
X+4755832Y-2177199D01*
X+4685032Y-2106399D01*
X+4614968Y-2106399D01*
X+4564168Y-2157199D01*
X+4395832Y-2157199D01*
X+4289682Y-2051049D01*
X+3623756Y-2051049D01*
X+3518655Y-1945948D01*
X+3511549Y-1945948D01*
X+3511549Y-2180437D01*
X+3575185Y-2116801D01*
X+3743521Y-2116801D01*
X+3862552Y-2235832D01*
X+3862552Y-2404168D01*
X+3789919Y-2476801D01*
X+3797521Y-2476801D01*
X+3854671Y-2533951D01*
X+4250495Y-2533951D01*
X+4360250Y-2643706D01*
X+4362451Y-2641505D01*
X+4362451Y-2416005D01*
X+4448005Y-2330451D01*
X+5394495Y-2330451D01*
X+5455995Y-2391951D01*
X+5814998Y-2391951D01*
X+5922949Y-2284000D01*
X+5795201Y-2156252D01*
X+5795201Y-1930399D01*
X+5433199Y-1930399D01*
X+5433199Y-2064168D01*
G37*
G36*
X-969456Y-194000D02*
X-869951Y-293505D01*
X-869951Y-726907D01*
X-758995Y-615951D01*
X-533416Y-615951D01*
X-617199Y-532168D01*
X-617199Y-363832D01*
X-574367Y-321000D01*
X-617199Y-278168D01*
X-617199Y+107951D01*
X-667506Y+107951D01*
X-969456Y-194000D01*
G37*
D10*
X+3220000Y+2760000D02*
X+3063500Y+2603500D01*
X+2159000Y+2603500D01*
X+2032000Y+2476500D01*
X+2032000Y+762500D01*
X+2096000Y+698500D01*
X+2096000Y+552000D01*
X+3220000Y+2760000D02*
X+3224000Y+2764000D01*
X+3580000Y+2764000D01*
X+2630000Y+2770000D02*
X+2032000Y+2770000D01*
X+1842000Y+2580000D01*
X+1842000Y+552000D01*
X+2630000Y+2770000D02*
X+2646000Y+2754000D01*
X+2950000Y+2754000D01*
X+1588000Y+552000D02*
X+1588000Y+2744000D01*
X+2630000Y+3786000D01*
X+4800000Y+1906000D02*
X+4610500Y+2095500D01*
X+4254500Y+2095500D01*
X+4127500Y+2222500D01*
X+4127500Y+3111500D01*
X+4000500Y+3238500D01*
X+3481500Y+3238500D01*
X+2950000Y+3770000D01*
X+4800000Y+1906000D02*
X+4806000Y+1900000D01*
X+5170000Y+1900000D01*
X+4440000Y+1906000D02*
X+4127500Y+1906000D01*
X+4000500Y+2033000D01*
X+4000500Y+2984500D01*
X+3873500Y+3111500D01*
X+2921000Y+3111500D01*
X+2794000Y+3238500D01*
X+2794000Y+3926020D01*
X+3282980Y+3926020D01*
X+3429000Y+3780000D01*
X+3580000Y+3780000D01*
X+4440000Y+1906000D02*
X+5104000Y+1242000D01*
X+6070000Y+1242000D01*
X+2310000Y+2263500D02*
X+2159000Y+2112500D01*
X+2159000Y+997000D01*
X+2604000Y+552000D01*
X+2540000Y+2226000D02*
X+2720000Y+2226000D01*
X+2310000Y+2263500D02*
X+2502500Y+2263500D01*
X+2540000Y+2226000D01*
X+3180000Y+2193500D02*
X+3180000Y+1460500D01*
X+2984500Y+1265000D01*
X+2984500Y+1016000D01*
X+2858000Y+889500D01*
X+2858000Y+552000D01*
X+3180000Y+2193500D02*
X+3576000Y+2193500D01*
X+3580000Y+2189500D01*
X+4810000Y-190000D02*
X+4175500Y+444500D01*
X+3746500Y+444500D01*
X+3580000Y+611000D01*
X+3580000Y+1173500D01*
X+4810000Y-190000D02*
X+5196000Y-190000D01*
X+5200000Y-186000D01*
X+5397500Y-63500D02*
X+5397500Y-317500D01*
X+5270500Y-444500D01*
X+4774500Y-444500D01*
X+4480000Y-150000D01*
X+5397500Y-63500D02*
X+5016500Y+317500D01*
X+5016500Y+889000D01*
X+4889500Y+1016000D01*
X+4000500Y+1016000D01*
X+3873500Y+1143000D01*
X+3873500Y+2222500D01*
X+3746500Y+2349500D01*
X+3111500Y+2349500D01*
X+2984500Y+2222500D01*
X+2984500Y+1474500D01*
X+2720000Y+1210000D01*
X+5397500Y-63500D02*
X+5461000Y-63500D01*
X+5526500Y+2000D01*
X+6070000Y+2000D01*
X+2600000Y-1726647D02*
X+2794000Y-1532647D01*
X+2794000Y-635000D01*
X+2604000Y-445000D01*
X+2604000Y-210000D01*
X+2600000Y-1726647D02*
X+2794000Y-1726647D01*
X+2810604Y-1743251D01*
X+2978000Y-1743251D01*
X+3175000Y-889000D02*
X+3302000Y-889000D01*
X+3365500Y-952500D01*
X+3606751Y-952500D01*
X+3828000Y-731251D01*
X+3175000Y-889000D02*
X+3175000Y-698500D01*
X+3112000Y-635500D01*
X+3112000Y-210000D01*
X+4850000Y-1630000D02*
X+4702000Y-1778000D01*
X+4381500Y-1778000D01*
X+4254500Y-1905000D01*
X+3684251Y-1905000D01*
X+3522000Y-1742749D01*
X+4850000Y-1630000D02*
X+4864000Y-1616000D01*
X+5230000Y-1616000D01*
X+4500000Y-1270000D02*
X+5016500Y-1270000D01*
X+5018500Y-1268000D01*
X+6080000Y-1268000D01*
X+4500000Y-1270000D02*
X+4500000Y-1620000D01*
X-178000Y+3380000D02*
X+190500Y+3380000D01*
X+204500Y+3366000D01*
X+412000Y+3366000D01*
X-1378000Y+2540000D02*
X-1079500Y+2540000D01*
X-940000Y+2679500D01*
X-940000Y+2872000D01*
X-1378000Y+2540000D02*
X-1587500Y+2540000D01*
X-1719500Y+2672000D01*
X-2190000Y+2672000D01*
X+2643353Y-2320000D02*
X+2643353Y-2626000D01*
X+2697353Y-2680000D01*
X+2643353Y-2320000D02*
X+2096000Y-1772647D01*
X+2096000Y-210000D01*
X+1907102Y-1327898D02*
X+1907102Y-571500D01*
X+1842000Y-506398D01*
X+1842000Y-210000D01*
X+1907102Y-1327898D02*
X+1913102Y-1333898D01*
X+1913102Y-1637898D01*
X+891102Y-1327898D02*
X+1588000Y-631000D01*
X+1588000Y-210000D01*
X+4840000Y-2990000D02*
X+4840000Y-3175000D01*
X+4713000Y-3302000D01*
X+4064000Y-3302000D01*
X+3810000Y-3048000D01*
X+2307204Y-3048000D01*
X+897102Y-1637898D01*
X+4840000Y-2990000D02*
X+5224000Y-2990000D01*
X+5230000Y-2996000D01*
X+4480000Y-2970000D02*
X+4190000Y-2680000D01*
X+3713353Y-2680000D01*
X+4480000Y-2970000D02*
X+4480000Y-2730500D01*
X+4508500Y-2702000D01*
X+4508500Y-2476500D01*
X+5334000Y-2476500D01*
X+5395500Y-2538000D01*
X+6100000Y-2538000D01*
X+422000Y+1476000D02*
X+416000Y+1470000D01*
X+72000Y+1470000D01*
X-1268000Y+1710000D02*
X-1268000Y+1143000D01*
X-1087001Y+962001D01*
X-690000Y+962000D01*
X-690000Y+962001D01*
X-1268000Y+1710000D02*
X-1587500Y+2029500D01*
X-1587500Y+2286000D01*
X-1719500Y+2418000D01*
X-2190000Y+2418000D01*
X-414000Y+60000D02*
X-410000Y+56000D01*
X+76000Y+56000D01*
X-1724000Y+330000D02*
X-1724000Y+2032000D01*
X-1856000Y+2164000D01*
X-2190000Y+2164000D01*
X-1724000Y+330000D02*
X-1460500Y+330000D01*
X-1333500Y+203000D01*
X-1333500Y-290499D01*
X-1176000Y-448000D01*
X-1176000Y-447999D01*
X+106000Y-1404000D02*
X-63500Y-1404000D01*
X-197500Y-1270000D01*
X-414000Y-1270000D01*
X-1176000Y-1778000D02*
X-1460500Y-1493499D01*
X-1460500Y-190500D01*
X-1905000Y+254000D01*
X-1905000Y+1910000D01*
X-2190000Y+1910000D01*
X-1176000Y-1777999D02*
X-1176000Y-1778000D01*
D11*
X-2260000Y-1506000D02*
X-2260000Y-2730500D01*
X-2133000Y-2857500D01*
X+381000Y-2857500D01*
X+444500Y-2730500D02*
X+444500Y-2857500D01*
X+381000Y-2857500D01*
X+2350000Y-210000D02*
X+2350000Y-460647D01*
X+2600000Y-710647D01*
X+762000Y+0D02*
X+762000Y-63500D01*
X+580699Y-244801D01*
X+444500Y-244801D01*
X+2318000Y-3470000D02*
X+2318000Y-3469999D01*
X+2064000Y-3469999D01*
X+2064000Y-3470000D01*
X+444500Y-244801D02*
X+393699Y-194000D01*
X-414000Y-194000D01*
X+762000Y+0D02*
X+762000Y+1079500D01*
X+635000Y+1206500D01*
X+381000Y-1651000D02*
X+444500Y-1714500D01*
X+444500Y-2730500D01*
X+381000Y-1651000D02*
X+444500Y-1587500D01*
X+444500Y-244801D01*
X+5230000Y-1980000D02*
X+4890000Y-2320000D01*
X+3659353Y-2320000D01*
X+4191000Y+3556000D02*
X+3440000Y+3556000D01*
X+3220000Y+3776000D01*
X+6070000Y+1750000D02*
X+5597500Y+2222500D01*
X+4381500Y+2222500D01*
X+4254500Y+2349500D01*
X+4254500Y+3492500D01*
X+4191000Y+3556000D01*
X+4191000Y+3746500D01*
X+4318000Y+3873500D01*
X+6286500Y+3873500D01*
X+6413500Y+3746500D01*
X+6413500Y+3238500D01*
X+6040000Y+3092000D02*
X+5346000Y+3092000D01*
X+5170000Y+2916000D01*
X+6080000Y-760000D02*
X+5390000Y-760000D01*
X+5230000Y-600000D01*
X+698500Y+2984500D02*
X+557000Y+3126000D01*
X-178000Y+3126000D01*
X+381000Y-1651000D02*
X-127000Y-1651000D01*
X-254000Y-1524000D01*
X-414000Y-1524000D01*
X+6040000Y+3092000D02*
X+6413500Y+3092000D01*
X+6413500Y+3238500D01*
X+6100000Y-2030000D02*
X+5651500Y-2030000D01*
X+5601500Y-1980000D01*
X+5230000Y-1980000D01*
X+635000Y+1206500D02*
X+517500Y+1206500D01*
X+508000Y+1216000D01*
X+72000Y+1216000D01*
X+6070000Y+510000D02*
X+5520000Y+510000D01*
X+5200000Y+830000D01*
X+698500Y+2984500D02*
X+698500Y+1270000D01*
X+698500Y+1206500D01*
X+635000Y+1206500D01*
X+6070000Y+1750000D02*
X+6350000Y+1470000D01*
X+6350000Y+889000D01*
X+6286500Y+825500D01*
X+6100000Y-2030000D02*
X+6540500Y-2030000D01*
X+6667500Y-1903000D01*
X+6667500Y+2984500D01*
X+6413500Y+3238500D01*
X+6070000Y+510000D02*
X+6070000Y+825500D01*
X+6286500Y+825500D01*
X-2260000Y-1506000D02*
X-2260000Y-1252000D01*
X+6080000Y-760000D02*
X+6350000Y-490000D01*
X+6350000Y+762000D01*
X+6286500Y+825500D01*
D10*
X-2190000Y+1402000D02*
X-2190000Y+190500D01*
X-1724000Y-275500D01*
X-1724000Y-686000D01*
X-2190000Y+1656000D02*
X-2190000Y+1402000D01*
D11*
X+4500000Y-604000D02*
X+4160000Y-604000D01*
X+3238500Y+317500D01*
X+3365500Y+381000D02*
X+3238500Y+381000D01*
X+3238500Y+317500D01*
X+4480000Y+866000D02*
X+3873500Y+866000D01*
X+3746500Y+993000D01*
X+3746500Y+1333500D01*
X+3619500Y+1460500D01*
X+3492500Y+1460500D01*
X+3365500Y+1333500D01*
X+3365500Y+381000D01*
X+3238500Y+317500D02*
X+2584500Y+317500D01*
X+2350000Y+552000D01*
X+4850000Y-614000D02*
X+4840001Y-604001D01*
X+4500001Y-604001D01*
X+4500000Y-604000D01*
X+4840000Y-1974000D02*
X+5036000Y-1778000D01*
X+5778500Y-1778000D01*
X+5842000Y-1714500D01*
X+6286500Y-1714500D01*
X+6413500Y-1587500D01*
X+6413500Y-1077500D01*
X+4850000Y-614000D02*
X+5250000Y-1014000D01*
X+6350000Y-1014000D01*
X+6413500Y-1077500D01*
X+5180000Y+3600000D02*
X+4418000Y+3600000D01*
X+4418000Y+3238500D01*
X+4440000Y+3216500D01*
X+4440000Y+2922000D01*
X+4480000Y+866000D02*
X+4635500Y+866000D01*
X+4635500Y+826000D01*
X+4810000Y+826000D01*
X+4840000Y-1974000D02*
X+4820000Y-1954000D01*
X+4480000Y-1954000D01*
X+5180000Y+3600000D02*
X+6040000Y+3600000D01*
X+4440000Y+2922000D02*
X+4800000Y+2922000D01*
D10*
X-762000Y+1714500D02*
X-889000Y+1587500D01*
X-889000Y+1216001D01*
X-690000Y+1216000D01*
X-690000Y+1216001D01*
X-762000Y+1714500D02*
X-762000Y+2948000D01*
X-940000Y+3126000D01*
X-1176000Y-193999D02*
X-1176000Y-194000D01*
X-1016000Y-353999D01*
X-1016000Y-1363999D01*
X-1176000Y-1524000D01*
X-1176000Y-1523999D01*
D11*
X+2064000Y-3470000D02*
X+700000Y-3470000D01*
X+499695Y-3142825D01*
X+500000Y-2830000D01*
D10*
X+422000Y+460000D02*
X+170000Y+460000D01*
X-1880000Y-490000D02*
X-2260000Y-490000D01*
X+1588000Y+552000D02*
X+1230000Y+552000D01*
X+1068000Y+390000D01*
X+1068000Y+190000D01*
X+3580000Y-3510000D02*
X+3435600Y-3510000D01*
X+3334000Y-3470000D01*
X+2978000Y-727251D02*
X+2978000Y-540000D01*
X+2908000Y-470000D01*
X+4190000Y-1620000D02*
X+4500000Y-1620000D01*
X+3828000Y-1747251D02*
X+3828000Y-1430000D01*
X+4250000Y-1430000D01*
X+4250000Y-850000D01*
X+3869250Y-469250D01*
X+3580750Y-469250D01*
X+3522000Y-726749D02*
X+3522000Y-571500D01*
X+3522000Y-469250D01*
X+3522000Y-250000D01*
X+3212000Y+60000D01*
X+2950000Y+60000D01*
X+2858000Y-32000D01*
X+2858000Y-210000D01*
X+3580750Y-469250D02*
X+3522000Y-469250D01*
D11*
X+2350000Y-210000D02*
X+2140000Y+0D01*
X+2010000Y+130000D01*
X+1280000Y+130000D01*
X+1280000Y+340000D01*
X+2470000Y+1000000D02*
X+2311400Y+1158600D01*
X+2310000Y+1247500D01*
X+2140000Y+0D02*
X+762000Y+0D01*
D10*
X+3112000Y+552000D02*
X+3112000Y+762000D01*
X+3180000Y+830000D01*
X+3180000Y+1177500D01*
X+3112000Y+762000D02*
X+3112000Y+890000D01*
D11*
X+2318000Y-3470000D02*
X+2318000Y-3683000D01*
X+6286500Y-3683000D01*
X+6413500Y-3556000D01*
X+6413500Y-2343500D01*
X+6100000Y-2030000D01*
D10*
X+3365500Y-952500D02*
X+3365500Y-2794000D01*
X+3492500Y-2921000D01*
X+4064000Y-2921000D01*
X+4318000Y-3175000D01*
X+4508500Y-3175000D01*
X+4635500Y-3048000D01*
X+4635500Y-2921000D01*
X+4762500Y-2794000D01*
X+5397500Y-2794000D01*
X+5524500Y-2921000D01*
X+5524500Y-3302000D01*
X+5397500Y-3429000D01*
X+3746500Y-3429000D01*
X+3580000Y-3190000D01*
X+2829724Y-3199996D01*
X+2826000Y-3470000D01*
X+891102Y-1327898D02*
X+698500Y-1520500D01*
X+698500Y-3030000D01*
X+840000Y-3170000D01*
X+2570000Y-3170000D01*
X+2572000Y-3470000D01*
X+412000Y+2350000D02*
X-254000Y+2350000D01*
X-381000Y+2477000D01*
X-381000Y+3619500D01*
X-508000Y+3746500D01*
X-2349500Y+3746500D01*
X-2620000Y+3600000D01*
X-2622549Y-79995D01*
X-2260000Y-236000D01*
X-2190000Y+1656000D02*
X-2490000Y+1660000D01*
X-2490000Y+3410000D01*
X-2299753Y+3568384D01*
X-1378000Y+3556000D01*
X-1176000Y-194000D02*
X-728001Y+254000D01*
X+444500Y+254000D01*
X+610000Y+360000D01*
X+610000Y+630000D01*
X+0Y+635000D01*
X-190500Y+444500D01*
X-1333500Y+444500D01*
X-1460500Y+571500D01*
X-1460500Y+856576D01*
X-1143000Y+856576D01*
X-1085849Y+799425D01*
X-571500Y+799425D01*
X-444500Y+926425D01*
X-444500Y+1587500D01*
X-571500Y+1714500D01*
X-762000Y+1714500D01*
X-1176000Y-1778000D02*
X-825500Y-1427499D01*
X-825500Y-889000D01*
X-698500Y-762000D01*
X+190500Y-762000D01*
X+317500Y-889000D01*
X+317500Y-1016000D01*
X+190500Y-1143000D01*
X-63500Y-1143000D01*
X-127000Y-1079500D01*
X-571500Y-1079500D01*
X-571500Y-1905000D01*
X-444500Y-2032000D01*
X+190500Y-2032000D01*
X+317500Y-2159000D01*
X+317500Y-2466500D01*
X+190500Y-2593500D01*
X-1440500Y-2593500D01*
X-1694000Y-2340000D01*
X-1724000Y-686000D02*
X-1654000Y-686000D01*
X-1654000Y-1079500D01*
X-1694000Y-1119500D01*
X-1694000Y-1324000D01*
X+76000Y-960000D02*
X-698500Y-960000D01*
X-698500Y-1905000D01*
X-825500Y-2032000D01*
X-1841500Y-2032000D01*
X-1900000Y-1920000D01*
X-1910000Y-740000D01*
X-2260000Y-744000D01*
X-2260000Y-998000D02*
X-2040000Y-990000D01*
X-2038750Y-2088750D01*
X-1968500Y-2159000D01*
X-155000Y-2159000D01*
X+106000Y-2420000D01*
X-1378000Y+3556000D02*
X-762000Y+3556000D01*
X-635000Y+3429000D01*
X-635000Y+2222500D01*
X-250000Y+1890000D01*
X-270000Y+810000D01*
X-440000Y+640000D01*
X-1120000Y+640000D01*
X-1268000Y+694000D01*
D11*
X+5180000Y+3600000D02*
X+5180000Y+3365500D01*
X+5016500Y+3202000D01*
X+5016500Y+2730500D01*
X+5143500Y+2603500D01*
X+6413500Y+2603500D01*
X+6518500Y+2498500D01*
X+6490000Y-950000D01*
X+6413500Y-1077500D01*
D12*
X+170000Y+460000D03*
X-1880000Y-490000D03*
X+1068000Y+190000D03*
X+3580000Y-3510000D03*
X+2908000Y-470000D03*
X+4190000Y-1620000D03*
D13*
X+1280000Y+340000D03*
X+2470000Y+1000000D03*
D12*
X+3112000Y+890000D03*
D14*
X-277728Y+3722772D02*
X-234951Y+3679995D01*
X-234951Y+3583199D01*
X+25199Y+3583199D01*
X+25199Y+3526049D01*
X+250995Y+3526049D01*
X+264995Y+3512049D01*
X+270682Y+3512049D01*
X+327832Y+3569199D01*
X+496168Y+3569199D01*
X+615199Y+3450168D01*
X+615199Y+3281832D01*
X+496168Y+3162801D01*
X+327832Y+3162801D01*
X+270682Y+3219951D01*
X+144005Y+3219951D01*
X+130005Y+3233951D01*
X+25199Y+3233951D01*
X+25199Y+3041832D01*
X-17633Y+2999000D01*
X+25199Y+2956168D01*
X+25199Y+2787832D01*
X-93832Y+2668801D01*
X-234951Y+2668801D01*
X-234951Y+2537495D01*
X-193505Y+2496049D01*
X+270682Y+2496049D01*
X+327832Y+2553199D01*
X+496168Y+2553199D01*
X+615199Y+2434168D01*
X+615199Y+2265832D01*
X+496168Y+2146801D01*
X+327832Y+2146801D01*
X+270682Y+2203951D01*
X-314495Y+2203951D01*
X-488951Y+2378407D01*
X-488951Y+2289343D01*
X-129912Y+1979265D01*
X-103375Y+1919834D01*
X-103977Y+1887296D01*
X-107942Y+1673199D01*
X+275199Y+1673199D01*
X+275199Y+1616566D01*
X+337832Y+1679199D01*
X+506168Y+1679199D01*
X+625199Y+1560168D01*
X+625199Y+1391832D01*
X+506168Y+1272801D01*
X+337832Y+1272801D01*
X+286682Y+1323951D01*
X+275199Y+1323951D01*
X+275199Y+1131832D01*
X+232367Y+1089000D01*
X+275199Y+1046168D01*
X+275199Y+877832D01*
X+176970Y+779603D01*
X+671340Y+775551D01*
X+756049Y+690145D01*
X+756049Y+322664D01*
X+720211Y+257152D01*
X+487259Y+107951D01*
X+279199Y+107951D01*
X+279199Y-28168D01*
X+160168Y-147199D01*
X-8168Y-147199D01*
X-65318Y-90049D01*
X-210801Y-90049D01*
X-210801Y-278168D01*
X-253633Y-321000D01*
X-210801Y-363832D01*
X-210801Y-532168D01*
X-294584Y-615951D01*
X+250995Y-615951D01*
X+463549Y-828505D01*
X+463549Y-1076495D01*
X+264706Y-1275338D01*
X+309199Y-1319832D01*
X+309199Y-1488168D01*
X+190168Y-1607199D01*
X+21832Y-1607199D01*
X-35318Y-1550049D01*
X-123995Y-1550049D01*
X-210801Y-1463243D01*
X-210801Y-1608168D01*
X-253633Y-1651000D01*
X-210801Y-1693832D01*
X-210801Y-1862168D01*
X-234584Y-1885951D01*
X+250995Y-1885951D01*
X+463549Y-2098505D01*
X+463549Y-2526995D01*
X+250995Y-2739549D01*
X-1500995Y-2739549D01*
X-1697345Y-2543199D01*
X-1778168Y-2543199D01*
X-1897199Y-2424168D01*
X-1897199Y-2305049D01*
X-2028995Y-2305049D01*
X-2184730Y-2149314D01*
X-2185216Y-1721899D01*
X-2475899Y-1721899D01*
X-2475899Y-310095D01*
X-2665540Y-222289D01*
X-2665540Y-3129853D01*
X+572116Y-3110408D01*
X+552451Y-3090951D01*
X+552451Y-1460005D01*
X+687903Y-1324553D01*
X+687903Y-1243730D01*
X+806934Y-1124699D01*
X+887757Y-1124699D01*
X+1441951Y-570505D01*
X+1441951Y-351318D01*
X+1384801Y-294168D01*
X+1384801Y-125832D01*
X+1503832Y-6801D01*
X+1672168Y-6801D01*
X+1715000Y-49633D01*
X+1757832Y-6801D01*
X+1926168Y-6801D01*
X+1969000Y-49633D01*
X+2011832Y-6801D01*
X+2180168Y-6801D01*
X+2223000Y-49633D01*
X+2265832Y-6801D01*
X+2434168Y-6801D01*
X+2477000Y-49633D01*
X+2519832Y-6801D01*
X+2688168Y-6801D01*
X+2711951Y-30584D01*
X+2711951Y+28495D01*
X+2848557Y+165101D01*
X+2521375Y+165101D01*
X+2337675Y+348801D01*
X+2265832Y+348801D01*
X+2223000Y+391633D01*
X+2180168Y+348801D01*
X+2011832Y+348801D01*
X+1969000Y+391633D01*
X+1926168Y+348801D01*
X+1384801Y+348801D01*
X+1384801Y+405951D01*
X+1290495Y+405951D01*
X+1214049Y+329505D01*
X+1214049Y+295397D01*
X+1245799Y+263647D01*
X+1245799Y+116353D01*
X+1141647Y+12201D01*
X+994353Y+12201D01*
X+890201Y+116353D01*
X+890201Y+263647D01*
X+921951Y+295397D01*
X+921951Y+450495D01*
X+1169505Y+698049D01*
X+1384801Y+698049D01*
X+1384801Y+755199D01*
X+1441951Y+755199D01*
X+1441951Y+2804495D01*
X+2426801Y+3789345D01*
X+2426801Y+3870168D01*
X+2442173Y+3885540D01*
X-440496Y+3885540D01*
X-277728Y+3722772D01*
X+1311750Y+326849D02*
X+1311750Y+353151D01*
X+1293151Y+371750D01*
X+1266849Y+371750D01*
X+1248250Y+353151D01*
X+1248250Y+326849D01*
X+1266849Y+308250D01*
X+1293151Y+308250D01*
X+1311750Y+326849D01*
X+3783199Y+3864168D02*
X+3783199Y+3695832D01*
X+3664168Y+3576801D01*
X+3495832Y+3576801D01*
X+3438682Y+3633951D01*
X+3368505Y+3633951D01*
X+3366912Y+3635544D01*
X+3328956Y+3597588D01*
X+3541995Y+3384549D01*
X+4060995Y+3384549D01*
X+4265601Y+3179943D01*
X+4265601Y+3465032D01*
X+4214801Y+3515832D01*
X+4214801Y+3684168D01*
X+4333832Y+3803199D01*
X+4502168Y+3803199D01*
X+4552968Y+3752399D01*
X+5045032Y+3752399D01*
X+5095832Y+3803199D01*
X+5264168Y+3803199D01*
X+5314968Y+3752399D01*
X+5761348Y+3752399D01*
X+5894489Y+3885540D01*
X+3761827Y+3885540D01*
X+3783199Y+3864168D01*
X+6344799Y+3726252D02*
X+6344799Y+3473748D01*
X+6217051Y+3346000D01*
X+6344799Y+3218252D01*
X+6344799Y+2965748D01*
X+6166252Y+2787201D01*
X+5913748Y+2787201D01*
X+5735201Y+2965748D01*
X+5735201Y+3218252D01*
X+5862949Y+3346000D01*
X+5761348Y+3447601D01*
X+5332399Y+3447601D01*
X+5332399Y+3302375D01*
X+5168899Y+3138875D01*
X+5168899Y+3119199D01*
X+5254168Y+3119199D01*
X+5373199Y+3000168D01*
X+5373199Y+2831832D01*
X+5297266Y+2755899D01*
X+6476625Y+2755899D01*
X+6645540Y+2586984D01*
X+6645540Y+3885540D01*
X+6185511Y+3885540D01*
X+6344799Y+3726252D01*
X+640000Y-3685540D02*
X+1848101Y-3685540D01*
X+1848101Y-3316049D01*
X+779961Y-3316049D01*
X+737280Y-3273821D01*
X+640000Y-3177572D01*
X+640000Y-3685540D01*
X+6642050Y-992793D02*
X+6565899Y-1140626D01*
X+6565899Y-1650625D01*
X+6358788Y-1857736D01*
X+6404799Y-1903748D01*
X+6404799Y-2156252D01*
X+6277051Y-2284000D01*
X+6404799Y-2411748D01*
X+6404799Y-2664252D01*
X+6226252Y-2842799D01*
X+5973748Y-2842799D01*
X+5814998Y-2684049D01*
X+5494093Y-2684049D01*
X+5670549Y-2860505D01*
X+5670549Y-3362495D01*
X+5457995Y-3575049D01*
X+3757799Y-3575049D01*
X+3757799Y-3583647D01*
X+3655906Y-3685540D01*
X+6645540Y-3685540D01*
X+6645540Y-570499D01*
X+6642050Y-992793D01*
X+4273549Y+2282995D02*
X+4314995Y+2241549D01*
X+4670995Y+2241549D01*
X+4803345Y+2109199D01*
X+4884168Y+2109199D01*
X+4947318Y+2046049D01*
X+5028682Y+2046049D01*
X+5085832Y+2103199D01*
X+5254168Y+2103199D01*
X+5373199Y+1984168D01*
X+5373199Y+1815832D01*
X+5254168Y+1696801D01*
X+5085832Y+1696801D01*
X+5028682Y+1753951D01*
X+4935318Y+1753951D01*
X+4884168Y+1702801D01*
X+4849743Y+1702801D01*
X+5164495Y+1388049D01*
X+5784998Y+1388049D01*
X+5892949Y+1496000D01*
X+5765201Y+1623748D01*
X+5765201Y+1876252D01*
X+5943748Y+2054799D01*
X+6196252Y+2054799D01*
X+6361068Y+1889983D01*
X+6365579Y+2435897D01*
X+6350375Y+2451101D01*
X+5080375Y+2451101D01*
X+4864101Y+2667375D01*
X+4864101Y+2718801D01*
X+4715832Y+2718801D01*
X+4665032Y+2769601D01*
X+4574968Y+2769601D01*
X+4524168Y+2718801D01*
X+4355832Y+2718801D01*
X+4273549Y+2801084D01*
X+4273549Y+2282995D01*
X+2394168Y+2060301D02*
X+2313345Y+2060301D01*
X+2305049Y+2052005D01*
X+2305049Y+1450699D01*
X+2394168Y+1450699D01*
X+2513199Y+1331668D01*
X+2513199Y+1163332D01*
X+2394168Y+1044301D01*
X+2318243Y+1044301D01*
X+2607345Y+755199D01*
X+2688168Y+755199D01*
X+2711951Y+731416D01*
X+2711951Y+949995D01*
X+2768757Y+1006801D01*
X+2635832Y+1006801D01*
X+2516801Y+1125832D01*
X+2516801Y+1294168D01*
X+2635832Y+1413199D01*
X+2716655Y+1413199D01*
X+2838451Y+1534995D01*
X+2838451Y+2057084D01*
X+2804168Y+2022801D01*
X+2635832Y+2022801D01*
X+2578682Y+2079951D01*
X+2479505Y+2079951D01*
X+2446662Y+2112794D01*
X+2394168Y+2060301D01*
X+2501750Y+986849D02*
X+2501750Y+1013151D01*
X+2483151Y+1031750D01*
X+2456849Y+1031750D01*
X+2438250Y+1013151D01*
X+2438250Y+986849D01*
X+2456849Y+968250D01*
X+2483151Y+968250D01*
X+2501750Y+986849D01*
X+4019549Y+1203495D02*
X+4060995Y+1162049D01*
X+4949995Y+1162049D01*
X+5097338Y+1014706D01*
X+5115832Y+1033199D01*
X+5284168Y+1033199D01*
X+5403199Y+914168D01*
X+5403199Y+745832D01*
X+5284168Y+626801D01*
X+5162549Y+626801D01*
X+5162549Y+377995D01*
X+5429250Y+111294D01*
X+5466005Y+148049D01*
X+5784998Y+148049D01*
X+5892949Y+256000D01*
X+5765201Y+383748D01*
X+5765201Y+636252D01*
X+5943748Y+814799D01*
X+6196252Y+814799D01*
X+6350904Y+660147D01*
X+6354501Y+1095450D01*
X+6196252Y+937201D01*
X+5943748Y+937201D01*
X+5784998Y+1095951D01*
X+5043505Y+1095951D01*
X+4436655Y+1702801D01*
X+4355832Y+1702801D01*
X+4298682Y+1759951D01*
X+4067005Y+1759951D01*
X+4019549Y+1807407D01*
X+4019549Y+1203495D01*
X+5564272Y-166772D02*
X+5543549Y-187495D01*
X+5543549Y-377995D01*
X+5419456Y-502088D01*
X+5433199Y-515832D01*
X+5433199Y-684168D01*
X+5314168Y-803199D01*
X+5254723Y-803199D01*
X+5313125Y-861601D01*
X+5775201Y-861601D01*
X+5775201Y-633748D01*
X+5953748Y-455201D01*
X+6206252Y-455201D01*
X+6340576Y-589525D01*
X+6344168Y-154883D01*
X+6196252Y-302799D01*
X+5943748Y-302799D01*
X+5784998Y-144049D01*
X+5586995Y-144049D01*
X+5564272Y-166772D01*
X+2242049Y-1712152D02*
X+2646698Y-2116801D01*
X+2727521Y-2116801D01*
X+2846552Y-2235832D01*
X+2846552Y-2404168D01*
X+2789402Y-2461318D01*
X+2789402Y-2484682D01*
X+2900552Y-2595832D01*
X+2900552Y-2764168D01*
X+2781521Y-2883199D01*
X+2613185Y-2883199D01*
X+2494154Y-2764168D01*
X+2494154Y-2595832D01*
X+2497304Y-2592682D01*
X+2497304Y-2461318D01*
X+2440154Y-2404168D01*
X+2440154Y-2323345D01*
X+1957906Y-1841097D01*
X+1828934Y-1841097D01*
X+1709903Y-1722066D01*
X+1709903Y-1553730D01*
X+1767053Y-1496580D01*
X+1767053Y-1475216D01*
X+1703903Y-1412066D01*
X+1703903Y-1243730D01*
X+1761053Y-1186580D01*
X+1761053Y-631995D01*
X+1734049Y-604991D01*
X+1734049Y-691495D01*
X+1094301Y-1331243D01*
X+1094301Y-1412066D01*
X+1026469Y-1479898D01*
X+1100301Y-1553730D01*
X+1100301Y-1634553D01*
X+2367699Y-2901951D01*
X+3266907Y-2901951D01*
X+3219451Y-2854495D01*
X+3219451Y-1035049D01*
X+3114505Y-1035049D01*
X+3028951Y-949495D01*
X+3028951Y-930450D01*
X+2940049Y-930450D01*
X+2940049Y-1540052D01*
X+3062168Y-1540052D01*
X+3181199Y-1659083D01*
X+3181199Y-1827419D01*
X+3062168Y-1946450D01*
X+2893832Y-1946450D01*
X+2836682Y-1889300D01*
X+2750109Y-1889300D01*
X+2737412Y-1876602D01*
X+2684168Y-1929846D01*
X+2515832Y-1929846D01*
X+2396801Y-1810815D01*
X+2396801Y-1642479D01*
X+2515832Y-1523448D01*
X+2596655Y-1523448D01*
X+2647951Y-1472152D01*
X+2647951Y-913846D01*
X+2515832Y-913846D01*
X+2396801Y-794815D01*
X+2396801Y-626479D01*
X+2487868Y-535412D01*
X+2457951Y-505495D01*
X+2457951Y-389416D01*
X+2434168Y-413199D01*
X+2265832Y-413199D01*
X+2242049Y-389416D01*
X+2242049Y-1712152D01*
X+5433199Y-2064168D02*
X+5314168Y-2183199D01*
X+5145832Y-2183199D01*
X+5032000Y-2069367D01*
X+4924168Y-2177199D01*
X+4755832Y-2177199D01*
X+4685032Y-2106399D01*
X+4614968Y-2106399D01*
X+4564168Y-2157199D01*
X+4395832Y-2157199D01*
X+4289682Y-2051049D01*
X+3623756Y-2051049D01*
X+3518655Y-1945948D01*
X+3511549Y-1945948D01*
X+3511549Y-2180437D01*
X+3575185Y-2116801D01*
X+3743521Y-2116801D01*
X+3862552Y-2235832D01*
X+3862552Y-2404168D01*
X+3789919Y-2476801D01*
X+3797521Y-2476801D01*
X+3854671Y-2533951D01*
X+4250495Y-2533951D01*
X+4360250Y-2643706D01*
X+4362451Y-2641505D01*
X+4362451Y-2416005D01*
X+4448005Y-2330451D01*
X+5394495Y-2330451D01*
X+5455995Y-2391951D01*
X+5814998Y-2391951D01*
X+5922949Y-2284000D01*
X+5795201Y-2156252D01*
X+5795201Y-1930399D01*
X+5433199Y-1930399D01*
X+5433199Y-2064168D01*
X-969456Y-194000D02*
X-869951Y-293505D01*
X-869951Y-726907D01*
X-758995Y-615951D01*
X-533416Y-615951D01*
X-617199Y-532168D01*
X-617199Y-363832D01*
X-574367Y-321000D01*
X-617199Y-278168D01*
X-617199Y+107951D01*
X-667506Y+107951D01*
X-969456Y-194000D01*
X+6344799Y+3092000D02*
X+6040000Y+3092000D01*
X+5735201Y+3092000D02*
X+6040000Y+3092000D01*
X+6040000Y+2787201D02*
X+6040000Y+3092000D01*
X+2350000Y-6801D02*
X+2350000Y-210000D01*
X+2350000Y-413199D02*
X+2350000Y-210000D01*
X+5765201Y+1750000D02*
X+6070000Y+1750000D01*
X+6070000Y+2054799D02*
X+6070000Y+1750000D01*
X+5765201Y+510000D02*
X+6070000Y+510000D01*
X+6070000Y+814799D02*
X+6070000Y+510000D01*
X+5775201Y-760000D02*
X+6080000Y-760000D01*
X+6080000Y-455201D02*
X+6080000Y-760000D01*
X+6404799Y-2030000D02*
X+6100000Y-2030000D01*
X+5795201Y-2030000D02*
X+6100000Y-2030000D01*
X+1848101Y-3470000D02*
X+2064000Y-3470000D01*
X+5170000Y+3119199D02*
X+5170000Y+2916000D01*
X+5373199Y+2916000D02*
X+5170000Y+2916000D01*
X+5200000Y+1033199D02*
X+5200000Y+830000D01*
X+5200000Y+626801D02*
X+5200000Y+830000D01*
X+5403199Y+830000D02*
X+5200000Y+830000D01*
X+5433199Y-600000D02*
X+5230000Y-600000D01*
X+5230000Y-2183199D02*
X+5230000Y-1980000D01*
X+5433199Y-1980000D02*
X+5230000Y-1980000D01*
X+3862552Y-2320000D02*
X+3659353Y-2320000D01*
X+3659353Y-2116801D02*
X+3659353Y-2320000D01*
X+2310000Y+1450699D02*
X+2310000Y+1247500D01*
X+2513199Y+1247500D02*
X+2310000Y+1247500D01*
X+2600000Y-913846D02*
X+2600000Y-710647D01*
X+2396801Y-710647D02*
X+2600000Y-710647D01*
X+25199Y+3126000D02*
X-178000Y+3126000D01*
X-2260000Y-1721899D02*
X-2260000Y-1506000D01*
X-2475899Y-1506000D02*
X-2260000Y-1506000D01*
X-2475899Y-1252000D02*
X-2260000Y-1252000D01*
X+275199Y+1216000D02*
X+72000Y+1216000D01*
X-210801Y-194000D02*
X-414000Y-194000D01*
X-617199Y-194000D02*
X-414000Y-194000D01*
X-210801Y-1524000D02*
X-414000Y-1524000D01*
D15*
X+6040000Y+3092000D03*
X+6040000Y+3600000D03*
D16*
X+5180000Y+3600000D03*
X+4418000Y+3600000D03*
D17*
X+1588000Y+552000D03*
D16*
X+1842000Y+552000D03*
X+2096000Y+552000D03*
X+2350000Y+552000D03*
X+2604000Y+552000D03*
X+2858000Y+552000D03*
X+3112000Y+552000D03*
X+3112000Y-210000D03*
X+2858000Y-210000D03*
X+2604000Y-210000D03*
X+2350000Y-210000D03*
X+2096000Y-210000D03*
X+1842000Y-210000D03*
X+1588000Y-210000D03*
D15*
X+6070000Y+1242000D03*
X+6070000Y+1750000D03*
X+6070000Y+2000D03*
X+6070000Y+510000D03*
D18*
X-2190000Y+2672000D03*
X-2190000Y+2418000D03*
X-2190000Y+2164000D03*
X-2190000Y+1910000D03*
X-2190000Y+1656000D03*
X-2190000Y+1402000D03*
D15*
X+6080000Y-1268000D03*
X+6080000Y-760000D03*
X+6100000Y-2538000D03*
X+6100000Y-2030000D03*
D18*
X+3334000Y-3470000D03*
X+3080000Y-3470000D03*
X+2826000Y-3470000D03*
X+2572000Y-3470000D03*
X+2318000Y-3470000D03*
X+2064000Y-3470000D03*
D16*
X+4800000Y+1906000D03*
X+4800000Y+2922000D03*
X+4440000Y+1906000D03*
X+4440000Y+2922000D03*
X+5170000Y+2916000D03*
X+5170000Y+1900000D03*
X+4480000Y-150000D03*
X+4480000Y+866000D03*
X+5200000Y+830000D03*
X+5200000Y-186000D03*
X+2720000Y+1210000D03*
X+2720000Y+2226000D03*
X+4850000Y-1630000D03*
X+4850000Y-614000D03*
X+4500000Y-1620000D03*
X+4500000Y-604000D03*
X+5230000Y-600000D03*
X+5230000Y-1616000D03*
X+4840000Y-2990000D03*
X+4840000Y-1974000D03*
X+4480000Y-2970000D03*
X+4480000Y-1954000D03*
X+5230000Y-1980000D03*
X+5230000Y-2996000D03*
X+3713353Y-2680000D03*
X+2697353Y-2680000D03*
X+897102Y-1637898D03*
X+1913102Y-1637898D03*
X+2643353Y-2320000D03*
X+3659353Y-2320000D03*
X+1907102Y-1327898D03*
X+891102Y-1327898D03*
X+3580000Y+3780000D03*
X+3580000Y+2764000D03*
X+2950000Y+3770000D03*
X+2950000Y+2754000D03*
X+3220000Y+2760000D03*
X+3220000Y+3776000D03*
X+2630000Y+2770000D03*
X+2630000Y+3786000D03*
X+4810000Y-190000D03*
X+4810000Y+826000D03*
X+3580000Y+1173500D03*
X+3580000Y+2189500D03*
X+2310000Y+2263500D03*
X+2310000Y+1247500D03*
X+3180000Y+2193500D03*
X+3180000Y+1177500D03*
X+2978000Y-727251D03*
X+2978000Y-1743251D03*
X+3522000Y-1742749D03*
X+3522000Y-726749D03*
X+2600000Y-1726647D03*
X+2600000Y-710647D03*
X+3828000Y-1747251D03*
X+3828000Y-731251D03*
D17*
X-178000Y+3380000D03*
D16*
X-178000Y+3126000D03*
X-178000Y+2872000D03*
X-940000Y+2872000D03*
X-940000Y+3126000D03*
X-940000Y+3380000D03*
D18*
X-2260000Y-1506000D03*
X-2260000Y-1252000D03*
X-2260000Y-998000D03*
X-2260000Y-744000D03*
X-2260000Y-490000D03*
X-2260000Y-236000D03*
D16*
X+412000Y+2350000D03*
X+412000Y+3366000D03*
X-1378000Y+2540000D03*
X-1378000Y+3556000D03*
X+422000Y+460000D03*
X+422000Y+1476000D03*
D17*
X+72000Y+1470000D03*
D16*
X+72000Y+1216000D03*
X+72000Y+962000D03*
X-690000Y+962000D03*
X-690000Y+1216000D03*
X-690000Y+1470000D03*
D17*
X-414000Y+60000D03*
D16*
X-414000Y-194000D03*
X-414000Y-448000D03*
X-1176000Y-448000D03*
X-1176000Y-194000D03*
X-1176000Y+60000D03*
D17*
X-414000Y-1270000D03*
D16*
X-414000Y-1524000D03*
X-414000Y-1778000D03*
X-1176000Y-1778000D03*
X-1176000Y-1524000D03*
X-1176000Y-1270000D03*
X-1268000Y+1710000D03*
X-1268000Y+694000D03*
X+76000Y-960000D03*
X+76000Y+56000D03*
X-1724000Y+330000D03*
X-1724000Y-686000D03*
X+106000Y-2420000D03*
X+106000Y-1404000D03*
X-1694000Y-2340000D03*
X-1694000Y-1324000D03*
D19*
X-2790000Y-3810000D02*
X+6770000Y-3810000D01*
X+6770000Y+4010000D01*
X-2790000Y+4010000D01*
X-2790000Y-3810000D01*
D70*
X-2267760Y-3736590D02*
X-2196640Y-3736590D01*
X-1881680Y-3736590D02*
X-1800400Y-3736590D01*
X-2288080Y-3731510D02*
X-2171240Y-3731510D01*
X-1902000Y-3731510D02*
X-1775000Y-3731510D01*
X-2303320Y-3726430D02*
X-2156000Y-3726430D01*
X-1922320Y-3726430D02*
X-1759760Y-3726430D01*
X-1597200Y-3726430D02*
X-1500680Y-3726430D01*
X-1383840Y-3726430D02*
X-1277160Y-3726430D01*
X-1200960Y-3726430D02*
X-931720Y-3726430D01*
X-901240Y-3726430D02*
X-784400Y-3726430D01*
X-708200Y-3726430D02*
X-591360Y-3726430D01*
X-398320Y-3726430D02*
X-98600Y-3726430D01*
X-2313480Y-3721350D02*
X-2140760Y-3721350D01*
X-1932480Y-3721350D02*
X-1749600Y-3721350D01*
X-1597200Y-3721350D02*
X-1500680Y-3721350D01*
X-1383840Y-3721350D02*
X-1277160Y-3721350D01*
X-1200960Y-3721350D02*
X-931720Y-3721350D01*
X-901240Y-3721350D02*
X-784400Y-3721350D01*
X-708200Y-3721350D02*
X-591360Y-3721350D01*
X-398320Y-3721350D02*
X-98600Y-3721350D01*
X-2323640Y-3716270D02*
X-2130600Y-3716270D01*
X-1942640Y-3716270D02*
X-1739440Y-3716270D01*
X-1597200Y-3716270D02*
X-1500680Y-3716270D01*
X-1388920Y-3716270D02*
X-1277160Y-3716270D01*
X-1200960Y-3716270D02*
X-931720Y-3716270D01*
X-901240Y-3716270D02*
X-784400Y-3716270D01*
X-708200Y-3716270D02*
X-591360Y-3716270D01*
X-398320Y-3716270D02*
X-98600Y-3716270D01*
X-2333800Y-3711190D02*
X-2125520Y-3711190D01*
X-1947720Y-3711190D02*
X-1734360Y-3711190D01*
X-1597200Y-3711190D02*
X-1500680Y-3711190D01*
X-1388920Y-3711190D02*
X-1277160Y-3711190D01*
X-1200960Y-3711190D02*
X-931720Y-3711190D01*
X-901240Y-3711190D02*
X-784400Y-3711190D01*
X-708200Y-3711190D02*
X-591360Y-3711190D01*
X-398320Y-3711190D02*
X-98600Y-3711190D01*
X-2338880Y-3706110D02*
X-2115360Y-3706110D01*
X-1952800Y-3706110D02*
X-1729280Y-3706110D01*
X-1597200Y-3706110D02*
X-1500680Y-3706110D01*
X-1388920Y-3706110D02*
X-1277160Y-3706110D01*
X-1200960Y-3706110D02*
X-931720Y-3706110D01*
X-901240Y-3706110D02*
X-784400Y-3706110D01*
X-708200Y-3706110D02*
X-591360Y-3706110D01*
X-398320Y-3706110D02*
X-98600Y-3706110D01*
X-2343960Y-3701030D02*
X-2110280Y-3701030D01*
X-1957880Y-3701030D02*
X-1719120Y-3701030D01*
X-1597200Y-3701030D02*
X-1500680Y-3701030D01*
X-1394000Y-3701030D02*
X-1277160Y-3701030D01*
X-1200960Y-3701030D02*
X-931720Y-3701030D01*
X-901240Y-3701030D02*
X-784400Y-3701030D01*
X-708200Y-3701030D02*
X-591360Y-3701030D01*
X-398320Y-3701030D02*
X-98600Y-3701030D01*
X-2349040Y-3695950D02*
X-2105200Y-3695950D01*
X-1962960Y-3695950D02*
X-1714040Y-3695950D01*
X-1597200Y-3695950D02*
X-1500680Y-3695950D01*
X-1394000Y-3695950D02*
X-1277160Y-3695950D01*
X-1200960Y-3695950D02*
X-931720Y-3695950D01*
X-901240Y-3695950D02*
X-784400Y-3695950D01*
X-708200Y-3695950D02*
X-591360Y-3695950D01*
X-398320Y-3695950D02*
X-98600Y-3695950D01*
X-2354120Y-3690870D02*
X-2100120Y-3690870D01*
X-1968040Y-3690870D02*
X-1708960Y-3690870D01*
X-1597200Y-3690870D02*
X-1500680Y-3690870D01*
X-1399080Y-3690870D02*
X-1277160Y-3690870D01*
X-1200960Y-3690870D02*
X-931720Y-3690870D01*
X-901240Y-3690870D02*
X-784400Y-3690870D01*
X-708200Y-3690870D02*
X-591360Y-3690870D01*
X-398320Y-3690870D02*
X-98600Y-3690870D01*
X-2359200Y-3685790D02*
X-2095040Y-3685790D01*
X-1973120Y-3685790D02*
X-1703880Y-3685790D01*
X-1597200Y-3685790D02*
X-1500680Y-3685790D01*
X-1399080Y-3685790D02*
X-1277160Y-3685790D01*
X-1200960Y-3685790D02*
X-931720Y-3685790D01*
X-901240Y-3685790D02*
X-784400Y-3685790D01*
X-708200Y-3685790D02*
X-591360Y-3685790D01*
X-398320Y-3685790D02*
X-98600Y-3685790D01*
X-2364280Y-3680710D02*
X-2089960Y-3680710D01*
X-1978200Y-3680710D02*
X-1703880Y-3680710D01*
X-1597200Y-3680710D02*
X-1500680Y-3680710D01*
X-1399080Y-3680710D02*
X-1277160Y-3680710D01*
X-1200960Y-3680710D02*
X-931720Y-3680710D01*
X-901240Y-3680710D02*
X-784400Y-3680710D01*
X-708200Y-3680710D02*
X-591360Y-3680710D01*
X-398320Y-3680710D02*
X-98600Y-3680710D01*
X-2369360Y-3675630D02*
X-2084880Y-3675630D01*
X-1978200Y-3675630D02*
X-1698800Y-3675630D01*
X-1597200Y-3675630D02*
X-1500680Y-3675630D01*
X-1404160Y-3675630D02*
X-1277160Y-3675630D01*
X-1200960Y-3675630D02*
X-931720Y-3675630D01*
X-901240Y-3675630D02*
X-784400Y-3675630D01*
X-708200Y-3675630D02*
X-591360Y-3675630D01*
X-398320Y-3675630D02*
X-98600Y-3675630D01*
X-2369360Y-3670550D02*
X-2079800Y-3670550D01*
X-1983280Y-3670550D02*
X-1693720Y-3670550D01*
X-1597200Y-3670550D02*
X-1500680Y-3670550D01*
X-1404160Y-3670550D02*
X-1277160Y-3670550D01*
X-1200960Y-3670550D02*
X-931720Y-3670550D01*
X-901240Y-3670550D02*
X-784400Y-3670550D01*
X-708200Y-3670550D02*
X-591360Y-3670550D01*
X-398320Y-3670550D02*
X-98600Y-3670550D01*
X-2374440Y-3665470D02*
X-2079800Y-3665470D01*
X-1983280Y-3665470D02*
X-1693720Y-3665470D01*
X-1597200Y-3665470D02*
X-1500680Y-3665470D01*
X-1404160Y-3665470D02*
X-1277160Y-3665470D01*
X-1200960Y-3665470D02*
X-931720Y-3665470D01*
X-901240Y-3665470D02*
X-784400Y-3665470D01*
X-708200Y-3665470D02*
X-591360Y-3665470D01*
X-398320Y-3665470D02*
X-98600Y-3665470D01*
X-2374440Y-3660390D02*
X-2074720Y-3660390D01*
X-1988360Y-3660390D02*
X-1688640Y-3660390D01*
X-1597200Y-3660390D02*
X-1500680Y-3660390D01*
X-1409240Y-3660390D02*
X-1277160Y-3660390D01*
X-1200960Y-3660390D02*
X-931720Y-3660390D01*
X-901240Y-3660390D02*
X-784400Y-3660390D01*
X-708200Y-3660390D02*
X-591360Y-3660390D01*
X-398320Y-3660390D02*
X-98600Y-3660390D01*
X-2379520Y-3655310D02*
X-2069640Y-3655310D01*
X-1988360Y-3655310D02*
X-1688640Y-3655310D01*
X-1597200Y-3655310D02*
X-1500680Y-3655310D01*
X-1409240Y-3655310D02*
X-1277160Y-3655310D01*
X-1200960Y-3655310D02*
X-931720Y-3655310D01*
X-901240Y-3655310D02*
X-784400Y-3655310D01*
X-708200Y-3655310D02*
X-591360Y-3655310D01*
X-398320Y-3655310D02*
X-98600Y-3655310D01*
X-2384600Y-3650230D02*
X-2069640Y-3650230D01*
X-1993440Y-3650230D02*
X-1683560Y-3650230D01*
X-1597200Y-3650230D02*
X-1500680Y-3650230D01*
X-1409240Y-3650230D02*
X-1277160Y-3650230D01*
X-1200960Y-3650230D02*
X-931720Y-3650230D01*
X-901240Y-3650230D02*
X-784400Y-3650230D01*
X-708200Y-3650230D02*
X-591360Y-3650230D01*
X-398320Y-3650230D02*
X-98600Y-3650230D01*
X-2384600Y-3645150D02*
X-2247440Y-3645150D01*
X-2206800Y-3645150D02*
X-2064560Y-3645150D01*
X-1993440Y-3645150D02*
X-1846120Y-3645150D01*
X-1810560Y-3645150D02*
X-1683560Y-3645150D01*
X-1597200Y-3645150D02*
X-1500680Y-3645150D01*
X-1414320Y-3645150D02*
X-1277160Y-3645150D01*
X-1200960Y-3645150D02*
X-931720Y-3645150D01*
X-901240Y-3645150D02*
X-784400Y-3645150D01*
X-708200Y-3645150D02*
X-591360Y-3645150D01*
X-398320Y-3645150D02*
X-98600Y-3645150D01*
X-2389680Y-3640070D02*
X-2257600Y-3640070D01*
X-2196640Y-3640070D02*
X-2064560Y-3640070D01*
X-1993440Y-3640070D02*
X-1861360Y-3640070D01*
X-1795320Y-3640070D02*
X-1683560Y-3640070D01*
X-1597200Y-3640070D02*
X-1500680Y-3640070D01*
X-1414320Y-3640070D02*
X-1277160Y-3640070D01*
X-1200960Y-3640070D02*
X-931720Y-3640070D01*
X-901240Y-3640070D02*
X-784400Y-3640070D01*
X-708200Y-3640070D02*
X-591360Y-3640070D01*
X-398320Y-3640070D02*
X-98600Y-3640070D01*
X-2389680Y-3634990D02*
X-2262680Y-3634990D01*
X-2186480Y-3634990D02*
X-2064560Y-3634990D01*
X-1993440Y-3634990D02*
X-1866440Y-3634990D01*
X-1790240Y-3634990D02*
X-1683560Y-3634990D01*
X-1597200Y-3634990D02*
X-1500680Y-3634990D01*
X-1414320Y-3634990D02*
X-1277160Y-3634990D01*
X-1200960Y-3634990D02*
X-931720Y-3634990D01*
X-901240Y-3634990D02*
X-784400Y-3634990D01*
X-708200Y-3634990D02*
X-591360Y-3634990D01*
X-398320Y-3634990D02*
X-281480Y-3634990D01*
X-2389680Y-3629910D02*
X-2267760Y-3629910D01*
X-2181400Y-3629910D02*
X-2059480Y-3629910D01*
X-1998520Y-3629910D02*
X-1871520Y-3629910D01*
X-1785160Y-3629910D02*
X-1678480Y-3629910D01*
X-1597200Y-3629910D02*
X-1500680Y-3629910D01*
X-1419400Y-3629910D02*
X-1277160Y-3629910D01*
X-1200960Y-3629910D02*
X-1084120Y-3629910D01*
X-901240Y-3629910D02*
X-784400Y-3629910D01*
X-708200Y-3629910D02*
X-591360Y-3629910D01*
X-398320Y-3629910D02*
X-281480Y-3629910D01*
X-2394760Y-3624830D02*
X-2272840Y-3624830D01*
X-2176320Y-3624830D02*
X-2059480Y-3624830D01*
X-1998520Y-3624830D02*
X-1876600Y-3624830D01*
X-1780080Y-3624830D02*
X-1678480Y-3624830D01*
X-1597200Y-3624830D02*
X-1500680Y-3624830D01*
X-1419400Y-3624830D02*
X-1277160Y-3624830D01*
X-1200960Y-3624830D02*
X-1084120Y-3624830D01*
X-901240Y-3624830D02*
X-784400Y-3624830D01*
X-708200Y-3624830D02*
X-591360Y-3624830D01*
X-398320Y-3624830D02*
X-281480Y-3624830D01*
X-2394760Y-3619750D02*
X-2277920Y-3619750D01*
X-2176320Y-3619750D02*
X-2059480Y-3619750D01*
X-1998520Y-3619750D02*
X-1876600Y-3619750D01*
X-1780080Y-3619750D02*
X-1678480Y-3619750D01*
X-1597200Y-3619750D02*
X-1500680Y-3619750D01*
X-1419400Y-3619750D02*
X-1277160Y-3619750D01*
X-1200960Y-3619750D02*
X-1084120Y-3619750D01*
X-901240Y-3619750D02*
X-784400Y-3619750D01*
X-708200Y-3619750D02*
X-591360Y-3619750D01*
X-398320Y-3619750D02*
X-281480Y-3619750D01*
X-2394760Y-3614670D02*
X-2283000Y-3614670D01*
X-2171240Y-3614670D02*
X-2059480Y-3614670D01*
X-1998520Y-3614670D02*
X-1881680Y-3614670D01*
X-1775000Y-3614670D02*
X-1678480Y-3614670D01*
X-1597200Y-3614670D02*
X-1500680Y-3614670D01*
X-1424480Y-3614670D02*
X-1277160Y-3614670D01*
X-1200960Y-3614670D02*
X-1084120Y-3614670D01*
X-901240Y-3614670D02*
X-784400Y-3614670D01*
X-708200Y-3614670D02*
X-591360Y-3614670D01*
X-398320Y-3614670D02*
X-281480Y-3614670D01*
X-2399840Y-3609590D02*
X-2283000Y-3609590D01*
X-2171240Y-3609590D02*
X-2054400Y-3609590D01*
X-1998520Y-3609590D02*
X-1881680Y-3609590D01*
X-1775000Y-3609590D02*
X-1678480Y-3609590D01*
X-1597200Y-3609590D02*
X-1500680Y-3609590D01*
X-1424480Y-3609590D02*
X-1277160Y-3609590D01*
X-1200960Y-3609590D02*
X-1084120Y-3609590D01*
X-901240Y-3609590D02*
X-784400Y-3609590D01*
X-708200Y-3609590D02*
X-591360Y-3609590D01*
X-398320Y-3609590D02*
X-281480Y-3609590D01*
X-2399840Y-3604510D02*
X-2288080Y-3604510D01*
X-2171240Y-3604510D02*
X-2054400Y-3604510D01*
X-1998520Y-3604510D02*
X-1881680Y-3604510D01*
X-1775000Y-3604510D02*
X-1678480Y-3604510D01*
X-1597200Y-3604510D02*
X-1500680Y-3604510D01*
X-1424480Y-3604510D02*
X-1277160Y-3604510D01*
X-1200960Y-3604510D02*
X-1084120Y-3604510D01*
X-901240Y-3604510D02*
X-784400Y-3604510D01*
X-708200Y-3604510D02*
X-591360Y-3604510D01*
X-398320Y-3604510D02*
X-281480Y-3604510D01*
X-2384600Y-3599430D02*
X-2288080Y-3599430D01*
X-2171240Y-3599430D02*
X-2054400Y-3599430D01*
X-1998520Y-3599430D02*
X-1881680Y-3599430D01*
X-1775000Y-3599430D02*
X-1678480Y-3599430D01*
X-1597200Y-3599430D02*
X-1500680Y-3599430D01*
X-1429560Y-3599430D02*
X-1277160Y-3599430D01*
X-1200960Y-3599430D02*
X-1084120Y-3599430D01*
X-901240Y-3599430D02*
X-784400Y-3599430D01*
X-708200Y-3599430D02*
X-591360Y-3599430D01*
X-398320Y-3599430D02*
X-281480Y-3599430D01*
X-2364280Y-3594350D02*
X-2288080Y-3594350D01*
X-2171240Y-3594350D02*
X-2054400Y-3594350D01*
X-1998520Y-3594350D02*
X-1881680Y-3594350D01*
X-1769920Y-3594350D02*
X-1678480Y-3594350D01*
X-1597200Y-3594350D02*
X-1500680Y-3594350D01*
X-1429560Y-3594350D02*
X-1277160Y-3594350D01*
X-1200960Y-3594350D02*
X-1084120Y-3594350D01*
X-901240Y-3594350D02*
X-784400Y-3594350D01*
X-708200Y-3594350D02*
X-591360Y-3594350D01*
X-398320Y-3594350D02*
X-281480Y-3594350D01*
X-2343960Y-3589270D02*
X-2293160Y-3589270D01*
X-2171240Y-3589270D02*
X-2054400Y-3589270D01*
X-2003600Y-3589270D02*
X-1886760Y-3589270D01*
X-1769920Y-3589270D02*
X-1673400Y-3589270D01*
X-1597200Y-3589270D02*
X-1500680Y-3589270D01*
X-1429560Y-3589270D02*
X-1277160Y-3589270D01*
X-1200960Y-3589270D02*
X-1084120Y-3589270D01*
X-901240Y-3589270D02*
X-784400Y-3589270D01*
X-708200Y-3589270D02*
X-591360Y-3589270D01*
X-398320Y-3589270D02*
X-281480Y-3589270D01*
X-2323640Y-3584190D02*
X-2293160Y-3584190D01*
X-2176320Y-3584190D02*
X-2054400Y-3584190D01*
X-2003600Y-3584190D02*
X-1886760Y-3584190D01*
X-1769920Y-3584190D02*
X-1673400Y-3584190D01*
X-1597200Y-3584190D02*
X-1500680Y-3584190D01*
X-1434640Y-3584190D02*
X-1277160Y-3584190D01*
X-1200960Y-3584190D02*
X-1084120Y-3584190D01*
X-901240Y-3584190D02*
X-784400Y-3584190D01*
X-708200Y-3584190D02*
X-591360Y-3584190D01*
X-398320Y-3584190D02*
X-281480Y-3584190D01*
X-2303320Y-3579110D02*
X-2293160Y-3579110D01*
X-2176320Y-3579110D02*
X-2054400Y-3579110D01*
X-2003600Y-3579110D02*
X-1886760Y-3579110D01*
X-1769920Y-3579110D02*
X-1673400Y-3579110D01*
X-1597200Y-3579110D02*
X-1500680Y-3579110D01*
X-1434640Y-3579110D02*
X-1277160Y-3579110D01*
X-1200960Y-3579110D02*
X-1084120Y-3579110D01*
X-901240Y-3579110D02*
X-784400Y-3579110D01*
X-708200Y-3579110D02*
X-591360Y-3579110D01*
X-398320Y-3579110D02*
X-281480Y-3579110D01*
X-2181400Y-3574030D02*
X-2054400Y-3574030D01*
X-2003600Y-3574030D02*
X-1886760Y-3574030D01*
X-1769920Y-3574030D02*
X-1673400Y-3574030D01*
X-1597200Y-3574030D02*
X-1500680Y-3574030D01*
X-1439720Y-3574030D02*
X-1277160Y-3574030D01*
X-1200960Y-3574030D02*
X-1084120Y-3574030D01*
X-901240Y-3574030D02*
X-784400Y-3574030D01*
X-708200Y-3574030D02*
X-591360Y-3574030D01*
X-398320Y-3574030D02*
X-281480Y-3574030D01*
X-2181400Y-3568950D02*
X-2054400Y-3568950D01*
X-2003600Y-3568950D02*
X-1886760Y-3568950D01*
X-1769920Y-3568950D02*
X-1673400Y-3568950D01*
X-1597200Y-3568950D02*
X-1500680Y-3568950D01*
X-1439720Y-3568950D02*
X-1277160Y-3568950D01*
X-1200960Y-3568950D02*
X-1084120Y-3568950D01*
X-901240Y-3568950D02*
X-784400Y-3568950D01*
X-708200Y-3568950D02*
X-591360Y-3568950D01*
X-398320Y-3568950D02*
X-281480Y-3568950D01*
X-2191560Y-3563870D02*
X-2054400Y-3563870D01*
X-2003600Y-3563870D02*
X-1886760Y-3563870D01*
X-1769920Y-3563870D02*
X-1673400Y-3563870D01*
X-1597200Y-3563870D02*
X-1500680Y-3563870D01*
X-1439720Y-3563870D02*
X-1277160Y-3563870D01*
X-1200960Y-3563870D02*
X-1084120Y-3563870D01*
X-901240Y-3563870D02*
X-784400Y-3563870D01*
X-708200Y-3563870D02*
X-591360Y-3563870D01*
X-398320Y-3563870D02*
X-281480Y-3563870D01*
X-2196640Y-3558790D02*
X-2054400Y-3558790D01*
X-2003600Y-3558790D02*
X-1886760Y-3558790D01*
X-1769920Y-3558790D02*
X-1673400Y-3558790D01*
X-1597200Y-3558790D02*
X-1500680Y-3558790D01*
X-1444800Y-3558790D02*
X-1277160Y-3558790D01*
X-1200960Y-3558790D02*
X-1084120Y-3558790D01*
X-901240Y-3558790D02*
X-784400Y-3558790D01*
X-708200Y-3558790D02*
X-591360Y-3558790D01*
X-398320Y-3558790D02*
X-281480Y-3558790D01*
X-2206800Y-3553710D02*
X-2059480Y-3553710D01*
X-2003600Y-3553710D02*
X-1886760Y-3553710D01*
X-1769920Y-3553710D02*
X-1673400Y-3553710D01*
X-1597200Y-3553710D02*
X-1500680Y-3553710D01*
X-1444800Y-3553710D02*
X-1277160Y-3553710D01*
X-1200960Y-3553710D02*
X-1084120Y-3553710D01*
X-901240Y-3553710D02*
X-784400Y-3553710D01*
X-708200Y-3553710D02*
X-591360Y-3553710D01*
X-398320Y-3553710D02*
X-281480Y-3553710D01*
X-2222040Y-3548630D02*
X-2059480Y-3548630D01*
X-2003600Y-3548630D02*
X-1886760Y-3548630D01*
X-1769920Y-3548630D02*
X-1673400Y-3548630D01*
X-1597200Y-3548630D02*
X-1500680Y-3548630D01*
X-1444800Y-3548630D02*
X-1277160Y-3548630D01*
X-1200960Y-3548630D02*
X-1084120Y-3548630D01*
X-901240Y-3548630D02*
X-784400Y-3548630D01*
X-708200Y-3548630D02*
X-591360Y-3548630D01*
X-398320Y-3548630D02*
X-281480Y-3548630D01*
X-2232200Y-3543550D02*
X-2059480Y-3543550D01*
X-2003600Y-3543550D02*
X-1886760Y-3543550D01*
X-1769920Y-3543550D02*
X-1673400Y-3543550D01*
X-1597200Y-3543550D02*
X-1500680Y-3543550D01*
X-1449880Y-3543550D02*
X-1277160Y-3543550D01*
X-1200960Y-3543550D02*
X-1084120Y-3543550D01*
X-901240Y-3543550D02*
X-784400Y-3543550D01*
X-708200Y-3543550D02*
X-459280Y-3543550D01*
X-398320Y-3543550D02*
X-281480Y-3543550D01*
X-2247440Y-3538470D02*
X-2059480Y-3538470D01*
X-2003600Y-3538470D02*
X-1886760Y-3538470D01*
X-1769920Y-3538470D02*
X-1673400Y-3538470D01*
X-1597200Y-3538470D02*
X-1500680Y-3538470D01*
X-1449880Y-3538470D02*
X-1277160Y-3538470D01*
X-1200960Y-3538470D02*
X-1084120Y-3538470D01*
X-901240Y-3538470D02*
X-784400Y-3538470D01*
X-708200Y-3538470D02*
X-459280Y-3538470D01*
X-398320Y-3538470D02*
X-281480Y-3538470D01*
X-2262680Y-3533390D02*
X-2064560Y-3533390D01*
X-2003600Y-3533390D02*
X-1886760Y-3533390D01*
X-1769920Y-3533390D02*
X-1673400Y-3533390D01*
X-1597200Y-3533390D02*
X-1500680Y-3533390D01*
X-1449880Y-3533390D02*
X-1378760Y-3533390D01*
X-1373680Y-3533390D02*
X-1277160Y-3533390D01*
X-1200960Y-3533390D02*
X-1084120Y-3533390D01*
X-901240Y-3533390D02*
X-784400Y-3533390D01*
X-708200Y-3533390D02*
X-459280Y-3533390D01*
X-398320Y-3533390D02*
X-281480Y-3533390D01*
X-2272840Y-3528310D02*
X-2064560Y-3528310D01*
X-2003600Y-3528310D02*
X-1886760Y-3528310D01*
X-1769920Y-3528310D02*
X-1673400Y-3528310D01*
X-1597200Y-3528310D02*
X-1500680Y-3528310D01*
X-1454960Y-3528310D02*
X-1378760Y-3528310D01*
X-1373680Y-3528310D02*
X-1277160Y-3528310D01*
X-1200960Y-3528310D02*
X-1084120Y-3528310D01*
X-901240Y-3528310D02*
X-784400Y-3528310D01*
X-708200Y-3528310D02*
X-459280Y-3528310D01*
X-398320Y-3528310D02*
X-139240Y-3528310D01*
X-2283000Y-3523230D02*
X-2064560Y-3523230D01*
X-2003600Y-3523230D02*
X-1886760Y-3523230D01*
X-1769920Y-3523230D02*
X-1673400Y-3523230D01*
X-1597200Y-3523230D02*
X-1500680Y-3523230D01*
X-1454960Y-3523230D02*
X-1378760Y-3523230D01*
X-1373680Y-3523230D02*
X-1277160Y-3523230D01*
X-1200960Y-3523230D02*
X-1084120Y-3523230D01*
X-901240Y-3523230D02*
X-784400Y-3523230D01*
X-708200Y-3523230D02*
X-459280Y-3523230D01*
X-398320Y-3523230D02*
X-139240Y-3523230D01*
X-2298240Y-3518150D02*
X-2069640Y-3518150D01*
X-2003600Y-3518150D02*
X-1886760Y-3518150D01*
X-1769920Y-3518150D02*
X-1673400Y-3518150D01*
X-1597200Y-3518150D02*
X-1500680Y-3518150D01*
X-1454960Y-3518150D02*
X-1383840Y-3518150D01*
X-1373680Y-3518150D02*
X-1277160Y-3518150D01*
X-1200960Y-3518150D02*
X-1084120Y-3518150D01*
X-901240Y-3518150D02*
X-784400Y-3518150D01*
X-708200Y-3518150D02*
X-459280Y-3518150D01*
X-398320Y-3518150D02*
X-139240Y-3518150D01*
X-2308400Y-3513070D02*
X-2074720Y-3513070D01*
X-2003600Y-3513070D02*
X-1886760Y-3513070D01*
X-1769920Y-3513070D02*
X-1673400Y-3513070D01*
X-1597200Y-3513070D02*
X-1500680Y-3513070D01*
X-1460040Y-3513070D02*
X-1383840Y-3513070D01*
X-1373680Y-3513070D02*
X-1277160Y-3513070D01*
X-1200960Y-3513070D02*
X-1084120Y-3513070D01*
X-901240Y-3513070D02*
X-784400Y-3513070D01*
X-708200Y-3513070D02*
X-459280Y-3513070D01*
X-398320Y-3513070D02*
X-139240Y-3513070D01*
X-2313480Y-3507990D02*
X-2074720Y-3507990D01*
X-2003600Y-3507990D02*
X-1886760Y-3507990D01*
X-1769920Y-3507990D02*
X-1673400Y-3507990D01*
X-1597200Y-3507990D02*
X-1500680Y-3507990D01*
X-1460040Y-3507990D02*
X-1383840Y-3507990D01*
X-1373680Y-3507990D02*
X-1277160Y-3507990D01*
X-1200960Y-3507990D02*
X-1084120Y-3507990D01*
X-901240Y-3507990D02*
X-784400Y-3507990D01*
X-708200Y-3507990D02*
X-459280Y-3507990D01*
X-398320Y-3507990D02*
X-139240Y-3507990D01*
X-2323640Y-3502910D02*
X-2079800Y-3502910D01*
X-2003600Y-3502910D02*
X-1886760Y-3502910D01*
X-1769920Y-3502910D02*
X-1673400Y-3502910D01*
X-1597200Y-3502910D02*
X-1500680Y-3502910D01*
X-1460040Y-3502910D02*
X-1388920Y-3502910D01*
X-1373680Y-3502910D02*
X-1277160Y-3502910D01*
X-1200960Y-3502910D02*
X-1084120Y-3502910D01*
X-901240Y-3502910D02*
X-784400Y-3502910D01*
X-708200Y-3502910D02*
X-459280Y-3502910D01*
X-398320Y-3502910D02*
X-139240Y-3502910D01*
X-2328720Y-3497830D02*
X-2084880Y-3497830D01*
X-2003600Y-3497830D02*
X-1886760Y-3497830D01*
X-1769920Y-3497830D02*
X-1673400Y-3497830D01*
X-1597200Y-3497830D02*
X-1500680Y-3497830D01*
X-1465120Y-3497830D02*
X-1388920Y-3497830D01*
X-1373680Y-3497830D02*
X-1277160Y-3497830D01*
X-1200960Y-3497830D02*
X-1084120Y-3497830D01*
X-901240Y-3497830D02*
X-784400Y-3497830D01*
X-708200Y-3497830D02*
X-459280Y-3497830D01*
X-398320Y-3497830D02*
X-139240Y-3497830D01*
X-2333800Y-3492750D02*
X-2084880Y-3492750D01*
X-2003600Y-3492750D02*
X-1886760Y-3492750D01*
X-1769920Y-3492750D02*
X-1673400Y-3492750D01*
X-1597200Y-3492750D02*
X-1500680Y-3492750D01*
X-1465120Y-3492750D02*
X-1388920Y-3492750D01*
X-1373680Y-3492750D02*
X-1277160Y-3492750D01*
X-1200960Y-3492750D02*
X-1084120Y-3492750D01*
X-901240Y-3492750D02*
X-784400Y-3492750D01*
X-708200Y-3492750D02*
X-459280Y-3492750D01*
X-398320Y-3492750D02*
X-139240Y-3492750D01*
X-2338880Y-3487670D02*
X-2089960Y-3487670D01*
X-2003600Y-3487670D02*
X-1886760Y-3487670D01*
X-1769920Y-3487670D02*
X-1673400Y-3487670D01*
X-1597200Y-3487670D02*
X-1500680Y-3487670D01*
X-1465120Y-3487670D02*
X-1394000Y-3487670D01*
X-1373680Y-3487670D02*
X-1277160Y-3487670D01*
X-1200960Y-3487670D02*
X-1084120Y-3487670D01*
X-901240Y-3487670D02*
X-784400Y-3487670D01*
X-708200Y-3487670D02*
X-459280Y-3487670D01*
X-398320Y-3487670D02*
X-139240Y-3487670D01*
X-2343960Y-3482590D02*
X-2095040Y-3482590D01*
X-2003600Y-3482590D02*
X-1886760Y-3482590D01*
X-1769920Y-3482590D02*
X-1673400Y-3482590D01*
X-1597200Y-3482590D02*
X-1500680Y-3482590D01*
X-1470200Y-3482590D02*
X-1394000Y-3482590D01*
X-1373680Y-3482590D02*
X-1277160Y-3482590D01*
X-1200960Y-3482590D02*
X-1084120Y-3482590D01*
X-901240Y-3482590D02*
X-784400Y-3482590D01*
X-708200Y-3482590D02*
X-459280Y-3482590D01*
X-398320Y-3482590D02*
X-139240Y-3482590D01*
X-2349040Y-3477510D02*
X-2100120Y-3477510D01*
X-2003600Y-3477510D02*
X-1886760Y-3477510D01*
X-1769920Y-3477510D02*
X-1673400Y-3477510D01*
X-1597200Y-3477510D02*
X-1500680Y-3477510D01*
X-1470200Y-3477510D02*
X-1394000Y-3477510D01*
X-1373680Y-3477510D02*
X-1277160Y-3477510D01*
X-1200960Y-3477510D02*
X-1084120Y-3477510D01*
X-901240Y-3477510D02*
X-784400Y-3477510D01*
X-708200Y-3477510D02*
X-459280Y-3477510D01*
X-398320Y-3477510D02*
X-139240Y-3477510D01*
X-2354120Y-3472430D02*
X-2110280Y-3472430D01*
X-2003600Y-3472430D02*
X-1886760Y-3472430D01*
X-1769920Y-3472430D02*
X-1673400Y-3472430D01*
X-1597200Y-3472430D02*
X-1500680Y-3472430D01*
X-1470200Y-3472430D02*
X-1399080Y-3472430D01*
X-1373680Y-3472430D02*
X-1277160Y-3472430D01*
X-1200960Y-3472430D02*
X-1084120Y-3472430D01*
X-901240Y-3472430D02*
X-784400Y-3472430D01*
X-708200Y-3472430D02*
X-459280Y-3472430D01*
X-398320Y-3472430D02*
X-139240Y-3472430D01*
X-2359200Y-3467350D02*
X-2115360Y-3467350D01*
X-2003600Y-3467350D02*
X-1886760Y-3467350D01*
X-1769920Y-3467350D02*
X-1673400Y-3467350D01*
X-1597200Y-3467350D02*
X-1500680Y-3467350D01*
X-1475280Y-3467350D02*
X-1399080Y-3467350D01*
X-1373680Y-3467350D02*
X-1277160Y-3467350D01*
X-1200960Y-3467350D02*
X-1084120Y-3467350D01*
X-901240Y-3467350D02*
X-784400Y-3467350D01*
X-708200Y-3467350D02*
X-459280Y-3467350D01*
X-398320Y-3467350D02*
X-139240Y-3467350D01*
X-2359200Y-3462270D02*
X-2125520Y-3462270D01*
X-2003600Y-3462270D02*
X-1886760Y-3462270D01*
X-1769920Y-3462270D02*
X-1673400Y-3462270D01*
X-1597200Y-3462270D02*
X-1500680Y-3462270D01*
X-1475280Y-3462270D02*
X-1399080Y-3462270D01*
X-1373680Y-3462270D02*
X-1277160Y-3462270D01*
X-1200960Y-3462270D02*
X-1084120Y-3462270D01*
X-901240Y-3462270D02*
X-784400Y-3462270D01*
X-708200Y-3462270D02*
X-459280Y-3462270D01*
X-398320Y-3462270D02*
X-139240Y-3462270D01*
X-2364280Y-3457190D02*
X-2135680Y-3457190D01*
X-2003600Y-3457190D02*
X-1886760Y-3457190D01*
X-1769920Y-3457190D02*
X-1673400Y-3457190D01*
X-1597200Y-3457190D02*
X-1500680Y-3457190D01*
X-1475280Y-3457190D02*
X-1404160Y-3457190D01*
X-1373680Y-3457190D02*
X-1277160Y-3457190D01*
X-1200960Y-3457190D02*
X-1084120Y-3457190D01*
X-901240Y-3457190D02*
X-784400Y-3457190D01*
X-708200Y-3457190D02*
X-459280Y-3457190D01*
X-398320Y-3457190D02*
X-139240Y-3457190D01*
X-2364280Y-3452110D02*
X-2145840Y-3452110D01*
X-2003600Y-3452110D02*
X-1886760Y-3452110D01*
X-1769920Y-3452110D02*
X-1673400Y-3452110D01*
X-1597200Y-3452110D02*
X-1500680Y-3452110D01*
X-1480360Y-3452110D02*
X-1404160Y-3452110D01*
X-1373680Y-3452110D02*
X-1277160Y-3452110D01*
X-1200960Y-3452110D02*
X-1084120Y-3452110D01*
X-901240Y-3452110D02*
X-784400Y-3452110D01*
X-708200Y-3452110D02*
X-591360Y-3452110D01*
X-398320Y-3452110D02*
X-139240Y-3452110D01*
X-2369360Y-3447030D02*
X-2156000Y-3447030D01*
X-2003600Y-3447030D02*
X-1886760Y-3447030D01*
X-1769920Y-3447030D02*
X-1673400Y-3447030D01*
X-1597200Y-3447030D02*
X-1500680Y-3447030D01*
X-1480360Y-3447030D02*
X-1404160Y-3447030D01*
X-1373680Y-3447030D02*
X-1277160Y-3447030D01*
X-1200960Y-3447030D02*
X-1084120Y-3447030D01*
X-901240Y-3447030D02*
X-784400Y-3447030D01*
X-708200Y-3447030D02*
X-591360Y-3447030D01*
X-398320Y-3447030D02*
X-139240Y-3447030D01*
X-2369360Y-3441950D02*
X-2166160Y-3441950D01*
X-2003600Y-3441950D02*
X-1886760Y-3441950D01*
X-1769920Y-3441950D02*
X-1673400Y-3441950D01*
X-1597200Y-3441950D02*
X-1500680Y-3441950D01*
X-1485440Y-3441950D02*
X-1409240Y-3441950D01*
X-1373680Y-3441950D02*
X-1277160Y-3441950D01*
X-1200960Y-3441950D02*
X-1084120Y-3441950D01*
X-901240Y-3441950D02*
X-784400Y-3441950D01*
X-708200Y-3441950D02*
X-591360Y-3441950D01*
X-398320Y-3441950D02*
X-139240Y-3441950D01*
X-2374440Y-3436870D02*
X-2181400Y-3436870D01*
X-2003600Y-3436870D02*
X-1886760Y-3436870D01*
X-1769920Y-3436870D02*
X-1673400Y-3436870D01*
X-1597200Y-3436870D02*
X-1500680Y-3436870D01*
X-1485440Y-3436870D02*
X-1409240Y-3436870D01*
X-1373680Y-3436870D02*
X-1277160Y-3436870D01*
X-1200960Y-3436870D02*
X-1084120Y-3436870D01*
X-901240Y-3436870D02*
X-784400Y-3436870D01*
X-708200Y-3436870D02*
X-591360Y-3436870D01*
X-398320Y-3436870D02*
X-281480Y-3436870D01*
X-2374440Y-3431790D02*
X-2191560Y-3431790D01*
X-2003600Y-3431790D02*
X-1886760Y-3431790D01*
X-1769920Y-3431790D02*
X-1673400Y-3431790D01*
X-1597200Y-3431790D02*
X-1500680Y-3431790D01*
X-1485440Y-3431790D02*
X-1409240Y-3431790D01*
X-1373680Y-3431790D02*
X-1277160Y-3431790D01*
X-1200960Y-3431790D02*
X-1084120Y-3431790D01*
X-901240Y-3431790D02*
X-784400Y-3431790D01*
X-708200Y-3431790D02*
X-591360Y-3431790D01*
X-398320Y-3431790D02*
X-281480Y-3431790D01*
X-2374440Y-3426710D02*
X-2206800Y-3426710D01*
X-2003600Y-3426710D02*
X-1886760Y-3426710D01*
X-1769920Y-3426710D02*
X-1673400Y-3426710D01*
X-1597200Y-3426710D02*
X-1500680Y-3426710D01*
X-1490520Y-3426710D02*
X-1414320Y-3426710D01*
X-1373680Y-3426710D02*
X-1277160Y-3426710D01*
X-1200960Y-3426710D02*
X-1084120Y-3426710D01*
X-901240Y-3426710D02*
X-784400Y-3426710D01*
X-708200Y-3426710D02*
X-591360Y-3426710D01*
X-398320Y-3426710D02*
X-281480Y-3426710D01*
X-2374440Y-3421630D02*
X-2216960Y-3421630D01*
X-2003600Y-3421630D02*
X-1886760Y-3421630D01*
X-1769920Y-3421630D02*
X-1673400Y-3421630D01*
X-1597200Y-3421630D02*
X-1500680Y-3421630D01*
X-1490520Y-3421630D02*
X-1414320Y-3421630D01*
X-1373680Y-3421630D02*
X-1277160Y-3421630D01*
X-1200960Y-3421630D02*
X-1084120Y-3421630D01*
X-901240Y-3421630D02*
X-784400Y-3421630D01*
X-708200Y-3421630D02*
X-591360Y-3421630D01*
X-398320Y-3421630D02*
X-281480Y-3421630D01*
X-2379520Y-3416550D02*
X-2227120Y-3416550D01*
X-2003600Y-3416550D02*
X-1886760Y-3416550D01*
X-1769920Y-3416550D02*
X-1673400Y-3416550D01*
X-1597200Y-3416550D02*
X-1500680Y-3416550D01*
X-1490520Y-3416550D02*
X-1414320Y-3416550D01*
X-1373680Y-3416550D02*
X-1277160Y-3416550D01*
X-1200960Y-3416550D02*
X-1084120Y-3416550D01*
X-901240Y-3416550D02*
X-784400Y-3416550D01*
X-708200Y-3416550D02*
X-591360Y-3416550D01*
X-398320Y-3416550D02*
X-281480Y-3416550D01*
X-2379520Y-3411470D02*
X-2237280Y-3411470D01*
X-2003600Y-3411470D02*
X-1886760Y-3411470D01*
X-1769920Y-3411470D02*
X-1673400Y-3411470D01*
X-1597200Y-3411470D02*
X-1500680Y-3411470D01*
X-1495600Y-3411470D02*
X-1419400Y-3411470D01*
X-1373680Y-3411470D02*
X-1277160Y-3411470D01*
X-1200960Y-3411470D02*
X-1084120Y-3411470D01*
X-901240Y-3411470D02*
X-784400Y-3411470D01*
X-708200Y-3411470D02*
X-591360Y-3411470D01*
X-398320Y-3411470D02*
X-281480Y-3411470D01*
X-2379520Y-3406390D02*
X-2247440Y-3406390D01*
X-2003600Y-3406390D02*
X-1886760Y-3406390D01*
X-1769920Y-3406390D02*
X-1673400Y-3406390D01*
X-1597200Y-3406390D02*
X-1500680Y-3406390D01*
X-1495600Y-3406390D02*
X-1419400Y-3406390D01*
X-1373680Y-3406390D02*
X-1277160Y-3406390D01*
X-1200960Y-3406390D02*
X-1084120Y-3406390D01*
X-901240Y-3406390D02*
X-784400Y-3406390D01*
X-708200Y-3406390D02*
X-591360Y-3406390D01*
X-398320Y-3406390D02*
X-281480Y-3406390D01*
X-2379520Y-3401310D02*
X-2252520Y-3401310D01*
X-2003600Y-3401310D02*
X-1886760Y-3401310D01*
X-1769920Y-3401310D02*
X-1673400Y-3401310D01*
X-1597200Y-3401310D02*
X-1500680Y-3401310D01*
X-1495600Y-3401310D02*
X-1419400Y-3401310D01*
X-1373680Y-3401310D02*
X-1277160Y-3401310D01*
X-1200960Y-3401310D02*
X-1084120Y-3401310D01*
X-901240Y-3401310D02*
X-784400Y-3401310D01*
X-708200Y-3401310D02*
X-591360Y-3401310D01*
X-398320Y-3401310D02*
X-281480Y-3401310D01*
X-2379520Y-3396230D02*
X-2257600Y-3396230D01*
X-2003600Y-3396230D02*
X-1886760Y-3396230D01*
X-1769920Y-3396230D02*
X-1673400Y-3396230D01*
X-1597200Y-3396230D02*
X-1424480Y-3396230D01*
X-1373680Y-3396230D02*
X-1277160Y-3396230D01*
X-1200960Y-3396230D02*
X-1084120Y-3396230D01*
X-901240Y-3396230D02*
X-784400Y-3396230D01*
X-708200Y-3396230D02*
X-591360Y-3396230D01*
X-398320Y-3396230D02*
X-281480Y-3396230D01*
X-2379520Y-3391150D02*
X-2257600Y-3391150D01*
X-2161080Y-3391150D02*
X-2150920Y-3391150D01*
X-2003600Y-3391150D02*
X-1886760Y-3391150D01*
X-1769920Y-3391150D02*
X-1673400Y-3391150D01*
X-1597200Y-3391150D02*
X-1424480Y-3391150D01*
X-1373680Y-3391150D02*
X-1277160Y-3391150D01*
X-1200960Y-3391150D02*
X-1084120Y-3391150D01*
X-901240Y-3391150D02*
X-784400Y-3391150D01*
X-708200Y-3391150D02*
X-591360Y-3391150D01*
X-398320Y-3391150D02*
X-281480Y-3391150D01*
X-2379520Y-3386070D02*
X-2262680Y-3386070D01*
X-2161080Y-3386070D02*
X-2140760Y-3386070D01*
X-2003600Y-3386070D02*
X-1886760Y-3386070D01*
X-1769920Y-3386070D02*
X-1673400Y-3386070D01*
X-1597200Y-3386070D02*
X-1424480Y-3386070D01*
X-1373680Y-3386070D02*
X-1277160Y-3386070D01*
X-1200960Y-3386070D02*
X-1084120Y-3386070D01*
X-901240Y-3386070D02*
X-784400Y-3386070D01*
X-708200Y-3386070D02*
X-591360Y-3386070D01*
X-398320Y-3386070D02*
X-281480Y-3386070D01*
X-2379520Y-3380990D02*
X-2262680Y-3380990D01*
X-2161080Y-3380990D02*
X-2125520Y-3380990D01*
X-2003600Y-3380990D02*
X-1886760Y-3380990D01*
X-1769920Y-3380990D02*
X-1673400Y-3380990D01*
X-1597200Y-3380990D02*
X-1429560Y-3380990D01*
X-1373680Y-3380990D02*
X-1277160Y-3380990D01*
X-1200960Y-3380990D02*
X-1084120Y-3380990D01*
X-901240Y-3380990D02*
X-784400Y-3380990D01*
X-708200Y-3380990D02*
X-591360Y-3380990D01*
X-398320Y-3380990D02*
X-281480Y-3380990D01*
X-2379520Y-3375910D02*
X-2262680Y-3375910D01*
X-2166160Y-3375910D02*
X-2110280Y-3375910D01*
X-2003600Y-3375910D02*
X-1886760Y-3375910D01*
X-1769920Y-3375910D02*
X-1673400Y-3375910D01*
X-1597200Y-3375910D02*
X-1429560Y-3375910D01*
X-1373680Y-3375910D02*
X-1277160Y-3375910D01*
X-1200960Y-3375910D02*
X-1084120Y-3375910D01*
X-901240Y-3375910D02*
X-784400Y-3375910D01*
X-708200Y-3375910D02*
X-591360Y-3375910D01*
X-398320Y-3375910D02*
X-281480Y-3375910D01*
X-2379520Y-3370830D02*
X-2262680Y-3370830D01*
X-2166160Y-3370830D02*
X-2100120Y-3370830D01*
X-2003600Y-3370830D02*
X-1886760Y-3370830D01*
X-1769920Y-3370830D02*
X-1673400Y-3370830D01*
X-1597200Y-3370830D02*
X-1429560Y-3370830D01*
X-1373680Y-3370830D02*
X-1277160Y-3370830D01*
X-1200960Y-3370830D02*
X-1084120Y-3370830D01*
X-901240Y-3370830D02*
X-784400Y-3370830D01*
X-708200Y-3370830D02*
X-591360Y-3370830D01*
X-398320Y-3370830D02*
X-281480Y-3370830D01*
X-2379520Y-3365750D02*
X-2262680Y-3365750D01*
X-2171240Y-3365750D02*
X-2084880Y-3365750D01*
X-2003600Y-3365750D02*
X-1886760Y-3365750D01*
X-1769920Y-3365750D02*
X-1673400Y-3365750D01*
X-1597200Y-3365750D02*
X-1434640Y-3365750D01*
X-1373680Y-3365750D02*
X-1277160Y-3365750D01*
X-1200960Y-3365750D02*
X-1084120Y-3365750D01*
X-901240Y-3365750D02*
X-784400Y-3365750D01*
X-708200Y-3365750D02*
X-591360Y-3365750D01*
X-398320Y-3365750D02*
X-281480Y-3365750D01*
X-2379520Y-3360670D02*
X-2262680Y-3360670D01*
X-2176320Y-3360670D02*
X-2069640Y-3360670D01*
X-2003600Y-3360670D02*
X-1886760Y-3360670D01*
X-1769920Y-3360670D02*
X-1673400Y-3360670D01*
X-1597200Y-3360670D02*
X-1434640Y-3360670D01*
X-1373680Y-3360670D02*
X-1277160Y-3360670D01*
X-1200960Y-3360670D02*
X-1084120Y-3360670D01*
X-901240Y-3360670D02*
X-784400Y-3360670D01*
X-708200Y-3360670D02*
X-591360Y-3360670D01*
X-398320Y-3360670D02*
X-281480Y-3360670D01*
X-2374440Y-3355590D02*
X-2257600Y-3355590D01*
X-2176320Y-3355590D02*
X-2064560Y-3355590D01*
X-2003600Y-3355590D02*
X-1886760Y-3355590D01*
X-1769920Y-3355590D02*
X-1673400Y-3355590D01*
X-1597200Y-3355590D02*
X-1434640Y-3355590D01*
X-1373680Y-3355590D02*
X-1277160Y-3355590D01*
X-1200960Y-3355590D02*
X-1084120Y-3355590D01*
X-901240Y-3355590D02*
X-784400Y-3355590D01*
X-708200Y-3355590D02*
X-591360Y-3355590D01*
X-398320Y-3355590D02*
X-281480Y-3355590D01*
X-2374440Y-3350510D02*
X-2257600Y-3350510D01*
X-2181400Y-3350510D02*
X-2064560Y-3350510D01*
X-2003600Y-3350510D02*
X-1886760Y-3350510D01*
X-1769920Y-3350510D02*
X-1673400Y-3350510D01*
X-1597200Y-3350510D02*
X-1439720Y-3350510D01*
X-1373680Y-3350510D02*
X-1277160Y-3350510D01*
X-1200960Y-3350510D02*
X-1084120Y-3350510D01*
X-901240Y-3350510D02*
X-784400Y-3350510D01*
X-708200Y-3350510D02*
X-591360Y-3350510D01*
X-398320Y-3350510D02*
X-281480Y-3350510D01*
X-2374440Y-3345430D02*
X-2252520Y-3345430D01*
X-2186480Y-3345430D02*
X-2069640Y-3345430D01*
X-2003600Y-3345430D02*
X-1886760Y-3345430D01*
X-1769920Y-3345430D02*
X-1673400Y-3345430D01*
X-1597200Y-3345430D02*
X-1439720Y-3345430D01*
X-1373680Y-3345430D02*
X-1277160Y-3345430D01*
X-1200960Y-3345430D02*
X-1084120Y-3345430D01*
X-901240Y-3345430D02*
X-784400Y-3345430D01*
X-708200Y-3345430D02*
X-591360Y-3345430D01*
X-398320Y-3345430D02*
X-281480Y-3345430D01*
X-2374440Y-3340350D02*
X-2247440Y-3340350D01*
X-2196640Y-3340350D02*
X-2069640Y-3340350D01*
X-2003600Y-3340350D02*
X-1886760Y-3340350D01*
X-1769920Y-3340350D02*
X-1673400Y-3340350D01*
X-1597200Y-3340350D02*
X-1439720Y-3340350D01*
X-1373680Y-3340350D02*
X-1277160Y-3340350D01*
X-1200960Y-3340350D02*
X-1084120Y-3340350D01*
X-901240Y-3340350D02*
X-784400Y-3340350D01*
X-708200Y-3340350D02*
X-418640Y-3340350D01*
X-398320Y-3340350D02*
X-98600Y-3340350D01*
X-2369360Y-3335270D02*
X-2237280Y-3335270D01*
X-2206800Y-3335270D02*
X-2069640Y-3335270D01*
X-2003600Y-3335270D02*
X-1886760Y-3335270D01*
X-1769920Y-3335270D02*
X-1673400Y-3335270D01*
X-1597200Y-3335270D02*
X-1444800Y-3335270D01*
X-1373680Y-3335270D02*
X-1277160Y-3335270D01*
X-1200960Y-3335270D02*
X-1084120Y-3335270D01*
X-901240Y-3335270D02*
X-784400Y-3335270D01*
X-708200Y-3335270D02*
X-418640Y-3335270D01*
X-398320Y-3335270D02*
X-98600Y-3335270D01*
X-2369360Y-3330190D02*
X-2074720Y-3330190D01*
X-2003600Y-3330190D02*
X-1886760Y-3330190D01*
X-1769920Y-3330190D02*
X-1673400Y-3330190D01*
X-1597200Y-3330190D02*
X-1444800Y-3330190D01*
X-1373680Y-3330190D02*
X-1277160Y-3330190D01*
X-1200960Y-3330190D02*
X-1084120Y-3330190D01*
X-901240Y-3330190D02*
X-784400Y-3330190D01*
X-708200Y-3330190D02*
X-418640Y-3330190D01*
X-398320Y-3330190D02*
X-98600Y-3330190D01*
X-2364280Y-3325110D02*
X-2074720Y-3325110D01*
X-2003600Y-3325110D02*
X-1886760Y-3325110D01*
X-1769920Y-3325110D02*
X-1673400Y-3325110D01*
X-1597200Y-3325110D02*
X-1444800Y-3325110D01*
X-1373680Y-3325110D02*
X-1277160Y-3325110D01*
X-1200960Y-3325110D02*
X-1084120Y-3325110D01*
X-901240Y-3325110D02*
X-784400Y-3325110D01*
X-708200Y-3325110D02*
X-418640Y-3325110D01*
X-398320Y-3325110D02*
X-98600Y-3325110D01*
X-2364280Y-3320030D02*
X-2079800Y-3320030D01*
X-2003600Y-3320030D02*
X-1886760Y-3320030D01*
X-1769920Y-3320030D02*
X-1673400Y-3320030D01*
X-1597200Y-3320030D02*
X-1449880Y-3320030D01*
X-1373680Y-3320030D02*
X-1277160Y-3320030D01*
X-1200960Y-3320030D02*
X-1084120Y-3320030D01*
X-901240Y-3320030D02*
X-784400Y-3320030D01*
X-708200Y-3320030D02*
X-418640Y-3320030D01*
X-398320Y-3320030D02*
X-98600Y-3320030D01*
X-2359200Y-3314950D02*
X-2079800Y-3314950D01*
X-2003600Y-3314950D02*
X-1886760Y-3314950D01*
X-1769920Y-3314950D02*
X-1673400Y-3314950D01*
X-1597200Y-3314950D02*
X-1449880Y-3314950D01*
X-1373680Y-3314950D02*
X-1277160Y-3314950D01*
X-1200960Y-3314950D02*
X-1084120Y-3314950D01*
X-901240Y-3314950D02*
X-784400Y-3314950D01*
X-708200Y-3314950D02*
X-418640Y-3314950D01*
X-398320Y-3314950D02*
X-98600Y-3314950D01*
X-2359200Y-3309870D02*
X-2084880Y-3309870D01*
X-2003600Y-3309870D02*
X-1886760Y-3309870D01*
X-1769920Y-3309870D02*
X-1673400Y-3309870D01*
X-1597200Y-3309870D02*
X-1449880Y-3309870D01*
X-1373680Y-3309870D02*
X-1277160Y-3309870D01*
X-1200960Y-3309870D02*
X-1084120Y-3309870D01*
X-901240Y-3309870D02*
X-784400Y-3309870D01*
X-708200Y-3309870D02*
X-418640Y-3309870D01*
X-398320Y-3309870D02*
X-98600Y-3309870D01*
X-2354120Y-3304790D02*
X-2089960Y-3304790D01*
X-2003600Y-3304790D02*
X-1886760Y-3304790D01*
X-1769920Y-3304790D02*
X-1673400Y-3304790D01*
X-1597200Y-3304790D02*
X-1454960Y-3304790D01*
X-1373680Y-3304790D02*
X-1277160Y-3304790D01*
X-1200960Y-3304790D02*
X-1084120Y-3304790D01*
X-901240Y-3304790D02*
X-784400Y-3304790D01*
X-708200Y-3304790D02*
X-418640Y-3304790D01*
X-398320Y-3304790D02*
X-98600Y-3304790D01*
X-2349040Y-3299710D02*
X-2089960Y-3299710D01*
X-2003600Y-3299710D02*
X-1886760Y-3299710D01*
X-1769920Y-3299710D02*
X-1673400Y-3299710D01*
X-1597200Y-3299710D02*
X-1454960Y-3299710D01*
X-1373680Y-3299710D02*
X-1277160Y-3299710D01*
X-1200960Y-3299710D02*
X-1084120Y-3299710D01*
X-901240Y-3299710D02*
X-784400Y-3299710D01*
X-708200Y-3299710D02*
X-418640Y-3299710D01*
X-398320Y-3299710D02*
X-98600Y-3299710D01*
X-2349040Y-3294630D02*
X-2095040Y-3294630D01*
X-2003600Y-3294630D02*
X-1886760Y-3294630D01*
X-1769920Y-3294630D02*
X-1673400Y-3294630D01*
X-1597200Y-3294630D02*
X-1454960Y-3294630D01*
X-1373680Y-3294630D02*
X-1277160Y-3294630D01*
X-1200960Y-3294630D02*
X-1084120Y-3294630D01*
X-901240Y-3294630D02*
X-784400Y-3294630D01*
X-708200Y-3294630D02*
X-418640Y-3294630D01*
X-398320Y-3294630D02*
X-98600Y-3294630D01*
X-2343960Y-3289550D02*
X-2100120Y-3289550D01*
X-2003600Y-3289550D02*
X-1886760Y-3289550D01*
X-1769920Y-3289550D02*
X-1673400Y-3289550D01*
X-1597200Y-3289550D02*
X-1460040Y-3289550D01*
X-1373680Y-3289550D02*
X-1277160Y-3289550D01*
X-1200960Y-3289550D02*
X-1084120Y-3289550D01*
X-901240Y-3289550D02*
X-784400Y-3289550D01*
X-708200Y-3289550D02*
X-418640Y-3289550D01*
X-398320Y-3289550D02*
X-98600Y-3289550D01*
X-2338880Y-3284470D02*
X-2105200Y-3284470D01*
X-2003600Y-3284470D02*
X-1886760Y-3284470D01*
X-1769920Y-3284470D02*
X-1673400Y-3284470D01*
X-1597200Y-3284470D02*
X-1460040Y-3284470D01*
X-1373680Y-3284470D02*
X-1277160Y-3284470D01*
X-1200960Y-3284470D02*
X-1084120Y-3284470D01*
X-901240Y-3284470D02*
X-784400Y-3284470D01*
X-708200Y-3284470D02*
X-418640Y-3284470D01*
X-398320Y-3284470D02*
X-98600Y-3284470D01*
X-2333800Y-3279390D02*
X-2110280Y-3279390D01*
X-2003600Y-3279390D02*
X-1886760Y-3279390D01*
X-1769920Y-3279390D02*
X-1673400Y-3279390D01*
X-1597200Y-3279390D02*
X-1460040Y-3279390D01*
X-1373680Y-3279390D02*
X-1277160Y-3279390D01*
X-1200960Y-3279390D02*
X-1084120Y-3279390D01*
X-901240Y-3279390D02*
X-784400Y-3279390D01*
X-708200Y-3279390D02*
X-418640Y-3279390D01*
X-398320Y-3279390D02*
X-98600Y-3279390D01*
X-2328720Y-3274310D02*
X-2115360Y-3274310D01*
X-2003600Y-3274310D02*
X-1886760Y-3274310D01*
X-1769920Y-3274310D02*
X-1673400Y-3274310D01*
X-1597200Y-3274310D02*
X-1465120Y-3274310D01*
X-1373680Y-3274310D02*
X-1277160Y-3274310D01*
X-1200960Y-3274310D02*
X-1084120Y-3274310D01*
X-901240Y-3274310D02*
X-784400Y-3274310D01*
X-708200Y-3274310D02*
X-418640Y-3274310D01*
X-398320Y-3274310D02*
X-98600Y-3274310D01*
X-2318560Y-3269230D02*
X-2120440Y-3269230D01*
X-2003600Y-3269230D02*
X-1886760Y-3269230D01*
X-1769920Y-3269230D02*
X-1673400Y-3269230D01*
X-1597200Y-3269230D02*
X-1465120Y-3269230D01*
X-1373680Y-3269230D02*
X-1277160Y-3269230D01*
X-1200960Y-3269230D02*
X-1084120Y-3269230D01*
X-901240Y-3269230D02*
X-784400Y-3269230D01*
X-708200Y-3269230D02*
X-418640Y-3269230D01*
X-398320Y-3269230D02*
X-98600Y-3269230D01*
X-2313480Y-3264150D02*
X-2130600Y-3264150D01*
X-2003600Y-3264150D02*
X-1886760Y-3264150D01*
X-1769920Y-3264150D02*
X-1673400Y-3264150D01*
X-1597200Y-3264150D02*
X-1465120Y-3264150D01*
X-1373680Y-3264150D02*
X-1277160Y-3264150D01*
X-1200960Y-3264150D02*
X-1084120Y-3264150D01*
X-901240Y-3264150D02*
X-784400Y-3264150D01*
X-708200Y-3264150D02*
X-418640Y-3264150D01*
X-398320Y-3264150D02*
X-98600Y-3264150D01*
X-2303320Y-3259070D02*
X-2140760Y-3259070D01*
X-2003600Y-3259070D02*
X-1886760Y-3259070D01*
X-1769920Y-3259070D02*
X-1673400Y-3259070D01*
X-1597200Y-3259070D02*
X-1470200Y-3259070D01*
X-1373680Y-3259070D02*
X-1277160Y-3259070D01*
X-1200960Y-3259070D02*
X-1084120Y-3259070D01*
X-901240Y-3259070D02*
X-784400Y-3259070D01*
X-708200Y-3259070D02*
X-418640Y-3259070D01*
X-398320Y-3259070D02*
X-98600Y-3259070D01*
X-2293160Y-3253990D02*
X-2150920Y-3253990D01*
X-2003600Y-3253990D02*
X-1886760Y-3253990D01*
X-1769920Y-3253990D02*
X-1673400Y-3253990D01*
X-1597200Y-3253990D02*
X-1470200Y-3253990D01*
X-1373680Y-3253990D02*
X-1277160Y-3253990D01*
X-1200960Y-3253990D02*
X-1084120Y-3253990D01*
X-901240Y-3253990D02*
X-784400Y-3253990D01*
X-708200Y-3253990D02*
X-418640Y-3253990D01*
X-398320Y-3253990D02*
X-98600Y-3253990D01*
X-2277920Y-3248910D02*
X-2166160Y-3248910D01*
X-2257600Y-3243830D02*
X-2191560Y-3243830D01*
M02*
