G04 PROTEUS RS274X GERBER FILE*
%FSLAX45Y45*%
%MOMM*%
G01*
%ADD19C,0.203200*%
%ADD71C,0.127000*%
%ADD70C,0.063500*%
D19*
X+214901Y+504901D02*
X+125099Y+415099D01*
X+214901Y+415099D02*
X+125099Y+504901D01*
X-1835099Y-445099D02*
X-1924901Y-534901D01*
X-1835099Y-534901D02*
X-1924901Y-445099D01*
X+1112901Y+234901D02*
X+1023099Y+145099D01*
X+1112901Y+145099D02*
X+1023099Y+234901D01*
X+3624901Y-3465099D02*
X+3535099Y-3554901D01*
X+3624901Y-3554901D02*
X+3535099Y-3465099D01*
X+2952901Y-425099D02*
X+2863099Y-514901D01*
X+2952901Y-514901D02*
X+2863099Y-425099D01*
X+4234901Y-1575099D02*
X+4145099Y-1664901D01*
X+4234901Y-1664901D02*
X+4145099Y-1575099D01*
X+1280000Y+403500D02*
X+1280000Y+276500D01*
X+1343500Y+340000D02*
X+1216500Y+340000D01*
X+2470000Y+1063500D02*
X+2470000Y+936500D01*
X+2533500Y+1000000D02*
X+2406500Y+1000000D01*
X+3156901Y+934901D02*
X+3067099Y+845099D01*
X+3156901Y+845099D02*
X+3067099Y+934901D01*
X+6103500Y+3092000D02*
X+6103275Y+3097335D01*
X+6101449Y+3108007D01*
X+6097624Y+3118679D01*
X+6091353Y+3129351D01*
X+6081780Y+3139819D01*
X+6071108Y+3147358D01*
X+6060436Y+3152122D01*
X+6049764Y+3154745D01*
X+6040000Y+3155500D01*
X+5976500Y+3092000D02*
X+5976725Y+3097335D01*
X+5978551Y+3108007D01*
X+5982376Y+3118679D01*
X+5988647Y+3129351D01*
X+5998220Y+3139819D01*
X+6008892Y+3147358D01*
X+6019564Y+3152122D01*
X+6030236Y+3154745D01*
X+6040000Y+3155500D01*
X+5976500Y+3092000D02*
X+5976725Y+3086665D01*
X+5978551Y+3075993D01*
X+5982376Y+3065321D01*
X+5988647Y+3054649D01*
X+5998220Y+3044181D01*
X+6008892Y+3036642D01*
X+6019564Y+3031878D01*
X+6030236Y+3029255D01*
X+6040000Y+3028500D01*
X+6103500Y+3092000D02*
X+6103275Y+3086665D01*
X+6101449Y+3075993D01*
X+6097624Y+3065321D01*
X+6091353Y+3054649D01*
X+6081780Y+3044181D01*
X+6071108Y+3036642D01*
X+6060436Y+3031878D01*
X+6049764Y+3029255D01*
X+6040000Y+3028500D01*
X+6084901Y+3136901D02*
X+5995099Y+3047099D01*
X+6084901Y+3047099D02*
X+5995099Y+3136901D01*
X+6103500Y+3600000D02*
X+6103275Y+3605335D01*
X+6101449Y+3616007D01*
X+6097624Y+3626679D01*
X+6091353Y+3637351D01*
X+6081780Y+3647819D01*
X+6071108Y+3655358D01*
X+6060436Y+3660122D01*
X+6049764Y+3662745D01*
X+6040000Y+3663500D01*
X+5976500Y+3600000D02*
X+5976725Y+3605335D01*
X+5978551Y+3616007D01*
X+5982376Y+3626679D01*
X+5988647Y+3637351D01*
X+5998220Y+3647819D01*
X+6008892Y+3655358D01*
X+6019564Y+3660122D01*
X+6030236Y+3662745D01*
X+6040000Y+3663500D01*
X+5976500Y+3600000D02*
X+5976725Y+3594665D01*
X+5978551Y+3583993D01*
X+5982376Y+3573321D01*
X+5988647Y+3562649D01*
X+5998220Y+3552181D01*
X+6008892Y+3544642D01*
X+6019564Y+3539878D01*
X+6030236Y+3537255D01*
X+6040000Y+3536500D01*
X+6103500Y+3600000D02*
X+6103275Y+3594665D01*
X+6101449Y+3583993D01*
X+6097624Y+3573321D01*
X+6091353Y+3562649D01*
X+6081780Y+3552181D01*
X+6071108Y+3544642D01*
X+6060436Y+3539878D01*
X+6049764Y+3537255D01*
X+6040000Y+3536500D01*
X+6084901Y+3644901D02*
X+5995099Y+3555099D01*
X+6084901Y+3555099D02*
X+5995099Y+3644901D01*
X+5180000Y+3663500D02*
X+5180000Y+3536500D01*
X+5243500Y+3600000D02*
X+5116500Y+3600000D01*
X+5224901Y+3644901D02*
X+5135099Y+3555099D01*
X+5224901Y+3555099D02*
X+5135099Y+3644901D01*
X+4418000Y+3663500D02*
X+4418000Y+3536500D01*
X+4481500Y+3600000D02*
X+4354500Y+3600000D01*
X+4462901Y+3644901D02*
X+4373099Y+3555099D01*
X+4462901Y+3555099D02*
X+4373099Y+3644901D01*
X+1588000Y+615500D02*
X+1588000Y+488500D01*
X+1651500Y+552000D02*
X+1524500Y+552000D01*
X+1632901Y+596901D02*
X+1543099Y+507099D01*
X+1632901Y+507099D02*
X+1543099Y+596901D01*
X+1842000Y+615500D02*
X+1842000Y+488500D01*
X+1905500Y+552000D02*
X+1778500Y+552000D01*
X+1886901Y+596901D02*
X+1797099Y+507099D01*
X+1886901Y+507099D02*
X+1797099Y+596901D01*
X+2096000Y+615500D02*
X+2096000Y+488500D01*
X+2159500Y+552000D02*
X+2032500Y+552000D01*
X+2140901Y+596901D02*
X+2051099Y+507099D01*
X+2140901Y+507099D02*
X+2051099Y+596901D01*
X+2350000Y+615500D02*
X+2350000Y+488500D01*
X+2413500Y+552000D02*
X+2286500Y+552000D01*
X+2394901Y+596901D02*
X+2305099Y+507099D01*
X+2394901Y+507099D02*
X+2305099Y+596901D01*
X+2604000Y+615500D02*
X+2604000Y+488500D01*
X+2667500Y+552000D02*
X+2540500Y+552000D01*
X+2648901Y+596901D02*
X+2559099Y+507099D01*
X+2648901Y+507099D02*
X+2559099Y+596901D01*
X+2858000Y+615500D02*
X+2858000Y+488500D01*
X+2921500Y+552000D02*
X+2794500Y+552000D01*
X+2902901Y+596901D02*
X+2813099Y+507099D01*
X+2902901Y+507099D02*
X+2813099Y+596901D01*
X+3112000Y+615500D02*
X+3112000Y+488500D01*
X+3175500Y+552000D02*
X+3048500Y+552000D01*
X+3156901Y+596901D02*
X+3067099Y+507099D01*
X+3156901Y+507099D02*
X+3067099Y+596901D01*
X+3112000Y-146500D02*
X+3112000Y-273500D01*
X+3175500Y-210000D02*
X+3048500Y-210000D01*
X+3156901Y-165099D02*
X+3067099Y-254901D01*
X+3156901Y-254901D02*
X+3067099Y-165099D01*
X+2858000Y-146500D02*
X+2858000Y-273500D01*
X+2921500Y-210000D02*
X+2794500Y-210000D01*
X+2902901Y-165099D02*
X+2813099Y-254901D01*
X+2902901Y-254901D02*
X+2813099Y-165099D01*
X+2604000Y-146500D02*
X+2604000Y-273500D01*
X+2667500Y-210000D02*
X+2540500Y-210000D01*
X+2648901Y-165099D02*
X+2559099Y-254901D01*
X+2648901Y-254901D02*
X+2559099Y-165099D01*
X+2350000Y-146500D02*
X+2350000Y-273500D01*
X+2413500Y-210000D02*
X+2286500Y-210000D01*
X+2394901Y-165099D02*
X+2305099Y-254901D01*
X+2394901Y-254901D02*
X+2305099Y-165099D01*
X+2096000Y-146500D02*
X+2096000Y-273500D01*
X+2159500Y-210000D02*
X+2032500Y-210000D01*
X+2140901Y-165099D02*
X+2051099Y-254901D01*
X+2140901Y-254901D02*
X+2051099Y-165099D01*
X+1842000Y-146500D02*
X+1842000Y-273500D01*
X+1905500Y-210000D02*
X+1778500Y-210000D01*
X+1886901Y-165099D02*
X+1797099Y-254901D01*
X+1886901Y-254901D02*
X+1797099Y-165099D01*
X+1588000Y-146500D02*
X+1588000Y-273500D01*
X+1651500Y-210000D02*
X+1524500Y-210000D01*
X+1632901Y-165099D02*
X+1543099Y-254901D01*
X+1632901Y-254901D02*
X+1543099Y-165099D01*
X+6133500Y+1242000D02*
X+6133275Y+1247335D01*
X+6131449Y+1258007D01*
X+6127624Y+1268679D01*
X+6121353Y+1279351D01*
X+6111780Y+1289819D01*
X+6101108Y+1297358D01*
X+6090436Y+1302122D01*
X+6079764Y+1304745D01*
X+6070000Y+1305500D01*
X+6006500Y+1242000D02*
X+6006725Y+1247335D01*
X+6008551Y+1258007D01*
X+6012376Y+1268679D01*
X+6018647Y+1279351D01*
X+6028220Y+1289819D01*
X+6038892Y+1297358D01*
X+6049564Y+1302122D01*
X+6060236Y+1304745D01*
X+6070000Y+1305500D01*
X+6006500Y+1242000D02*
X+6006725Y+1236665D01*
X+6008551Y+1225993D01*
X+6012376Y+1215321D01*
X+6018647Y+1204649D01*
X+6028220Y+1194181D01*
X+6038892Y+1186642D01*
X+6049564Y+1181878D01*
X+6060236Y+1179255D01*
X+6070000Y+1178500D01*
X+6133500Y+1242000D02*
X+6133275Y+1236665D01*
X+6131449Y+1225993D01*
X+6127624Y+1215321D01*
X+6121353Y+1204649D01*
X+6111780Y+1194181D01*
X+6101108Y+1186642D01*
X+6090436Y+1181878D01*
X+6079764Y+1179255D01*
X+6070000Y+1178500D01*
X+6114901Y+1286901D02*
X+6025099Y+1197099D01*
X+6114901Y+1197099D02*
X+6025099Y+1286901D01*
X+6133500Y+1750000D02*
X+6133275Y+1755335D01*
X+6131449Y+1766007D01*
X+6127624Y+1776679D01*
X+6121353Y+1787351D01*
X+6111780Y+1797819D01*
X+6101108Y+1805358D01*
X+6090436Y+1810122D01*
X+6079764Y+1812745D01*
X+6070000Y+1813500D01*
X+6006500Y+1750000D02*
X+6006725Y+1755335D01*
X+6008551Y+1766007D01*
X+6012376Y+1776679D01*
X+6018647Y+1787351D01*
X+6028220Y+1797819D01*
X+6038892Y+1805358D01*
X+6049564Y+1810122D01*
X+6060236Y+1812745D01*
X+6070000Y+1813500D01*
X+6006500Y+1750000D02*
X+6006725Y+1744665D01*
X+6008551Y+1733993D01*
X+6012376Y+1723321D01*
X+6018647Y+1712649D01*
X+6028220Y+1702181D01*
X+6038892Y+1694642D01*
X+6049564Y+1689878D01*
X+6060236Y+1687255D01*
X+6070000Y+1686500D01*
X+6133500Y+1750000D02*
X+6133275Y+1744665D01*
X+6131449Y+1733993D01*
X+6127624Y+1723321D01*
X+6121353Y+1712649D01*
X+6111780Y+1702181D01*
X+6101108Y+1694642D01*
X+6090436Y+1689878D01*
X+6079764Y+1687255D01*
X+6070000Y+1686500D01*
X+6114901Y+1794901D02*
X+6025099Y+1705099D01*
X+6114901Y+1705099D02*
X+6025099Y+1794901D01*
X+6133500Y+2000D02*
X+6133275Y+7335D01*
X+6131449Y+18007D01*
X+6127624Y+28679D01*
X+6121353Y+39351D01*
X+6111780Y+49819D01*
X+6101108Y+57358D01*
X+6090436Y+62122D01*
X+6079764Y+64745D01*
X+6070000Y+65500D01*
X+6006500Y+2000D02*
X+6006725Y+7335D01*
X+6008551Y+18007D01*
X+6012376Y+28679D01*
X+6018647Y+39351D01*
X+6028220Y+49819D01*
X+6038892Y+57358D01*
X+6049564Y+62122D01*
X+6060236Y+64745D01*
X+6070000Y+65500D01*
X+6006500Y+2000D02*
X+6006725Y-3335D01*
X+6008551Y-14007D01*
X+6012376Y-24679D01*
X+6018647Y-35351D01*
X+6028220Y-45819D01*
X+6038892Y-53358D01*
X+6049564Y-58122D01*
X+6060236Y-60745D01*
X+6070000Y-61500D01*
X+6133500Y+2000D02*
X+6133275Y-3335D01*
X+6131449Y-14007D01*
X+6127624Y-24679D01*
X+6121353Y-35351D01*
X+6111780Y-45819D01*
X+6101108Y-53358D01*
X+6090436Y-58122D01*
X+6079764Y-60745D01*
X+6070000Y-61500D01*
X+6114901Y+46901D02*
X+6025099Y-42901D01*
X+6114901Y-42901D02*
X+6025099Y+46901D01*
X+6133500Y+510000D02*
X+6133275Y+515335D01*
X+6131449Y+526007D01*
X+6127624Y+536679D01*
X+6121353Y+547351D01*
X+6111780Y+557819D01*
X+6101108Y+565358D01*
X+6090436Y+570122D01*
X+6079764Y+572745D01*
X+6070000Y+573500D01*
X+6006500Y+510000D02*
X+6006725Y+515335D01*
X+6008551Y+526007D01*
X+6012376Y+536679D01*
X+6018647Y+547351D01*
X+6028220Y+557819D01*
X+6038892Y+565358D01*
X+6049564Y+570122D01*
X+6060236Y+572745D01*
X+6070000Y+573500D01*
X+6006500Y+510000D02*
X+6006725Y+504665D01*
X+6008551Y+493993D01*
X+6012376Y+483321D01*
X+6018647Y+472649D01*
X+6028220Y+462181D01*
X+6038892Y+454642D01*
X+6049564Y+449878D01*
X+6060236Y+447255D01*
X+6070000Y+446500D01*
X+6133500Y+510000D02*
X+6133275Y+504665D01*
X+6131449Y+493993D01*
X+6127624Y+483321D01*
X+6121353Y+472649D01*
X+6111780Y+462181D01*
X+6101108Y+454642D01*
X+6090436Y+449878D01*
X+6079764Y+447255D01*
X+6070000Y+446500D01*
X+6114901Y+554901D02*
X+6025099Y+465099D01*
X+6114901Y+465099D02*
X+6025099Y+554901D01*
X-2126500Y+2672000D02*
X-2126725Y+2677335D01*
X-2128551Y+2688007D01*
X-2132376Y+2698679D01*
X-2138647Y+2709351D01*
X-2148220Y+2719819D01*
X-2158892Y+2727358D01*
X-2169564Y+2732122D01*
X-2180236Y+2734745D01*
X-2190000Y+2735500D01*
X-2253500Y+2672000D02*
X-2253275Y+2677335D01*
X-2251449Y+2688007D01*
X-2247624Y+2698679D01*
X-2241353Y+2709351D01*
X-2231780Y+2719819D01*
X-2221108Y+2727358D01*
X-2210436Y+2732122D01*
X-2199764Y+2734745D01*
X-2190000Y+2735500D01*
X-2253500Y+2672000D02*
X-2253275Y+2666665D01*
X-2251449Y+2655993D01*
X-2247624Y+2645321D01*
X-2241353Y+2634649D01*
X-2231780Y+2624181D01*
X-2221108Y+2616642D01*
X-2210436Y+2611878D01*
X-2199764Y+2609255D01*
X-2190000Y+2608500D01*
X-2126500Y+2672000D02*
X-2126725Y+2666665D01*
X-2128551Y+2655993D01*
X-2132376Y+2645321D01*
X-2138647Y+2634649D01*
X-2148220Y+2624181D01*
X-2158892Y+2616642D01*
X-2169564Y+2611878D01*
X-2180236Y+2609255D01*
X-2190000Y+2608500D01*
X-2190000Y+2735500D02*
X-2190000Y+2608500D01*
X-2126500Y+2672000D02*
X-2253500Y+2672000D01*
X-2126500Y+2418000D02*
X-2126725Y+2423335D01*
X-2128551Y+2434007D01*
X-2132376Y+2444679D01*
X-2138647Y+2455351D01*
X-2148220Y+2465819D01*
X-2158892Y+2473358D01*
X-2169564Y+2478122D01*
X-2180236Y+2480745D01*
X-2190000Y+2481500D01*
X-2253500Y+2418000D02*
X-2253275Y+2423335D01*
X-2251449Y+2434007D01*
X-2247624Y+2444679D01*
X-2241353Y+2455351D01*
X-2231780Y+2465819D01*
X-2221108Y+2473358D01*
X-2210436Y+2478122D01*
X-2199764Y+2480745D01*
X-2190000Y+2481500D01*
X-2253500Y+2418000D02*
X-2253275Y+2412665D01*
X-2251449Y+2401993D01*
X-2247624Y+2391321D01*
X-2241353Y+2380649D01*
X-2231780Y+2370181D01*
X-2221108Y+2362642D01*
X-2210436Y+2357878D01*
X-2199764Y+2355255D01*
X-2190000Y+2354500D01*
X-2126500Y+2418000D02*
X-2126725Y+2412665D01*
X-2128551Y+2401993D01*
X-2132376Y+2391321D01*
X-2138647Y+2380649D01*
X-2148220Y+2370181D01*
X-2158892Y+2362642D01*
X-2169564Y+2357878D01*
X-2180236Y+2355255D01*
X-2190000Y+2354500D01*
X-2190000Y+2481500D02*
X-2190000Y+2354500D01*
X-2126500Y+2418000D02*
X-2253500Y+2418000D01*
X-2126500Y+2164000D02*
X-2126725Y+2169335D01*
X-2128551Y+2180007D01*
X-2132376Y+2190679D01*
X-2138647Y+2201351D01*
X-2148220Y+2211819D01*
X-2158892Y+2219358D01*
X-2169564Y+2224122D01*
X-2180236Y+2226745D01*
X-2190000Y+2227500D01*
X-2253500Y+2164000D02*
X-2253275Y+2169335D01*
X-2251449Y+2180007D01*
X-2247624Y+2190679D01*
X-2241353Y+2201351D01*
X-2231780Y+2211819D01*
X-2221108Y+2219358D01*
X-2210436Y+2224122D01*
X-2199764Y+2226745D01*
X-2190000Y+2227500D01*
X-2253500Y+2164000D02*
X-2253275Y+2158665D01*
X-2251449Y+2147993D01*
X-2247624Y+2137321D01*
X-2241353Y+2126649D01*
X-2231780Y+2116181D01*
X-2221108Y+2108642D01*
X-2210436Y+2103878D01*
X-2199764Y+2101255D01*
X-2190000Y+2100500D01*
X-2126500Y+2164000D02*
X-2126725Y+2158665D01*
X-2128551Y+2147993D01*
X-2132376Y+2137321D01*
X-2138647Y+2126649D01*
X-2148220Y+2116181D01*
X-2158892Y+2108642D01*
X-2169564Y+2103878D01*
X-2180236Y+2101255D01*
X-2190000Y+2100500D01*
X-2190000Y+2227500D02*
X-2190000Y+2100500D01*
X-2126500Y+2164000D02*
X-2253500Y+2164000D01*
X-2126500Y+1910000D02*
X-2126725Y+1915335D01*
X-2128551Y+1926007D01*
X-2132376Y+1936679D01*
X-2138647Y+1947351D01*
X-2148220Y+1957819D01*
X-2158892Y+1965358D01*
X-2169564Y+1970122D01*
X-2180236Y+1972745D01*
X-2190000Y+1973500D01*
X-2253500Y+1910000D02*
X-2253275Y+1915335D01*
X-2251449Y+1926007D01*
X-2247624Y+1936679D01*
X-2241353Y+1947351D01*
X-2231780Y+1957819D01*
X-2221108Y+1965358D01*
X-2210436Y+1970122D01*
X-2199764Y+1972745D01*
X-2190000Y+1973500D01*
X-2253500Y+1910000D02*
X-2253275Y+1904665D01*
X-2251449Y+1893993D01*
X-2247624Y+1883321D01*
X-2241353Y+1872649D01*
X-2231780Y+1862181D01*
X-2221108Y+1854642D01*
X-2210436Y+1849878D01*
X-2199764Y+1847255D01*
X-2190000Y+1846500D01*
X-2126500Y+1910000D02*
X-2126725Y+1904665D01*
X-2128551Y+1893993D01*
X-2132376Y+1883321D01*
X-2138647Y+1872649D01*
X-2148220Y+1862181D01*
X-2158892Y+1854642D01*
X-2169564Y+1849878D01*
X-2180236Y+1847255D01*
X-2190000Y+1846500D01*
X-2190000Y+1973500D02*
X-2190000Y+1846500D01*
X-2126500Y+1910000D02*
X-2253500Y+1910000D01*
X-2126500Y+1656000D02*
X-2126725Y+1661335D01*
X-2128551Y+1672007D01*
X-2132376Y+1682679D01*
X-2138647Y+1693351D01*
X-2148220Y+1703819D01*
X-2158892Y+1711358D01*
X-2169564Y+1716122D01*
X-2180236Y+1718745D01*
X-2190000Y+1719500D01*
X-2253500Y+1656000D02*
X-2253275Y+1661335D01*
X-2251449Y+1672007D01*
X-2247624Y+1682679D01*
X-2241353Y+1693351D01*
X-2231780Y+1703819D01*
X-2221108Y+1711358D01*
X-2210436Y+1716122D01*
X-2199764Y+1718745D01*
X-2190000Y+1719500D01*
X-2253500Y+1656000D02*
X-2253275Y+1650665D01*
X-2251449Y+1639993D01*
X-2247624Y+1629321D01*
X-2241353Y+1618649D01*
X-2231780Y+1608181D01*
X-2221108Y+1600642D01*
X-2210436Y+1595878D01*
X-2199764Y+1593255D01*
X-2190000Y+1592500D01*
X-2126500Y+1656000D02*
X-2126725Y+1650665D01*
X-2128551Y+1639993D01*
X-2132376Y+1629321D01*
X-2138647Y+1618649D01*
X-2148220Y+1608181D01*
X-2158892Y+1600642D01*
X-2169564Y+1595878D01*
X-2180236Y+1593255D01*
X-2190000Y+1592500D01*
X-2190000Y+1719500D02*
X-2190000Y+1592500D01*
X-2126500Y+1656000D02*
X-2253500Y+1656000D01*
X-2126500Y+1402000D02*
X-2126725Y+1407335D01*
X-2128551Y+1418007D01*
X-2132376Y+1428679D01*
X-2138647Y+1439351D01*
X-2148220Y+1449819D01*
X-2158892Y+1457358D01*
X-2169564Y+1462122D01*
X-2180236Y+1464745D01*
X-2190000Y+1465500D01*
X-2253500Y+1402000D02*
X-2253275Y+1407335D01*
X-2251449Y+1418007D01*
X-2247624Y+1428679D01*
X-2241353Y+1439351D01*
X-2231780Y+1449819D01*
X-2221108Y+1457358D01*
X-2210436Y+1462122D01*
X-2199764Y+1464745D01*
X-2190000Y+1465500D01*
X-2253500Y+1402000D02*
X-2253275Y+1396665D01*
X-2251449Y+1385993D01*
X-2247624Y+1375321D01*
X-2241353Y+1364649D01*
X-2231780Y+1354181D01*
X-2221108Y+1346642D01*
X-2210436Y+1341878D01*
X-2199764Y+1339255D01*
X-2190000Y+1338500D01*
X-2126500Y+1402000D02*
X-2126725Y+1396665D01*
X-2128551Y+1385993D01*
X-2132376Y+1375321D01*
X-2138647Y+1364649D01*
X-2148220Y+1354181D01*
X-2158892Y+1346642D01*
X-2169564Y+1341878D01*
X-2180236Y+1339255D01*
X-2190000Y+1338500D01*
X-2190000Y+1465500D02*
X-2190000Y+1338500D01*
X-2126500Y+1402000D02*
X-2253500Y+1402000D01*
X+6143500Y-1268000D02*
X+6143275Y-1262665D01*
X+6141449Y-1251993D01*
X+6137624Y-1241321D01*
X+6131353Y-1230649D01*
X+6121780Y-1220181D01*
X+6111108Y-1212642D01*
X+6100436Y-1207878D01*
X+6089764Y-1205255D01*
X+6080000Y-1204500D01*
X+6016500Y-1268000D02*
X+6016725Y-1262665D01*
X+6018551Y-1251993D01*
X+6022376Y-1241321D01*
X+6028647Y-1230649D01*
X+6038220Y-1220181D01*
X+6048892Y-1212642D01*
X+6059564Y-1207878D01*
X+6070236Y-1205255D01*
X+6080000Y-1204500D01*
X+6016500Y-1268000D02*
X+6016725Y-1273335D01*
X+6018551Y-1284007D01*
X+6022376Y-1294679D01*
X+6028647Y-1305351D01*
X+6038220Y-1315819D01*
X+6048892Y-1323358D01*
X+6059564Y-1328122D01*
X+6070236Y-1330745D01*
X+6080000Y-1331500D01*
X+6143500Y-1268000D02*
X+6143275Y-1273335D01*
X+6141449Y-1284007D01*
X+6137624Y-1294679D01*
X+6131353Y-1305351D01*
X+6121780Y-1315819D01*
X+6111108Y-1323358D01*
X+6100436Y-1328122D01*
X+6089764Y-1330745D01*
X+6080000Y-1331500D01*
X+6124901Y-1223099D02*
X+6035099Y-1312901D01*
X+6124901Y-1312901D02*
X+6035099Y-1223099D01*
X+6143500Y-760000D02*
X+6143275Y-754665D01*
X+6141449Y-743993D01*
X+6137624Y-733321D01*
X+6131353Y-722649D01*
X+6121780Y-712181D01*
X+6111108Y-704642D01*
X+6100436Y-699878D01*
X+6089764Y-697255D01*
X+6080000Y-696500D01*
X+6016500Y-760000D02*
X+6016725Y-754665D01*
X+6018551Y-743993D01*
X+6022376Y-733321D01*
X+6028647Y-722649D01*
X+6038220Y-712181D01*
X+6048892Y-704642D01*
X+6059564Y-699878D01*
X+6070236Y-697255D01*
X+6080000Y-696500D01*
X+6016500Y-760000D02*
X+6016725Y-765335D01*
X+6018551Y-776007D01*
X+6022376Y-786679D01*
X+6028647Y-797351D01*
X+6038220Y-807819D01*
X+6048892Y-815358D01*
X+6059564Y-820122D01*
X+6070236Y-822745D01*
X+6080000Y-823500D01*
X+6143500Y-760000D02*
X+6143275Y-765335D01*
X+6141449Y-776007D01*
X+6137624Y-786679D01*
X+6131353Y-797351D01*
X+6121780Y-807819D01*
X+6111108Y-815358D01*
X+6100436Y-820122D01*
X+6089764Y-822745D01*
X+6080000Y-823500D01*
X+6124901Y-715099D02*
X+6035099Y-804901D01*
X+6124901Y-804901D02*
X+6035099Y-715099D01*
X+6163500Y-2538000D02*
X+6163275Y-2532665D01*
X+6161449Y-2521993D01*
X+6157624Y-2511321D01*
X+6151353Y-2500649D01*
X+6141780Y-2490181D01*
X+6131108Y-2482642D01*
X+6120436Y-2477878D01*
X+6109764Y-2475255D01*
X+6100000Y-2474500D01*
X+6036500Y-2538000D02*
X+6036725Y-2532665D01*
X+6038551Y-2521993D01*
X+6042376Y-2511321D01*
X+6048647Y-2500649D01*
X+6058220Y-2490181D01*
X+6068892Y-2482642D01*
X+6079564Y-2477878D01*
X+6090236Y-2475255D01*
X+6100000Y-2474500D01*
X+6036500Y-2538000D02*
X+6036725Y-2543335D01*
X+6038551Y-2554007D01*
X+6042376Y-2564679D01*
X+6048647Y-2575351D01*
X+6058220Y-2585819D01*
X+6068892Y-2593358D01*
X+6079564Y-2598122D01*
X+6090236Y-2600745D01*
X+6100000Y-2601500D01*
X+6163500Y-2538000D02*
X+6163275Y-2543335D01*
X+6161449Y-2554007D01*
X+6157624Y-2564679D01*
X+6151353Y-2575351D01*
X+6141780Y-2585819D01*
X+6131108Y-2593358D01*
X+6120436Y-2598122D01*
X+6109764Y-2600745D01*
X+6100000Y-2601500D01*
X+6144901Y-2493099D02*
X+6055099Y-2582901D01*
X+6144901Y-2582901D02*
X+6055099Y-2493099D01*
X+6163500Y-2030000D02*
X+6163275Y-2024665D01*
X+6161449Y-2013993D01*
X+6157624Y-2003321D01*
X+6151353Y-1992649D01*
X+6141780Y-1982181D01*
X+6131108Y-1974642D01*
X+6120436Y-1969878D01*
X+6109764Y-1967255D01*
X+6100000Y-1966500D01*
X+6036500Y-2030000D02*
X+6036725Y-2024665D01*
X+6038551Y-2013993D01*
X+6042376Y-2003321D01*
X+6048647Y-1992649D01*
X+6058220Y-1982181D01*
X+6068892Y-1974642D01*
X+6079564Y-1969878D01*
X+6090236Y-1967255D01*
X+6100000Y-1966500D01*
X+6036500Y-2030000D02*
X+6036725Y-2035335D01*
X+6038551Y-2046007D01*
X+6042376Y-2056679D01*
X+6048647Y-2067351D01*
X+6058220Y-2077819D01*
X+6068892Y-2085358D01*
X+6079564Y-2090122D01*
X+6090236Y-2092745D01*
X+6100000Y-2093500D01*
X+6163500Y-2030000D02*
X+6163275Y-2035335D01*
X+6161449Y-2046007D01*
X+6157624Y-2056679D01*
X+6151353Y-2067351D01*
X+6141780Y-2077819D01*
X+6131108Y-2085358D01*
X+6120436Y-2090122D01*
X+6109764Y-2092745D01*
X+6100000Y-2093500D01*
X+6144901Y-1985099D02*
X+6055099Y-2074901D01*
X+6144901Y-2074901D02*
X+6055099Y-1985099D01*
X+3397500Y-3470000D02*
X+3397275Y-3464665D01*
X+3395449Y-3453993D01*
X+3391624Y-3443321D01*
X+3385353Y-3432649D01*
X+3375780Y-3422181D01*
X+3365108Y-3414642D01*
X+3354436Y-3409878D01*
X+3343764Y-3407255D01*
X+3334000Y-3406500D01*
X+3270500Y-3470000D02*
X+3270725Y-3464665D01*
X+3272551Y-3453993D01*
X+3276376Y-3443321D01*
X+3282647Y-3432649D01*
X+3292220Y-3422181D01*
X+3302892Y-3414642D01*
X+3313564Y-3409878D01*
X+3324236Y-3407255D01*
X+3334000Y-3406500D01*
X+3270500Y-3470000D02*
X+3270725Y-3475335D01*
X+3272551Y-3486007D01*
X+3276376Y-3496679D01*
X+3282647Y-3507351D01*
X+3292220Y-3517819D01*
X+3302892Y-3525358D01*
X+3313564Y-3530122D01*
X+3324236Y-3532745D01*
X+3334000Y-3533500D01*
X+3397500Y-3470000D02*
X+3397275Y-3475335D01*
X+3395449Y-3486007D01*
X+3391624Y-3496679D01*
X+3385353Y-3507351D01*
X+3375780Y-3517819D01*
X+3365108Y-3525358D01*
X+3354436Y-3530122D01*
X+3343764Y-3532745D01*
X+3334000Y-3533500D01*
X+3334000Y-3406500D02*
X+3334000Y-3533500D01*
X+3397500Y-3470000D02*
X+3270500Y-3470000D01*
X+3143500Y-3470000D02*
X+3143275Y-3464665D01*
X+3141449Y-3453993D01*
X+3137624Y-3443321D01*
X+3131353Y-3432649D01*
X+3121780Y-3422181D01*
X+3111108Y-3414642D01*
X+3100436Y-3409878D01*
X+3089764Y-3407255D01*
X+3080000Y-3406500D01*
X+3016500Y-3470000D02*
X+3016725Y-3464665D01*
X+3018551Y-3453993D01*
X+3022376Y-3443321D01*
X+3028647Y-3432649D01*
X+3038220Y-3422181D01*
X+3048892Y-3414642D01*
X+3059564Y-3409878D01*
X+3070236Y-3407255D01*
X+3080000Y-3406500D01*
X+3016500Y-3470000D02*
X+3016725Y-3475335D01*
X+3018551Y-3486007D01*
X+3022376Y-3496679D01*
X+3028647Y-3507351D01*
X+3038220Y-3517819D01*
X+3048892Y-3525358D01*
X+3059564Y-3530122D01*
X+3070236Y-3532745D01*
X+3080000Y-3533500D01*
X+3143500Y-3470000D02*
X+3143275Y-3475335D01*
X+3141449Y-3486007D01*
X+3137624Y-3496679D01*
X+3131353Y-3507351D01*
X+3121780Y-3517819D01*
X+3111108Y-3525358D01*
X+3100436Y-3530122D01*
X+3089764Y-3532745D01*
X+3080000Y-3533500D01*
X+3080000Y-3406500D02*
X+3080000Y-3533500D01*
X+3143500Y-3470000D02*
X+3016500Y-3470000D01*
X+2889500Y-3470000D02*
X+2889275Y-3464665D01*
X+2887449Y-3453993D01*
X+2883624Y-3443321D01*
X+2877353Y-3432649D01*
X+2867780Y-3422181D01*
X+2857108Y-3414642D01*
X+2846436Y-3409878D01*
X+2835764Y-3407255D01*
X+2826000Y-3406500D01*
X+2762500Y-3470000D02*
X+2762725Y-3464665D01*
X+2764551Y-3453993D01*
X+2768376Y-3443321D01*
X+2774647Y-3432649D01*
X+2784220Y-3422181D01*
X+2794892Y-3414642D01*
X+2805564Y-3409878D01*
X+2816236Y-3407255D01*
X+2826000Y-3406500D01*
X+2762500Y-3470000D02*
X+2762725Y-3475335D01*
X+2764551Y-3486007D01*
X+2768376Y-3496679D01*
X+2774647Y-3507351D01*
X+2784220Y-3517819D01*
X+2794892Y-3525358D01*
X+2805564Y-3530122D01*
X+2816236Y-3532745D01*
X+2826000Y-3533500D01*
X+2889500Y-3470000D02*
X+2889275Y-3475335D01*
X+2887449Y-3486007D01*
X+2883624Y-3496679D01*
X+2877353Y-3507351D01*
X+2867780Y-3517819D01*
X+2857108Y-3525358D01*
X+2846436Y-3530122D01*
X+2835764Y-3532745D01*
X+2826000Y-3533500D01*
X+2826000Y-3406500D02*
X+2826000Y-3533500D01*
X+2889500Y-3470000D02*
X+2762500Y-3470000D01*
X+2635500Y-3470000D02*
X+2635275Y-3464665D01*
X+2633449Y-3453993D01*
X+2629624Y-3443321D01*
X+2623353Y-3432649D01*
X+2613780Y-3422181D01*
X+2603108Y-3414642D01*
X+2592436Y-3409878D01*
X+2581764Y-3407255D01*
X+2572000Y-3406500D01*
X+2508500Y-3470000D02*
X+2508725Y-3464665D01*
X+2510551Y-3453993D01*
X+2514376Y-3443321D01*
X+2520647Y-3432649D01*
X+2530220Y-3422181D01*
X+2540892Y-3414642D01*
X+2551564Y-3409878D01*
X+2562236Y-3407255D01*
X+2572000Y-3406500D01*
X+2508500Y-3470000D02*
X+2508725Y-3475335D01*
X+2510551Y-3486007D01*
X+2514376Y-3496679D01*
X+2520647Y-3507351D01*
X+2530220Y-3517819D01*
X+2540892Y-3525358D01*
X+2551564Y-3530122D01*
X+2562236Y-3532745D01*
X+2572000Y-3533500D01*
X+2635500Y-3470000D02*
X+2635275Y-3475335D01*
X+2633449Y-3486007D01*
X+2629624Y-3496679D01*
X+2623353Y-3507351D01*
X+2613780Y-3517819D01*
X+2603108Y-3525358D01*
X+2592436Y-3530122D01*
X+2581764Y-3532745D01*
X+2572000Y-3533500D01*
X+2572000Y-3406500D02*
X+2572000Y-3533500D01*
X+2635500Y-3470000D02*
X+2508500Y-3470000D01*
X+2381500Y-3470000D02*
X+2381275Y-3464665D01*
X+2379449Y-3453993D01*
X+2375624Y-3443321D01*
X+2369353Y-3432649D01*
X+2359780Y-3422181D01*
X+2349108Y-3414642D01*
X+2338436Y-3409878D01*
X+2327764Y-3407255D01*
X+2318000Y-3406500D01*
X+2254500Y-3470000D02*
X+2254725Y-3464665D01*
X+2256551Y-3453993D01*
X+2260376Y-3443321D01*
X+2266647Y-3432649D01*
X+2276220Y-3422181D01*
X+2286892Y-3414642D01*
X+2297564Y-3409878D01*
X+2308236Y-3407255D01*
X+2318000Y-3406500D01*
X+2254500Y-3470000D02*
X+2254725Y-3475335D01*
X+2256551Y-3486007D01*
X+2260376Y-3496679D01*
X+2266647Y-3507351D01*
X+2276220Y-3517819D01*
X+2286892Y-3525358D01*
X+2297564Y-3530122D01*
X+2308236Y-3532745D01*
X+2318000Y-3533500D01*
X+2381500Y-3470000D02*
X+2381275Y-3475335D01*
X+2379449Y-3486007D01*
X+2375624Y-3496679D01*
X+2369353Y-3507351D01*
X+2359780Y-3517819D01*
X+2349108Y-3525358D01*
X+2338436Y-3530122D01*
X+2327764Y-3532745D01*
X+2318000Y-3533500D01*
X+2318000Y-3406500D02*
X+2318000Y-3533500D01*
X+2381500Y-3470000D02*
X+2254500Y-3470000D01*
X+2127500Y-3470000D02*
X+2127275Y-3464665D01*
X+2125449Y-3453993D01*
X+2121624Y-3443321D01*
X+2115353Y-3432649D01*
X+2105780Y-3422181D01*
X+2095108Y-3414642D01*
X+2084436Y-3409878D01*
X+2073764Y-3407255D01*
X+2064000Y-3406500D01*
X+2000500Y-3470000D02*
X+2000725Y-3464665D01*
X+2002551Y-3453993D01*
X+2006376Y-3443321D01*
X+2012647Y-3432649D01*
X+2022220Y-3422181D01*
X+2032892Y-3414642D01*
X+2043564Y-3409878D01*
X+2054236Y-3407255D01*
X+2064000Y-3406500D01*
X+2000500Y-3470000D02*
X+2000725Y-3475335D01*
X+2002551Y-3486007D01*
X+2006376Y-3496679D01*
X+2012647Y-3507351D01*
X+2022220Y-3517819D01*
X+2032892Y-3525358D01*
X+2043564Y-3530122D01*
X+2054236Y-3532745D01*
X+2064000Y-3533500D01*
X+2127500Y-3470000D02*
X+2127275Y-3475335D01*
X+2125449Y-3486007D01*
X+2121624Y-3496679D01*
X+2115353Y-3507351D01*
X+2105780Y-3517819D01*
X+2095108Y-3525358D01*
X+2084436Y-3530122D01*
X+2073764Y-3532745D01*
X+2064000Y-3533500D01*
X+2064000Y-3406500D02*
X+2064000Y-3533500D01*
X+2127500Y-3470000D02*
X+2000500Y-3470000D01*
X+4800000Y+1969500D02*
X+4800000Y+1842500D01*
X+4863500Y+1906000D02*
X+4736500Y+1906000D01*
X+4844901Y+1950901D02*
X+4755099Y+1861099D01*
X+4844901Y+1861099D02*
X+4755099Y+1950901D01*
X+4800000Y+2985500D02*
X+4800000Y+2858500D01*
X+4863500Y+2922000D02*
X+4736500Y+2922000D01*
X+4844901Y+2966901D02*
X+4755099Y+2877099D01*
X+4844901Y+2877099D02*
X+4755099Y+2966901D01*
X+4440000Y+1969500D02*
X+4440000Y+1842500D01*
X+4503500Y+1906000D02*
X+4376500Y+1906000D01*
X+4484901Y+1950901D02*
X+4395099Y+1861099D01*
X+4484901Y+1861099D02*
X+4395099Y+1950901D01*
X+4440000Y+2985500D02*
X+4440000Y+2858500D01*
X+4503500Y+2922000D02*
X+4376500Y+2922000D01*
X+4484901Y+2966901D02*
X+4395099Y+2877099D01*
X+4484901Y+2877099D02*
X+4395099Y+2966901D01*
X+5170000Y+2979500D02*
X+5170000Y+2852500D01*
X+5233500Y+2916000D02*
X+5106500Y+2916000D01*
X+5214901Y+2960901D02*
X+5125099Y+2871099D01*
X+5214901Y+2871099D02*
X+5125099Y+2960901D01*
X+5170000Y+1963500D02*
X+5170000Y+1836500D01*
X+5233500Y+1900000D02*
X+5106500Y+1900000D01*
X+5214901Y+1944901D02*
X+5125099Y+1855099D01*
X+5214901Y+1855099D02*
X+5125099Y+1944901D01*
X+4480000Y-86500D02*
X+4480000Y-213500D01*
X+4543500Y-150000D02*
X+4416500Y-150000D01*
X+4524901Y-105099D02*
X+4435099Y-194901D01*
X+4524901Y-194901D02*
X+4435099Y-105099D01*
X+4480000Y+929500D02*
X+4480000Y+802500D01*
X+4543500Y+866000D02*
X+4416500Y+866000D01*
X+4524901Y+910901D02*
X+4435099Y+821099D01*
X+4524901Y+821099D02*
X+4435099Y+910901D01*
X+5200000Y+893500D02*
X+5200000Y+766500D01*
X+5263500Y+830000D02*
X+5136500Y+830000D01*
X+5244901Y+874901D02*
X+5155099Y+785099D01*
X+5244901Y+785099D02*
X+5155099Y+874901D01*
X+5200000Y-122500D02*
X+5200000Y-249500D01*
X+5263500Y-186000D02*
X+5136500Y-186000D01*
X+5244901Y-141099D02*
X+5155099Y-230901D01*
X+5244901Y-230901D02*
X+5155099Y-141099D01*
X+2720000Y+1273500D02*
X+2720000Y+1146500D01*
X+2783500Y+1210000D02*
X+2656500Y+1210000D01*
X+2764901Y+1254901D02*
X+2675099Y+1165099D01*
X+2764901Y+1165099D02*
X+2675099Y+1254901D01*
X+2720000Y+2289500D02*
X+2720000Y+2162500D01*
X+2783500Y+2226000D02*
X+2656500Y+2226000D01*
X+2764901Y+2270901D02*
X+2675099Y+2181099D01*
X+2764901Y+2181099D02*
X+2675099Y+2270901D01*
X+4850000Y-1566500D02*
X+4850000Y-1693500D01*
X+4913500Y-1630000D02*
X+4786500Y-1630000D01*
X+4894901Y-1585099D02*
X+4805099Y-1674901D01*
X+4894901Y-1674901D02*
X+4805099Y-1585099D01*
X+4850000Y-550500D02*
X+4850000Y-677500D01*
X+4913500Y-614000D02*
X+4786500Y-614000D01*
X+4894901Y-569099D02*
X+4805099Y-658901D01*
X+4894901Y-658901D02*
X+4805099Y-569099D01*
X+4500000Y-1556500D02*
X+4500000Y-1683500D01*
X+4563500Y-1620000D02*
X+4436500Y-1620000D01*
X+4544901Y-1575099D02*
X+4455099Y-1664901D01*
X+4544901Y-1664901D02*
X+4455099Y-1575099D01*
X+4500000Y-540500D02*
X+4500000Y-667500D01*
X+4563500Y-604000D02*
X+4436500Y-604000D01*
X+4544901Y-559099D02*
X+4455099Y-648901D01*
X+4544901Y-648901D02*
X+4455099Y-559099D01*
X+5230000Y-536500D02*
X+5230000Y-663500D01*
X+5293500Y-600000D02*
X+5166500Y-600000D01*
X+5274901Y-555099D02*
X+5185099Y-644901D01*
X+5274901Y-644901D02*
X+5185099Y-555099D01*
X+5230000Y-1552500D02*
X+5230000Y-1679500D01*
X+5293500Y-1616000D02*
X+5166500Y-1616000D01*
X+5274901Y-1571099D02*
X+5185099Y-1660901D01*
X+5274901Y-1660901D02*
X+5185099Y-1571099D01*
X+4840000Y-2926500D02*
X+4840000Y-3053500D01*
X+4903500Y-2990000D02*
X+4776500Y-2990000D01*
X+4884901Y-2945099D02*
X+4795099Y-3034901D01*
X+4884901Y-3034901D02*
X+4795099Y-2945099D01*
X+4840000Y-1910500D02*
X+4840000Y-2037500D01*
X+4903500Y-1974000D02*
X+4776500Y-1974000D01*
X+4884901Y-1929099D02*
X+4795099Y-2018901D01*
X+4884901Y-2018901D02*
X+4795099Y-1929099D01*
X+4480000Y-2906500D02*
X+4480000Y-3033500D01*
X+4543500Y-2970000D02*
X+4416500Y-2970000D01*
X+4524901Y-2925099D02*
X+4435099Y-3014901D01*
X+4524901Y-3014901D02*
X+4435099Y-2925099D01*
X+4480000Y-1890500D02*
X+4480000Y-2017500D01*
X+4543500Y-1954000D02*
X+4416500Y-1954000D01*
X+4524901Y-1909099D02*
X+4435099Y-1998901D01*
X+4524901Y-1998901D02*
X+4435099Y-1909099D01*
X+5230000Y-1916500D02*
X+5230000Y-2043500D01*
X+5293500Y-1980000D02*
X+5166500Y-1980000D01*
X+5274901Y-1935099D02*
X+5185099Y-2024901D01*
X+5274901Y-2024901D02*
X+5185099Y-1935099D01*
X+5230000Y-2932500D02*
X+5230000Y-3059500D01*
X+5293500Y-2996000D02*
X+5166500Y-2996000D01*
X+5274901Y-2951099D02*
X+5185099Y-3040901D01*
X+5274901Y-3040901D02*
X+5185099Y-2951099D01*
X+3713353Y-2616500D02*
X+3713353Y-2743500D01*
X+3776853Y-2680000D02*
X+3649853Y-2680000D01*
X+3758254Y-2635099D02*
X+3668452Y-2724901D01*
X+3758254Y-2724901D02*
X+3668452Y-2635099D01*
X+2697353Y-2616500D02*
X+2697353Y-2743500D01*
X+2760853Y-2680000D02*
X+2633853Y-2680000D01*
X+2742254Y-2635099D02*
X+2652452Y-2724901D01*
X+2742254Y-2724901D02*
X+2652452Y-2635099D01*
X+897102Y-1574398D02*
X+897102Y-1701398D01*
X+960602Y-1637898D02*
X+833602Y-1637898D01*
X+942003Y-1592997D02*
X+852201Y-1682799D01*
X+942003Y-1682799D02*
X+852201Y-1592997D01*
X+1913102Y-1574398D02*
X+1913102Y-1701398D01*
X+1976602Y-1637898D02*
X+1849602Y-1637898D01*
X+1958003Y-1592997D02*
X+1868201Y-1682799D01*
X+1958003Y-1682799D02*
X+1868201Y-1592997D01*
X+2643353Y-2256500D02*
X+2643353Y-2383500D01*
X+2706853Y-2320000D02*
X+2579853Y-2320000D01*
X+2688254Y-2275099D02*
X+2598452Y-2364901D01*
X+2688254Y-2364901D02*
X+2598452Y-2275099D01*
X+3659353Y-2256500D02*
X+3659353Y-2383500D01*
X+3722853Y-2320000D02*
X+3595853Y-2320000D01*
X+3704254Y-2275099D02*
X+3614452Y-2364901D01*
X+3704254Y-2364901D02*
X+3614452Y-2275099D01*
X+1907102Y-1264398D02*
X+1907102Y-1391398D01*
X+1970602Y-1327898D02*
X+1843602Y-1327898D01*
X+1952003Y-1282997D02*
X+1862201Y-1372799D01*
X+1952003Y-1372799D02*
X+1862201Y-1282997D01*
X+891102Y-1264398D02*
X+891102Y-1391398D01*
X+954602Y-1327898D02*
X+827602Y-1327898D01*
X+936003Y-1282997D02*
X+846201Y-1372799D01*
X+936003Y-1372799D02*
X+846201Y-1282997D01*
X+3580000Y+3843500D02*
X+3580000Y+3716500D01*
X+3643500Y+3780000D02*
X+3516500Y+3780000D01*
X+3624901Y+3824901D02*
X+3535099Y+3735099D01*
X+3624901Y+3735099D02*
X+3535099Y+3824901D01*
X+3580000Y+2827500D02*
X+3580000Y+2700500D01*
X+3643500Y+2764000D02*
X+3516500Y+2764000D01*
X+3624901Y+2808901D02*
X+3535099Y+2719099D01*
X+3624901Y+2719099D02*
X+3535099Y+2808901D01*
X+2950000Y+3833500D02*
X+2950000Y+3706500D01*
X+3013500Y+3770000D02*
X+2886500Y+3770000D01*
X+2994901Y+3814901D02*
X+2905099Y+3725099D01*
X+2994901Y+3725099D02*
X+2905099Y+3814901D01*
X+2950000Y+2817500D02*
X+2950000Y+2690500D01*
X+3013500Y+2754000D02*
X+2886500Y+2754000D01*
X+2994901Y+2798901D02*
X+2905099Y+2709099D01*
X+2994901Y+2709099D02*
X+2905099Y+2798901D01*
X+3220000Y+2823500D02*
X+3220000Y+2696500D01*
X+3283500Y+2760000D02*
X+3156500Y+2760000D01*
X+3264901Y+2804901D02*
X+3175099Y+2715099D01*
X+3264901Y+2715099D02*
X+3175099Y+2804901D01*
X+3220000Y+3839500D02*
X+3220000Y+3712500D01*
X+3283500Y+3776000D02*
X+3156500Y+3776000D01*
X+3264901Y+3820901D02*
X+3175099Y+3731099D01*
X+3264901Y+3731099D02*
X+3175099Y+3820901D01*
X+2630000Y+2833500D02*
X+2630000Y+2706500D01*
X+2693500Y+2770000D02*
X+2566500Y+2770000D01*
X+2674901Y+2814901D02*
X+2585099Y+2725099D01*
X+2674901Y+2725099D02*
X+2585099Y+2814901D01*
X+2630000Y+3849500D02*
X+2630000Y+3722500D01*
X+2693500Y+3786000D02*
X+2566500Y+3786000D01*
X+2674901Y+3830901D02*
X+2585099Y+3741099D01*
X+2674901Y+3741099D02*
X+2585099Y+3830901D01*
X+4810000Y-126500D02*
X+4810000Y-253500D01*
X+4873500Y-190000D02*
X+4746500Y-190000D01*
X+4854901Y-145099D02*
X+4765099Y-234901D01*
X+4854901Y-234901D02*
X+4765099Y-145099D01*
X+4810000Y+889500D02*
X+4810000Y+762500D01*
X+4873500Y+826000D02*
X+4746500Y+826000D01*
X+4854901Y+870901D02*
X+4765099Y+781099D01*
X+4854901Y+781099D02*
X+4765099Y+870901D01*
X+3580000Y+1237000D02*
X+3580000Y+1110000D01*
X+3643500Y+1173500D02*
X+3516500Y+1173500D01*
X+3624901Y+1218401D02*
X+3535099Y+1128599D01*
X+3624901Y+1128599D02*
X+3535099Y+1218401D01*
X+3580000Y+2253000D02*
X+3580000Y+2126000D01*
X+3643500Y+2189500D02*
X+3516500Y+2189500D01*
X+3624901Y+2234401D02*
X+3535099Y+2144599D01*
X+3624901Y+2144599D02*
X+3535099Y+2234401D01*
X+2310000Y+2327000D02*
X+2310000Y+2200000D01*
X+2373500Y+2263500D02*
X+2246500Y+2263500D01*
X+2354901Y+2308401D02*
X+2265099Y+2218599D01*
X+2354901Y+2218599D02*
X+2265099Y+2308401D01*
X+2310000Y+1311000D02*
X+2310000Y+1184000D01*
X+2373500Y+1247500D02*
X+2246500Y+1247500D01*
X+2354901Y+1292401D02*
X+2265099Y+1202599D01*
X+2354901Y+1202599D02*
X+2265099Y+1292401D01*
X+3180000Y+2257000D02*
X+3180000Y+2130000D01*
X+3243500Y+2193500D02*
X+3116500Y+2193500D01*
X+3224901Y+2238401D02*
X+3135099Y+2148599D01*
X+3224901Y+2148599D02*
X+3135099Y+2238401D01*
X+3180000Y+1241000D02*
X+3180000Y+1114000D01*
X+3243500Y+1177500D02*
X+3116500Y+1177500D01*
X+3224901Y+1222401D02*
X+3135099Y+1132599D01*
X+3224901Y+1132599D02*
X+3135099Y+1222401D01*
X+2978000Y-663751D02*
X+2978000Y-790751D01*
X+3041500Y-727251D02*
X+2914500Y-727251D01*
X+3022901Y-682350D02*
X+2933099Y-772152D01*
X+3022901Y-772152D02*
X+2933099Y-682350D01*
X+2978000Y-1679751D02*
X+2978000Y-1806751D01*
X+3041500Y-1743251D02*
X+2914500Y-1743251D01*
X+3022901Y-1698350D02*
X+2933099Y-1788152D01*
X+3022901Y-1788152D02*
X+2933099Y-1698350D01*
X+3522000Y-1679249D02*
X+3522000Y-1806249D01*
X+3585500Y-1742749D02*
X+3458500Y-1742749D01*
X+3566901Y-1697848D02*
X+3477099Y-1787650D01*
X+3566901Y-1787650D02*
X+3477099Y-1697848D01*
X+3522000Y-663249D02*
X+3522000Y-790249D01*
X+3585500Y-726749D02*
X+3458500Y-726749D01*
X+3566901Y-681848D02*
X+3477099Y-771650D01*
X+3566901Y-771650D02*
X+3477099Y-681848D01*
X+2600000Y-1663147D02*
X+2600000Y-1790147D01*
X+2663500Y-1726647D02*
X+2536500Y-1726647D01*
X+2644901Y-1681746D02*
X+2555099Y-1771548D01*
X+2644901Y-1771548D02*
X+2555099Y-1681746D01*
X+2600000Y-647147D02*
X+2600000Y-774147D01*
X+2663500Y-710647D02*
X+2536500Y-710647D01*
X+2644901Y-665746D02*
X+2555099Y-755548D01*
X+2644901Y-755548D02*
X+2555099Y-665746D01*
X+3828000Y-1683751D02*
X+3828000Y-1810751D01*
X+3891500Y-1747251D02*
X+3764500Y-1747251D01*
X+3872901Y-1702350D02*
X+3783099Y-1792152D01*
X+3872901Y-1792152D02*
X+3783099Y-1702350D01*
X+3828000Y-667751D02*
X+3828000Y-794751D01*
X+3891500Y-731251D02*
X+3764500Y-731251D01*
X+3872901Y-686350D02*
X+3783099Y-776152D01*
X+3872901Y-776152D02*
X+3783099Y-686350D01*
X-178000Y+3443500D02*
X-178000Y+3316500D01*
X-114500Y+3380000D02*
X-241500Y+3380000D01*
X-133099Y+3424901D02*
X-222901Y+3335099D01*
X-133099Y+3335099D02*
X-222901Y+3424901D01*
X-178000Y+3189500D02*
X-178000Y+3062500D01*
X-114500Y+3126000D02*
X-241500Y+3126000D01*
X-133099Y+3170901D02*
X-222901Y+3081099D01*
X-133099Y+3081099D02*
X-222901Y+3170901D01*
X-178000Y+2935500D02*
X-178000Y+2808500D01*
X-114500Y+2872000D02*
X-241500Y+2872000D01*
X-133099Y+2916901D02*
X-222901Y+2827099D01*
X-133099Y+2827099D02*
X-222901Y+2916901D01*
X-940000Y+2935500D02*
X-940000Y+2808500D01*
X-876500Y+2872000D02*
X-1003500Y+2872000D01*
X-895099Y+2916901D02*
X-984901Y+2827099D01*
X-895099Y+2827099D02*
X-984901Y+2916901D01*
X-940000Y+3189500D02*
X-940000Y+3062500D01*
X-876500Y+3126000D02*
X-1003500Y+3126000D01*
X-895099Y+3170901D02*
X-984901Y+3081099D01*
X-895099Y+3081099D02*
X-984901Y+3170901D01*
X-940000Y+3443500D02*
X-940000Y+3316500D01*
X-876500Y+3380000D02*
X-1003500Y+3380000D01*
X-895099Y+3424901D02*
X-984901Y+3335099D01*
X-895099Y+3335099D02*
X-984901Y+3424901D01*
X-2196500Y-1506000D02*
X-2196725Y-1500665D01*
X-2198551Y-1489993D01*
X-2202376Y-1479321D01*
X-2208647Y-1468649D01*
X-2218220Y-1458181D01*
X-2228892Y-1450642D01*
X-2239564Y-1445878D01*
X-2250236Y-1443255D01*
X-2260000Y-1442500D01*
X-2323500Y-1506000D02*
X-2323275Y-1500665D01*
X-2321449Y-1489993D01*
X-2317624Y-1479321D01*
X-2311353Y-1468649D01*
X-2301780Y-1458181D01*
X-2291108Y-1450642D01*
X-2280436Y-1445878D01*
X-2269764Y-1443255D01*
X-2260000Y-1442500D01*
X-2323500Y-1506000D02*
X-2323275Y-1511335D01*
X-2321449Y-1522007D01*
X-2317624Y-1532679D01*
X-2311353Y-1543351D01*
X-2301780Y-1553819D01*
X-2291108Y-1561358D01*
X-2280436Y-1566122D01*
X-2269764Y-1568745D01*
X-2260000Y-1569500D01*
X-2196500Y-1506000D02*
X-2196725Y-1511335D01*
X-2198551Y-1522007D01*
X-2202376Y-1532679D01*
X-2208647Y-1543351D01*
X-2218220Y-1553819D01*
X-2228892Y-1561358D01*
X-2239564Y-1566122D01*
X-2250236Y-1568745D01*
X-2260000Y-1569500D01*
X-2260000Y-1442500D02*
X-2260000Y-1569500D01*
X-2196500Y-1506000D02*
X-2323500Y-1506000D01*
X-2196500Y-1252000D02*
X-2196725Y-1246665D01*
X-2198551Y-1235993D01*
X-2202376Y-1225321D01*
X-2208647Y-1214649D01*
X-2218220Y-1204181D01*
X-2228892Y-1196642D01*
X-2239564Y-1191878D01*
X-2250236Y-1189255D01*
X-2260000Y-1188500D01*
X-2323500Y-1252000D02*
X-2323275Y-1246665D01*
X-2321449Y-1235993D01*
X-2317624Y-1225321D01*
X-2311353Y-1214649D01*
X-2301780Y-1204181D01*
X-2291108Y-1196642D01*
X-2280436Y-1191878D01*
X-2269764Y-1189255D01*
X-2260000Y-1188500D01*
X-2323500Y-1252000D02*
X-2323275Y-1257335D01*
X-2321449Y-1268007D01*
X-2317624Y-1278679D01*
X-2311353Y-1289351D01*
X-2301780Y-1299819D01*
X-2291108Y-1307358D01*
X-2280436Y-1312122D01*
X-2269764Y-1314745D01*
X-2260000Y-1315500D01*
X-2196500Y-1252000D02*
X-2196725Y-1257335D01*
X-2198551Y-1268007D01*
X-2202376Y-1278679D01*
X-2208647Y-1289351D01*
X-2218220Y-1299819D01*
X-2228892Y-1307358D01*
X-2239564Y-1312122D01*
X-2250236Y-1314745D01*
X-2260000Y-1315500D01*
X-2260000Y-1188500D02*
X-2260000Y-1315500D01*
X-2196500Y-1252000D02*
X-2323500Y-1252000D01*
X-2196500Y-998000D02*
X-2196725Y-992665D01*
X-2198551Y-981993D01*
X-2202376Y-971321D01*
X-2208647Y-960649D01*
X-2218220Y-950181D01*
X-2228892Y-942642D01*
X-2239564Y-937878D01*
X-2250236Y-935255D01*
X-2260000Y-934500D01*
X-2323500Y-998000D02*
X-2323275Y-992665D01*
X-2321449Y-981993D01*
X-2317624Y-971321D01*
X-2311353Y-960649D01*
X-2301780Y-950181D01*
X-2291108Y-942642D01*
X-2280436Y-937878D01*
X-2269764Y-935255D01*
X-2260000Y-934500D01*
X-2323500Y-998000D02*
X-2323275Y-1003335D01*
X-2321449Y-1014007D01*
X-2317624Y-1024679D01*
X-2311353Y-1035351D01*
X-2301780Y-1045819D01*
X-2291108Y-1053358D01*
X-2280436Y-1058122D01*
X-2269764Y-1060745D01*
X-2260000Y-1061500D01*
X-2196500Y-998000D02*
X-2196725Y-1003335D01*
X-2198551Y-1014007D01*
X-2202376Y-1024679D01*
X-2208647Y-1035351D01*
X-2218220Y-1045819D01*
X-2228892Y-1053358D01*
X-2239564Y-1058122D01*
X-2250236Y-1060745D01*
X-2260000Y-1061500D01*
X-2260000Y-934500D02*
X-2260000Y-1061500D01*
X-2196500Y-998000D02*
X-2323500Y-998000D01*
X-2196500Y-744000D02*
X-2196725Y-738665D01*
X-2198551Y-727993D01*
X-2202376Y-717321D01*
X-2208647Y-706649D01*
X-2218220Y-696181D01*
X-2228892Y-688642D01*
X-2239564Y-683878D01*
X-2250236Y-681255D01*
X-2260000Y-680500D01*
X-2323500Y-744000D02*
X-2323275Y-738665D01*
X-2321449Y-727993D01*
X-2317624Y-717321D01*
X-2311353Y-706649D01*
X-2301780Y-696181D01*
X-2291108Y-688642D01*
X-2280436Y-683878D01*
X-2269764Y-681255D01*
X-2260000Y-680500D01*
X-2323500Y-744000D02*
X-2323275Y-749335D01*
X-2321449Y-760007D01*
X-2317624Y-770679D01*
X-2311353Y-781351D01*
X-2301780Y-791819D01*
X-2291108Y-799358D01*
X-2280436Y-804122D01*
X-2269764Y-806745D01*
X-2260000Y-807500D01*
X-2196500Y-744000D02*
X-2196725Y-749335D01*
X-2198551Y-760007D01*
X-2202376Y-770679D01*
X-2208647Y-781351D01*
X-2218220Y-791819D01*
X-2228892Y-799358D01*
X-2239564Y-804122D01*
X-2250236Y-806745D01*
X-2260000Y-807500D01*
X-2260000Y-680500D02*
X-2260000Y-807500D01*
X-2196500Y-744000D02*
X-2323500Y-744000D01*
X-2196500Y-490000D02*
X-2196725Y-484665D01*
X-2198551Y-473993D01*
X-2202376Y-463321D01*
X-2208647Y-452649D01*
X-2218220Y-442181D01*
X-2228892Y-434642D01*
X-2239564Y-429878D01*
X-2250236Y-427255D01*
X-2260000Y-426500D01*
X-2323500Y-490000D02*
X-2323275Y-484665D01*
X-2321449Y-473993D01*
X-2317624Y-463321D01*
X-2311353Y-452649D01*
X-2301780Y-442181D01*
X-2291108Y-434642D01*
X-2280436Y-429878D01*
X-2269764Y-427255D01*
X-2260000Y-426500D01*
X-2323500Y-490000D02*
X-2323275Y-495335D01*
X-2321449Y-506007D01*
X-2317624Y-516679D01*
X-2311353Y-527351D01*
X-2301780Y-537819D01*
X-2291108Y-545358D01*
X-2280436Y-550122D01*
X-2269764Y-552745D01*
X-2260000Y-553500D01*
X-2196500Y-490000D02*
X-2196725Y-495335D01*
X-2198551Y-506007D01*
X-2202376Y-516679D01*
X-2208647Y-527351D01*
X-2218220Y-537819D01*
X-2228892Y-545358D01*
X-2239564Y-550122D01*
X-2250236Y-552745D01*
X-2260000Y-553500D01*
X-2260000Y-426500D02*
X-2260000Y-553500D01*
X-2196500Y-490000D02*
X-2323500Y-490000D01*
X-2196500Y-236000D02*
X-2196725Y-230665D01*
X-2198551Y-219993D01*
X-2202376Y-209321D01*
X-2208647Y-198649D01*
X-2218220Y-188181D01*
X-2228892Y-180642D01*
X-2239564Y-175878D01*
X-2250236Y-173255D01*
X-2260000Y-172500D01*
X-2323500Y-236000D02*
X-2323275Y-230665D01*
X-2321449Y-219993D01*
X-2317624Y-209321D01*
X-2311353Y-198649D01*
X-2301780Y-188181D01*
X-2291108Y-180642D01*
X-2280436Y-175878D01*
X-2269764Y-173255D01*
X-2260000Y-172500D01*
X-2323500Y-236000D02*
X-2323275Y-241335D01*
X-2321449Y-252007D01*
X-2317624Y-262679D01*
X-2311353Y-273351D01*
X-2301780Y-283819D01*
X-2291108Y-291358D01*
X-2280436Y-296122D01*
X-2269764Y-298745D01*
X-2260000Y-299500D01*
X-2196500Y-236000D02*
X-2196725Y-241335D01*
X-2198551Y-252007D01*
X-2202376Y-262679D01*
X-2208647Y-273351D01*
X-2218220Y-283819D01*
X-2228892Y-291358D01*
X-2239564Y-296122D01*
X-2250236Y-298745D01*
X-2260000Y-299500D01*
X-2260000Y-172500D02*
X-2260000Y-299500D01*
X-2196500Y-236000D02*
X-2323500Y-236000D01*
X+412000Y+2413500D02*
X+412000Y+2286500D01*
X+475500Y+2350000D02*
X+348500Y+2350000D01*
X+456901Y+2394901D02*
X+367099Y+2305099D01*
X+456901Y+2305099D02*
X+367099Y+2394901D01*
X+412000Y+3429500D02*
X+412000Y+3302500D01*
X+475500Y+3366000D02*
X+348500Y+3366000D01*
X+456901Y+3410901D02*
X+367099Y+3321099D01*
X+456901Y+3321099D02*
X+367099Y+3410901D01*
X-1378000Y+2603500D02*
X-1378000Y+2476500D01*
X-1314500Y+2540000D02*
X-1441500Y+2540000D01*
X-1333099Y+2584901D02*
X-1422901Y+2495099D01*
X-1333099Y+2495099D02*
X-1422901Y+2584901D01*
X-1378000Y+3619500D02*
X-1378000Y+3492500D01*
X-1314500Y+3556000D02*
X-1441500Y+3556000D01*
X-1333099Y+3600901D02*
X-1422901Y+3511099D01*
X-1333099Y+3511099D02*
X-1422901Y+3600901D01*
X+422000Y+523500D02*
X+422000Y+396500D01*
X+485500Y+460000D02*
X+358500Y+460000D01*
X+466901Y+504901D02*
X+377099Y+415099D01*
X+466901Y+415099D02*
X+377099Y+504901D01*
X+422000Y+1539500D02*
X+422000Y+1412500D01*
X+485500Y+1476000D02*
X+358500Y+1476000D01*
X+466901Y+1520901D02*
X+377099Y+1431099D01*
X+466901Y+1431099D02*
X+377099Y+1520901D01*
X+72000Y+1533500D02*
X+72000Y+1406500D01*
X+135500Y+1470000D02*
X+8500Y+1470000D01*
X+116901Y+1514901D02*
X+27099Y+1425099D01*
X+116901Y+1425099D02*
X+27099Y+1514901D01*
X+72000Y+1279500D02*
X+72000Y+1152500D01*
X+135500Y+1216000D02*
X+8500Y+1216000D01*
X+116901Y+1260901D02*
X+27099Y+1171099D01*
X+116901Y+1171099D02*
X+27099Y+1260901D01*
X+72000Y+1025500D02*
X+72000Y+898500D01*
X+135500Y+962000D02*
X+8500Y+962000D01*
X+116901Y+1006901D02*
X+27099Y+917099D01*
X+116901Y+917099D02*
X+27099Y+1006901D01*
X-690000Y+1025500D02*
X-690000Y+898500D01*
X-626500Y+962000D02*
X-753500Y+962000D01*
X-645099Y+1006901D02*
X-734901Y+917099D01*
X-645099Y+917099D02*
X-734901Y+1006901D01*
X-690000Y+1279500D02*
X-690000Y+1152500D01*
X-626500Y+1216000D02*
X-753500Y+1216000D01*
X-645099Y+1260901D02*
X-734901Y+1171099D01*
X-645099Y+1171099D02*
X-734901Y+1260901D01*
X-690000Y+1533500D02*
X-690000Y+1406500D01*
X-626500Y+1470000D02*
X-753500Y+1470000D01*
X-645099Y+1514901D02*
X-734901Y+1425099D01*
X-645099Y+1425099D02*
X-734901Y+1514901D01*
X-414000Y+123500D02*
X-414000Y-3500D01*
X-350500Y+60000D02*
X-477500Y+60000D01*
X-369099Y+104901D02*
X-458901Y+15099D01*
X-369099Y+15099D02*
X-458901Y+104901D01*
X-414000Y-130500D02*
X-414000Y-257500D01*
X-350500Y-194000D02*
X-477500Y-194000D01*
X-369099Y-149099D02*
X-458901Y-238901D01*
X-369099Y-238901D02*
X-458901Y-149099D01*
X-414000Y-384500D02*
X-414000Y-511500D01*
X-350500Y-448000D02*
X-477500Y-448000D01*
X-369099Y-403099D02*
X-458901Y-492901D01*
X-369099Y-492901D02*
X-458901Y-403099D01*
X-1176000Y-384500D02*
X-1176000Y-511500D01*
X-1112500Y-448000D02*
X-1239500Y-448000D01*
X-1131099Y-403099D02*
X-1220901Y-492901D01*
X-1131099Y-492901D02*
X-1220901Y-403099D01*
X-1176000Y-130500D02*
X-1176000Y-257500D01*
X-1112500Y-194000D02*
X-1239500Y-194000D01*
X-1131099Y-149099D02*
X-1220901Y-238901D01*
X-1131099Y-238901D02*
X-1220901Y-149099D01*
X-1176000Y+123500D02*
X-1176000Y-3500D01*
X-1112500Y+60000D02*
X-1239500Y+60000D01*
X-1131099Y+104901D02*
X-1220901Y+15099D01*
X-1131099Y+15099D02*
X-1220901Y+104901D01*
X-414000Y-1206500D02*
X-414000Y-1333500D01*
X-350500Y-1270000D02*
X-477500Y-1270000D01*
X-369099Y-1225099D02*
X-458901Y-1314901D01*
X-369099Y-1314901D02*
X-458901Y-1225099D01*
X-414000Y-1460500D02*
X-414000Y-1587500D01*
X-350500Y-1524000D02*
X-477500Y-1524000D01*
X-369099Y-1479099D02*
X-458901Y-1568901D01*
X-369099Y-1568901D02*
X-458901Y-1479099D01*
X-414000Y-1714500D02*
X-414000Y-1841500D01*
X-350500Y-1778000D02*
X-477500Y-1778000D01*
X-369099Y-1733099D02*
X-458901Y-1822901D01*
X-369099Y-1822901D02*
X-458901Y-1733099D01*
X-1176000Y-1714500D02*
X-1176000Y-1841500D01*
X-1112500Y-1778000D02*
X-1239500Y-1778000D01*
X-1131099Y-1733099D02*
X-1220901Y-1822901D01*
X-1131099Y-1822901D02*
X-1220901Y-1733099D01*
X-1176000Y-1460500D02*
X-1176000Y-1587500D01*
X-1112500Y-1524000D02*
X-1239500Y-1524000D01*
X-1131099Y-1479099D02*
X-1220901Y-1568901D01*
X-1131099Y-1568901D02*
X-1220901Y-1479099D01*
X-1176000Y-1206500D02*
X-1176000Y-1333500D01*
X-1112500Y-1270000D02*
X-1239500Y-1270000D01*
X-1131099Y-1225099D02*
X-1220901Y-1314901D01*
X-1131099Y-1314901D02*
X-1220901Y-1225099D01*
X-1268000Y+1773500D02*
X-1268000Y+1646500D01*
X-1204500Y+1710000D02*
X-1331500Y+1710000D01*
X-1223099Y+1754901D02*
X-1312901Y+1665099D01*
X-1223099Y+1665099D02*
X-1312901Y+1754901D01*
X-1268000Y+757500D02*
X-1268000Y+630500D01*
X-1204500Y+694000D02*
X-1331500Y+694000D01*
X-1223099Y+738901D02*
X-1312901Y+649099D01*
X-1223099Y+649099D02*
X-1312901Y+738901D01*
X+76000Y-896500D02*
X+76000Y-1023500D01*
X+139500Y-960000D02*
X+12500Y-960000D01*
X+120901Y-915099D02*
X+31099Y-1004901D01*
X+120901Y-1004901D02*
X+31099Y-915099D01*
X+76000Y+119500D02*
X+76000Y-7500D01*
X+139500Y+56000D02*
X+12500Y+56000D01*
X+120901Y+100901D02*
X+31099Y+11099D01*
X+120901Y+11099D02*
X+31099Y+100901D01*
X-1724000Y+393500D02*
X-1724000Y+266500D01*
X-1660500Y+330000D02*
X-1787500Y+330000D01*
X-1679099Y+374901D02*
X-1768901Y+285099D01*
X-1679099Y+285099D02*
X-1768901Y+374901D01*
X-1724000Y-622500D02*
X-1724000Y-749500D01*
X-1660500Y-686000D02*
X-1787500Y-686000D01*
X-1679099Y-641099D02*
X-1768901Y-730901D01*
X-1679099Y-730901D02*
X-1768901Y-641099D01*
X+106000Y-2356500D02*
X+106000Y-2483500D01*
X+169500Y-2420000D02*
X+42500Y-2420000D01*
X+150901Y-2375099D02*
X+61099Y-2464901D01*
X+150901Y-2464901D02*
X+61099Y-2375099D01*
X+106000Y-1340500D02*
X+106000Y-1467500D01*
X+169500Y-1404000D02*
X+42500Y-1404000D01*
X+150901Y-1359099D02*
X+61099Y-1448901D01*
X+150901Y-1448901D02*
X+61099Y-1359099D01*
X-1694000Y-2276500D02*
X-1694000Y-2403500D01*
X-1630500Y-2340000D02*
X-1757500Y-2340000D01*
X-1649099Y-2295099D02*
X-1738901Y-2384901D01*
X-1649099Y-2384901D02*
X-1738901Y-2295099D01*
X-1694000Y-1260500D02*
X-1694000Y-1387500D01*
X-1630500Y-1324000D02*
X-1757500Y-1324000D01*
X-1649099Y-1279099D02*
X-1738901Y-1368901D01*
X-1649099Y-1368901D02*
X-1738901Y-1279099D01*
X-2790000Y-3810000D02*
X+6770000Y-3810000D01*
X+6770000Y+4010000D01*
X-2790000Y+4010000D01*
X-2790000Y-3810000D01*
D71*
X+4802857Y-5957060D02*
X+7446997Y-5957060D01*
X+7446997Y-4471160D01*
X+4802857Y-4471160D01*
X+4802857Y-5957060D01*
D70*
X+6979635Y-4471160D02*
X+6979635Y-5957060D01*
X+6166835Y-4471160D02*
X+6166835Y-5957060D01*
X+5333715Y-4471160D02*
X+5333715Y-5957060D01*
X+7446997Y-4744210D02*
X+4802857Y-4744210D01*
X+7446997Y-4985510D02*
X+4802857Y-4985510D01*
X+7446997Y-5226810D02*
X+4802857Y-5226810D01*
X+7446997Y-5468110D02*
X+4802857Y-5468110D01*
X+7446997Y-5709410D02*
X+4802857Y-5709410D01*
D71*
X+7024087Y-4634990D02*
X+7039327Y-4650230D01*
X+7100287Y-4650230D01*
X+7115527Y-4634990D01*
X+7115527Y-4619750D01*
X+7100287Y-4604510D01*
X+7039327Y-4604510D01*
X+7024087Y-4589270D01*
X+7024087Y-4574030D01*
X+7039327Y-4558790D01*
X+7100287Y-4558790D01*
X+7115527Y-4574030D01*
X+7237447Y-4558790D02*
X+7146007Y-4650230D01*
X+7146007Y-4558790D02*
X+7191727Y-4604510D01*
X+7267927Y-4650230D02*
X+7267927Y-4558790D01*
X+7313647Y-4604510D01*
X+7359367Y-4558790D01*
X+7359367Y-4650230D01*
X+6434807Y-4634990D02*
X+6450047Y-4650230D01*
X+6511007Y-4650230D01*
X+6526247Y-4634990D01*
X+6526247Y-4619750D01*
X+6511007Y-4604510D01*
X+6450047Y-4604510D01*
X+6434807Y-4589270D01*
X+6434807Y-4574030D01*
X+6450047Y-4558790D01*
X+6511007Y-4558790D01*
X+6526247Y-4574030D01*
X+6571967Y-4558790D02*
X+6632927Y-4558790D01*
X+6602447Y-4558790D02*
X+6602447Y-4650230D01*
X+6571967Y-4650230D02*
X+6632927Y-4650230D01*
X+6678647Y-4558790D02*
X+6770087Y-4558790D01*
X+6678647Y-4650230D01*
X+6770087Y-4650230D01*
X+6892007Y-4650230D02*
X+6800567Y-4650230D01*
X+6800567Y-4558790D01*
X+6892007Y-4558790D01*
X+6800567Y-4604510D02*
X+6861527Y-4604510D01*
X+5378167Y-4650230D02*
X+5378167Y-4558790D01*
X+5454367Y-4558790D01*
X+5469607Y-4574030D01*
X+5469607Y-4589270D01*
X+5454367Y-4604510D01*
X+5378167Y-4604510D01*
X+5500087Y-4558790D02*
X+5500087Y-4650230D01*
X+5591527Y-4650230D01*
X+5622007Y-4650230D02*
X+5622007Y-4589270D01*
X+5652487Y-4558790D01*
X+5682967Y-4558790D01*
X+5713447Y-4589270D01*
X+5713447Y-4650230D01*
X+5622007Y-4619750D02*
X+5713447Y-4619750D01*
X+5743927Y-4558790D02*
X+5835367Y-4558790D01*
X+5789647Y-4558790D02*
X+5789647Y-4650230D01*
X+5957287Y-4650230D02*
X+5865847Y-4650230D01*
X+5865847Y-4558790D01*
X+5957287Y-4558790D01*
X+5865847Y-4604510D02*
X+5926807Y-4604510D01*
X+5987767Y-4650230D02*
X+5987767Y-4558790D01*
X+6048727Y-4558790D01*
X+6079207Y-4589270D01*
X+6079207Y-4619750D01*
X+6048727Y-4650230D01*
X+5987767Y-4650230D01*
X+4910807Y-4589270D02*
X+4941287Y-4558790D01*
X+4971767Y-4558790D01*
X+5002247Y-4589270D01*
X+5002247Y-4619750D01*
X+4971767Y-4650230D01*
X+4941287Y-4650230D01*
X+4910807Y-4619750D01*
X+4910807Y-4589270D01*
X+4971767Y-4619750D02*
X+5002247Y-4650230D01*
X+5032727Y-4558790D02*
X+5124167Y-4558790D01*
X+5078447Y-4558790D02*
X+5078447Y-4650230D01*
X+5246087Y-4558790D02*
X+5154647Y-4650230D01*
X+5154647Y-4558790D02*
X+5200367Y-4604510D01*
D19*
X+7200617Y-4795010D02*
X+7200617Y-4922010D01*
X+7264117Y-4858510D02*
X+7137117Y-4858510D01*
D71*
X+6192237Y-4883910D02*
X+6192237Y-4833110D01*
X+6204937Y-4820410D01*
X+6255737Y-4820410D01*
X+6268437Y-4833110D01*
X+6268437Y-4883910D01*
X+6255737Y-4896610D01*
X+6204937Y-4896610D01*
X+6192237Y-4883910D01*
X+6192237Y-4896610D02*
X+6268437Y-4820410D01*
X+6331937Y-4883910D02*
X+6344637Y-4883910D01*
X+6344637Y-4896610D01*
X+6331937Y-4896610D01*
X+6331937Y-4883910D01*
X+6408137Y-4833110D02*
X+6420837Y-4820410D01*
X+6458937Y-4820410D01*
X+6471637Y-4833110D01*
X+6471637Y-4845810D01*
X+6458937Y-4858510D01*
X+6471637Y-4871210D01*
X+6471637Y-4883910D01*
X+6458937Y-4896610D01*
X+6420837Y-4896610D01*
X+6408137Y-4883910D01*
X+6433537Y-4858510D02*
X+6458937Y-4858510D01*
X+6522437Y-4858510D02*
X+6509737Y-4845810D01*
X+6509737Y-4833110D01*
X+6522437Y-4820410D01*
X+6560537Y-4820410D01*
X+6573237Y-4833110D01*
X+6573237Y-4845810D01*
X+6560537Y-4858510D01*
X+6522437Y-4858510D01*
X+6509737Y-4871210D01*
X+6509737Y-4883910D01*
X+6522437Y-4896610D01*
X+6560537Y-4896610D01*
X+6573237Y-4883910D01*
X+6573237Y-4871210D01*
X+6560537Y-4858510D01*
X+6624037Y-4845810D02*
X+6649437Y-4820410D01*
X+6649437Y-4896610D01*
X+6700237Y-4896610D02*
X+6700237Y-4845810D01*
X+6700237Y-4858510D02*
X+6712937Y-4845810D01*
X+6738337Y-4871210D01*
X+6763737Y-4845810D01*
X+6776437Y-4858510D01*
X+6776437Y-4896610D01*
X+6801837Y-4896610D02*
X+6801837Y-4845810D01*
X+6801837Y-4858510D02*
X+6814537Y-4845810D01*
X+6839937Y-4871210D01*
X+6865337Y-4845810D01*
X+6878037Y-4858510D01*
X+6878037Y-4896610D01*
X+5849337Y-4820410D02*
X+5773137Y-4896610D01*
X+5773137Y-4820410D02*
X+5811237Y-4858510D01*
X+5950937Y-4896610D02*
X+5874737Y-4896610D01*
X+5874737Y-4820410D01*
X+5950937Y-4820410D01*
X+5874737Y-4858510D02*
X+5925537Y-4858510D01*
X+5976337Y-4883910D02*
X+5989037Y-4896610D01*
X+6039837Y-4896610D01*
X+6052537Y-4883910D01*
X+6052537Y-4871210D01*
X+6039837Y-4858510D01*
X+5989037Y-4858510D01*
X+5976337Y-4845810D01*
X+5976337Y-4833110D01*
X+5989037Y-4820410D01*
X+6039837Y-4820410D01*
X+6052537Y-4833110D01*
X+5143217Y-4833110D02*
X+5155917Y-4820410D01*
X+5194017Y-4820410D01*
X+5206717Y-4833110D01*
X+5206717Y-4845810D01*
X+5194017Y-4858510D01*
X+5155917Y-4858510D01*
X+5143217Y-4871210D01*
X+5143217Y-4896610D01*
X+5206717Y-4896610D01*
D19*
X+7245518Y-5054909D02*
X+7155716Y-5144711D01*
X+7245518Y-5144711D02*
X+7155716Y-5054909D01*
D71*
X+6192237Y-5125210D02*
X+6192237Y-5074410D01*
X+6204937Y-5061710D01*
X+6255737Y-5061710D01*
X+6268437Y-5074410D01*
X+6268437Y-5125210D01*
X+6255737Y-5137910D01*
X+6204937Y-5137910D01*
X+6192237Y-5125210D01*
X+6192237Y-5137910D02*
X+6268437Y-5061710D01*
X+6331937Y-5125210D02*
X+6344637Y-5125210D01*
X+6344637Y-5137910D01*
X+6331937Y-5137910D01*
X+6331937Y-5125210D01*
X+6471637Y-5061710D02*
X+6408137Y-5061710D01*
X+6408137Y-5087110D01*
X+6458937Y-5087110D01*
X+6471637Y-5099810D01*
X+6471637Y-5125210D01*
X+6458937Y-5137910D01*
X+6420837Y-5137910D01*
X+6408137Y-5125210D01*
X+6497037Y-5125210D02*
X+6497037Y-5074410D01*
X+6509737Y-5061710D01*
X+6560537Y-5061710D01*
X+6573237Y-5074410D01*
X+6573237Y-5125210D01*
X+6560537Y-5137910D01*
X+6509737Y-5137910D01*
X+6497037Y-5125210D01*
X+6497037Y-5137910D02*
X+6573237Y-5061710D01*
X+6624037Y-5099810D02*
X+6611337Y-5087110D01*
X+6611337Y-5074410D01*
X+6624037Y-5061710D01*
X+6662137Y-5061710D01*
X+6674837Y-5074410D01*
X+6674837Y-5087110D01*
X+6662137Y-5099810D01*
X+6624037Y-5099810D01*
X+6611337Y-5112510D01*
X+6611337Y-5125210D01*
X+6624037Y-5137910D01*
X+6662137Y-5137910D01*
X+6674837Y-5125210D01*
X+6674837Y-5112510D01*
X+6662137Y-5099810D01*
X+6700237Y-5137910D02*
X+6700237Y-5087110D01*
X+6700237Y-5099810D02*
X+6712937Y-5087110D01*
X+6738337Y-5112510D01*
X+6763737Y-5087110D01*
X+6776437Y-5099810D01*
X+6776437Y-5137910D01*
X+6801837Y-5137910D02*
X+6801837Y-5087110D01*
X+6801837Y-5099810D02*
X+6814537Y-5087110D01*
X+6839937Y-5112510D01*
X+6865337Y-5087110D01*
X+6878037Y-5099810D01*
X+6878037Y-5137910D01*
X+5849337Y-5061710D02*
X+5773137Y-5137910D01*
X+5773137Y-5061710D02*
X+5811237Y-5099810D01*
X+5950937Y-5137910D02*
X+5874737Y-5137910D01*
X+5874737Y-5061710D01*
X+5950937Y-5061710D01*
X+5874737Y-5099810D02*
X+5925537Y-5099810D01*
X+5976337Y-5125210D02*
X+5989037Y-5137910D01*
X+6039837Y-5137910D01*
X+6052537Y-5125210D01*
X+6052537Y-5112510D01*
X+6039837Y-5099810D01*
X+5989037Y-5099810D01*
X+5976337Y-5087110D01*
X+5976337Y-5074410D01*
X+5989037Y-5061710D01*
X+6039837Y-5061710D01*
X+6052537Y-5074410D01*
X+5143217Y-5061710D02*
X+5206717Y-5061710D01*
X+5206717Y-5074410D01*
X+5143217Y-5137910D01*
D19*
X+7200617Y-5277610D02*
X+7200617Y-5404610D01*
X+7264117Y-5341110D02*
X+7137117Y-5341110D01*
X+7245518Y-5296209D02*
X+7155716Y-5386011D01*
X+7245518Y-5386011D02*
X+7155716Y-5296209D01*
D71*
X+6192237Y-5366510D02*
X+6192237Y-5315710D01*
X+6204937Y-5303010D01*
X+6255737Y-5303010D01*
X+6268437Y-5315710D01*
X+6268437Y-5366510D01*
X+6255737Y-5379210D01*
X+6204937Y-5379210D01*
X+6192237Y-5366510D01*
X+6192237Y-5379210D02*
X+6268437Y-5303010D01*
X+6331937Y-5366510D02*
X+6344637Y-5366510D01*
X+6344637Y-5379210D01*
X+6331937Y-5379210D01*
X+6331937Y-5366510D01*
X+6408137Y-5303010D02*
X+6471637Y-5303010D01*
X+6471637Y-5315710D01*
X+6408137Y-5379210D01*
X+6573237Y-5315710D02*
X+6560537Y-5303010D01*
X+6522437Y-5303010D01*
X+6509737Y-5315710D01*
X+6509737Y-5366510D01*
X+6522437Y-5379210D01*
X+6560537Y-5379210D01*
X+6573237Y-5366510D01*
X+6573237Y-5353810D01*
X+6560537Y-5341110D01*
X+6509737Y-5341110D01*
X+6611337Y-5315710D02*
X+6624037Y-5303010D01*
X+6662137Y-5303010D01*
X+6674837Y-5315710D01*
X+6674837Y-5328410D01*
X+6662137Y-5341110D01*
X+6624037Y-5341110D01*
X+6611337Y-5353810D01*
X+6611337Y-5379210D01*
X+6674837Y-5379210D01*
X+6700237Y-5379210D02*
X+6700237Y-5328410D01*
X+6700237Y-5341110D02*
X+6712937Y-5328410D01*
X+6738337Y-5353810D01*
X+6763737Y-5328410D01*
X+6776437Y-5341110D01*
X+6776437Y-5379210D01*
X+6801837Y-5379210D02*
X+6801837Y-5328410D01*
X+6801837Y-5341110D02*
X+6814537Y-5328410D01*
X+6839937Y-5353810D01*
X+6865337Y-5328410D01*
X+6878037Y-5341110D01*
X+6878037Y-5379210D01*
X+5849337Y-5303010D02*
X+5773137Y-5379210D01*
X+5773137Y-5303010D02*
X+5811237Y-5341110D01*
X+5950937Y-5379210D02*
X+5874737Y-5379210D01*
X+5874737Y-5303010D01*
X+5950937Y-5303010D01*
X+5874737Y-5341110D02*
X+5925537Y-5341110D01*
X+5976337Y-5366510D02*
X+5989037Y-5379210D01*
X+6039837Y-5379210D01*
X+6052537Y-5366510D01*
X+6052537Y-5353810D01*
X+6039837Y-5341110D01*
X+5989037Y-5341110D01*
X+5976337Y-5328410D01*
X+5976337Y-5315710D01*
X+5989037Y-5303010D01*
X+6039837Y-5303010D01*
X+6052537Y-5315710D01*
X+4952717Y-5328410D02*
X+4978117Y-5303010D01*
X+4978117Y-5379210D01*
X+5054317Y-5328410D02*
X+5079717Y-5303010D01*
X+5079717Y-5379210D01*
X+5143217Y-5315710D02*
X+5155917Y-5303010D01*
X+5194017Y-5303010D01*
X+5206717Y-5315710D01*
X+5206717Y-5328410D01*
X+5194017Y-5341110D01*
X+5155917Y-5341110D01*
X+5143217Y-5353810D01*
X+5143217Y-5379210D01*
X+5206717Y-5379210D01*
D19*
X+7264117Y-5582410D02*
X+7263892Y-5577075D01*
X+7262066Y-5566403D01*
X+7258241Y-5555731D01*
X+7251970Y-5545059D01*
X+7242397Y-5534591D01*
X+7231725Y-5527052D01*
X+7221053Y-5522288D01*
X+7210381Y-5519665D01*
X+7200617Y-5518910D01*
X+7137117Y-5582410D02*
X+7137342Y-5577075D01*
X+7139168Y-5566403D01*
X+7142993Y-5555731D01*
X+7149264Y-5545059D01*
X+7158837Y-5534591D01*
X+7169509Y-5527052D01*
X+7180181Y-5522288D01*
X+7190853Y-5519665D01*
X+7200617Y-5518910D01*
X+7137117Y-5582410D02*
X+7137342Y-5587745D01*
X+7139168Y-5598417D01*
X+7142993Y-5609089D01*
X+7149264Y-5619761D01*
X+7158837Y-5630229D01*
X+7169509Y-5637768D01*
X+7180181Y-5642532D01*
X+7190853Y-5645155D01*
X+7200617Y-5645910D01*
X+7264117Y-5582410D02*
X+7263892Y-5587745D01*
X+7262066Y-5598417D01*
X+7258241Y-5609089D01*
X+7251970Y-5619761D01*
X+7242397Y-5630229D01*
X+7231725Y-5637768D01*
X+7221053Y-5642532D01*
X+7210381Y-5645155D01*
X+7200617Y-5645910D01*
X+7200617Y-5518910D02*
X+7200617Y-5645910D01*
X+7264117Y-5582410D02*
X+7137117Y-5582410D01*
D71*
X+6217637Y-5569710D02*
X+6243037Y-5544310D01*
X+6243037Y-5620510D01*
X+6331937Y-5607810D02*
X+6344637Y-5607810D01*
X+6344637Y-5620510D01*
X+6331937Y-5620510D01*
X+6331937Y-5607810D01*
X+6395437Y-5607810D02*
X+6395437Y-5557010D01*
X+6408137Y-5544310D01*
X+6458937Y-5544310D01*
X+6471637Y-5557010D01*
X+6471637Y-5607810D01*
X+6458937Y-5620510D01*
X+6408137Y-5620510D01*
X+6395437Y-5607810D01*
X+6395437Y-5620510D02*
X+6471637Y-5544310D01*
X+6522437Y-5569710D02*
X+6547837Y-5544310D01*
X+6547837Y-5620510D01*
X+6674837Y-5557010D02*
X+6662137Y-5544310D01*
X+6624037Y-5544310D01*
X+6611337Y-5557010D01*
X+6611337Y-5607810D01*
X+6624037Y-5620510D01*
X+6662137Y-5620510D01*
X+6674837Y-5607810D01*
X+6674837Y-5595110D01*
X+6662137Y-5582410D01*
X+6611337Y-5582410D01*
X+6700237Y-5620510D02*
X+6700237Y-5569710D01*
X+6700237Y-5582410D02*
X+6712937Y-5569710D01*
X+6738337Y-5595110D01*
X+6763737Y-5569710D01*
X+6776437Y-5582410D01*
X+6776437Y-5620510D01*
X+6801837Y-5620510D02*
X+6801837Y-5569710D01*
X+6801837Y-5582410D02*
X+6814537Y-5569710D01*
X+6839937Y-5595110D01*
X+6865337Y-5569710D01*
X+6878037Y-5582410D01*
X+6878037Y-5620510D01*
X+5849337Y-5544310D02*
X+5773137Y-5620510D01*
X+5773137Y-5544310D02*
X+5811237Y-5582410D01*
X+5950937Y-5620510D02*
X+5874737Y-5620510D01*
X+5874737Y-5544310D01*
X+5950937Y-5544310D01*
X+5874737Y-5582410D02*
X+5925537Y-5582410D01*
X+5976337Y-5607810D02*
X+5989037Y-5620510D01*
X+6039837Y-5620510D01*
X+6052537Y-5607810D01*
X+6052537Y-5595110D01*
X+6039837Y-5582410D01*
X+5989037Y-5582410D01*
X+5976337Y-5569710D01*
X+5976337Y-5557010D01*
X+5989037Y-5544310D01*
X+6039837Y-5544310D01*
X+6052537Y-5557010D01*
X+5054317Y-5569710D02*
X+5079717Y-5544310D01*
X+5079717Y-5620510D01*
X+5155917Y-5582410D02*
X+5143217Y-5569710D01*
X+5143217Y-5557010D01*
X+5155917Y-5544310D01*
X+5194017Y-5544310D01*
X+5206717Y-5557010D01*
X+5206717Y-5569710D01*
X+5194017Y-5582410D01*
X+5155917Y-5582410D01*
X+5143217Y-5595110D01*
X+5143217Y-5607810D01*
X+5155917Y-5620510D01*
X+5194017Y-5620510D01*
X+5206717Y-5607810D01*
X+5206717Y-5595110D01*
X+5194017Y-5582410D01*
D19*
X+7264117Y-5823710D02*
X+7263892Y-5818375D01*
X+7262066Y-5807703D01*
X+7258241Y-5797031D01*
X+7251970Y-5786359D01*
X+7242397Y-5775891D01*
X+7231725Y-5768352D01*
X+7221053Y-5763588D01*
X+7210381Y-5760965D01*
X+7200617Y-5760210D01*
X+7137117Y-5823710D02*
X+7137342Y-5818375D01*
X+7139168Y-5807703D01*
X+7142993Y-5797031D01*
X+7149264Y-5786359D01*
X+7158837Y-5775891D01*
X+7169509Y-5768352D01*
X+7180181Y-5763588D01*
X+7190853Y-5760965D01*
X+7200617Y-5760210D01*
X+7137117Y-5823710D02*
X+7137342Y-5829045D01*
X+7139168Y-5839717D01*
X+7142993Y-5850389D01*
X+7149264Y-5861061D01*
X+7158837Y-5871529D01*
X+7169509Y-5879068D01*
X+7180181Y-5883832D01*
X+7190853Y-5886455D01*
X+7200617Y-5887210D01*
X+7264117Y-5823710D02*
X+7263892Y-5829045D01*
X+7262066Y-5839717D01*
X+7258241Y-5850389D01*
X+7251970Y-5861061D01*
X+7242397Y-5871529D01*
X+7231725Y-5879068D01*
X+7221053Y-5883832D01*
X+7210381Y-5886455D01*
X+7200617Y-5887210D01*
X+7245518Y-5778809D02*
X+7155716Y-5868611D01*
X+7245518Y-5868611D02*
X+7155716Y-5778809D01*
D71*
X+6217637Y-5811010D02*
X+6243037Y-5785610D01*
X+6243037Y-5861810D01*
X+6331937Y-5849110D02*
X+6344637Y-5849110D01*
X+6344637Y-5861810D01*
X+6331937Y-5861810D01*
X+6331937Y-5849110D01*
X+6471637Y-5785610D02*
X+6408137Y-5785610D01*
X+6408137Y-5811010D01*
X+6458937Y-5811010D01*
X+6471637Y-5823710D01*
X+6471637Y-5849110D01*
X+6458937Y-5861810D01*
X+6420837Y-5861810D01*
X+6408137Y-5849110D01*
X+6509737Y-5798310D02*
X+6522437Y-5785610D01*
X+6560537Y-5785610D01*
X+6573237Y-5798310D01*
X+6573237Y-5811010D01*
X+6560537Y-5823710D01*
X+6522437Y-5823710D01*
X+6509737Y-5836410D01*
X+6509737Y-5861810D01*
X+6573237Y-5861810D01*
X+6674837Y-5836410D02*
X+6598637Y-5836410D01*
X+6649437Y-5785610D01*
X+6649437Y-5861810D01*
X+6700237Y-5861810D02*
X+6700237Y-5811010D01*
X+6700237Y-5823710D02*
X+6712937Y-5811010D01*
X+6738337Y-5836410D01*
X+6763737Y-5811010D01*
X+6776437Y-5823710D01*
X+6776437Y-5861810D01*
X+6801837Y-5861810D02*
X+6801837Y-5811010D01*
X+6801837Y-5823710D02*
X+6814537Y-5811010D01*
X+6839937Y-5836410D01*
X+6865337Y-5811010D01*
X+6878037Y-5823710D01*
X+6878037Y-5861810D01*
X+5849337Y-5785610D02*
X+5773137Y-5861810D01*
X+5773137Y-5785610D02*
X+5811237Y-5823710D01*
X+5950937Y-5861810D02*
X+5874737Y-5861810D01*
X+5874737Y-5785610D01*
X+5950937Y-5785610D01*
X+5874737Y-5823710D02*
X+5925537Y-5823710D01*
X+5976337Y-5849110D02*
X+5989037Y-5861810D01*
X+6039837Y-5861810D01*
X+6052537Y-5849110D01*
X+6052537Y-5836410D01*
X+6039837Y-5823710D01*
X+5989037Y-5823710D01*
X+5976337Y-5811010D01*
X+5976337Y-5798310D01*
X+5989037Y-5785610D01*
X+6039837Y-5785610D01*
X+6052537Y-5798310D01*
X+5054317Y-5811010D02*
X+5079717Y-5785610D01*
X+5079717Y-5861810D01*
X+5130517Y-5849110D02*
X+5130517Y-5798310D01*
X+5143217Y-5785610D01*
X+5194017Y-5785610D01*
X+5206717Y-5798310D01*
X+5206717Y-5849110D01*
X+5194017Y-5861810D01*
X+5143217Y-5861810D01*
X+5130517Y-5849110D01*
X+5130517Y-5861810D02*
X+5206717Y-5785610D01*
M02*
